<svg width="345" height="250" viewBox="0 0 345 250" fill="none" xmlns="http://www.w3.org/2000/svg">
<g clip-path="url(#clip0)">
<path opacity="0.1" d="M166.095 250C244.696 250 308.416 245.983 308.416 241.028C308.416 236.072 244.696 232.055 166.095 232.055C87.4928 232.055 23.7734 236.072 23.7734 241.028C23.7734 245.983 87.4928 250 166.095 250Z" fill="#6C63FF"/>
<path opacity="0.1" d="M11.253 28.5628C2.38454 37.9976 0.140993 49.9577 0.0187386 61.4253C-0.0671703 69.5118 1.14877 78.283 8.57658 84.2465C18.3537 92.0928 37.1248 93.6392 41.9687 103.666C46.2641 112.575 36.269 121.538 26.667 127.826C17.065 134.114 6.03897 141.813 7.83314 151.176C8.96978 157.154 15.2048 161.848 21.4233 165.787C33.2456 173.294 46.5351 179.861 61.5163 183.056C88.6965 188.846 118.054 182.852 143.523 173.778C159.201 168.192 177.404 161.337 192.973 167.081C197.084 168.598 200.573 170.889 204.363 172.787C215.382 178.273 228.84 180.294 241.938 182.008C261.135 184.531 281.311 186.636 299.808 182.086C318.304 177.537 334.29 164.232 331.458 150.041C328.789 136.672 311.792 127.958 298.248 118.827C293.47 115.605 288.606 111.335 289.796 106.647C290.741 102.93 295.188 100.341 299.153 97.9392C320.023 85.2254 335.361 67.6741 342.412 48.4293C345.742 39.3488 346.945 28.8871 339.514 21.23C333.52 15.0533 323.247 12.0865 313.477 9.64528C295.347 5.11408 276.764 1.28552 257.696 0.252565C238.627 -0.780394 218.928 1.18943 202 7.7265C193.882 10.8644 186.524 14.9962 178.326 18.0171C155.051 26.593 127.626 25.4399 101.669 24.0857C92.3939 23.6022 82.6994 22.7434 74.6471 19.062C67.7083 15.8851 63.7433 13.609 55.1524 13.2546C38.3143 12.561 20.8946 18.2873 11.253 28.5628Z" fill="#6C63FF"/>
<path d="M136.945 93.1944L136.582 93.8761L134.226 98.2751L109.514 144.389L67.5807 237.764L61.5869 237.806L103.543 144.389L132.135 91.0294L134.226 91.9693L136.582 93.0293L136.945 93.1944Z" fill="#535461"/>
<path d="M210.516 237.806L205.583 237.764L163.646 144.389L139.585 99.4853L136.582 93.8761L136.215 93.1944L136.582 93.0293L139.585 91.678L141.029 91.0294L169.191 144.389L210.516 237.806Z" fill="#535461"/>
<path d="M139.588 78.4868H134.226V237.806H139.588V78.4868Z" fill="#535461"/>
<path d="M136.295 52.2395C134.485 52.2411 132.751 52.8949 131.472 54.0574C130.193 55.2199 129.473 56.7962 129.471 58.4403V60.6563C129.451 61.4823 129.613 62.3036 129.947 63.072C130.281 63.8404 130.781 64.5404 131.416 65.131C132.052 65.7216 132.811 66.1908 133.649 66.5112C134.487 66.8315 135.387 66.9965 136.296 66.9965C137.205 66.9965 138.105 66.8315 138.943 66.5112C139.781 66.1908 140.54 65.7216 141.176 65.131C141.812 64.5404 142.311 63.8404 142.645 63.072C142.979 62.3036 143.141 61.4823 143.121 60.6563V58.4403C143.118 56.7959 142.398 55.2197 141.118 54.0572C139.839 52.8948 138.104 52.2411 136.295 52.2395V52.2395ZM141.413 60.6473C141.413 61.8817 140.873 63.0655 139.913 63.9384C138.952 64.8113 137.65 65.3016 136.291 65.3016C134.933 65.3016 133.63 64.8113 132.67 63.9384C131.709 63.0655 131.17 61.8817 131.17 60.6473V58.4312C131.17 57.1968 131.709 56.013 132.67 55.1401C133.63 54.2673 134.933 53.7769 136.291 53.7769C137.65 53.7769 138.952 54.2673 139.913 55.1401C140.873 56.013 141.413 57.1968 141.413 58.4312V60.6473Z" fill="#535461"/>
<path opacity="0.1" d="M169.192 144.389H163.647L139.586 99.4853V144.389H134.227V98.2752L109.515 144.389H103.544L132.135 91.0295L134.227 91.9693V78.4868H139.586V91.6781L141.03 91.0295L169.192 144.389Z" fill="black"/>
<path opacity="0.1" d="M143.121 58.6625V60.6563C143.141 61.4823 142.979 62.3036 142.645 63.072C142.311 63.8404 141.812 64.5404 141.176 65.131C140.54 65.7216 139.781 66.1908 138.943 66.5112C138.105 66.8315 137.205 66.9966 136.296 66.9966C135.387 66.9966 134.487 66.8315 133.649 66.5112C132.811 66.1908 132.052 65.7216 131.416 65.131C130.781 64.5404 130.281 63.8404 129.947 63.072C129.613 62.3036 129.451 61.4823 129.471 60.6563V58.6625H131.176V60.6563C131.176 61.8907 131.716 63.0746 132.676 63.9474C133.637 64.8203 134.94 65.3106 136.298 65.3106C137.656 65.3106 138.959 64.8203 139.919 63.9474C140.88 63.0746 141.419 61.8907 141.419 60.6563V58.6625H143.121Z" fill="black"/>
<path d="M239.401 59.1069H33.1904V143.725H239.401V59.1069Z" fill="#535461"/>
<path d="M235.258 61.7643H36.8486V138.852H235.258V61.7643Z" fill="white"/>
<g opacity="0.2">
<path opacity="0.2" d="M65.823 70.1451H56.4424V74.0277H65.823V70.1451Z" fill="#6C63FF"/>
</g>
<g opacity="0.2">
<path opacity="0.2" d="M65.823 77.655H56.4424V81.5376H65.823V77.655Z" fill="#6C63FF"/>
</g>
<g opacity="0.2">
<path opacity="0.2" d="M65.823 85.162H56.4424V89.0446H65.823V85.162Z" fill="#6C63FF"/>
</g>
<g opacity="0.2">
<path opacity="0.2" d="M65.823 92.6689H56.4424V96.5515H65.823V92.6689Z" fill="#6C63FF"/>
</g>
<g opacity="0.2">
<path opacity="0.2" d="M65.823 100.179H56.4424V104.062H65.823V100.179Z" fill="#6C63FF"/>
</g>
<g opacity="0.2">
<path opacity="0.2" d="M65.823 107.686H56.4424V111.569H65.823V107.686Z" fill="#6C63FF"/>
</g>
<g opacity="0.2">
<path opacity="0.2" d="M65.823 115.193H56.4424V119.075H65.823V115.193Z" fill="#6C63FF"/>
</g>
<g opacity="0.2">
<path opacity="0.2" d="M65.823 122.7H56.4424V126.582H65.823V122.7Z" fill="#6C63FF"/>
</g>
<g opacity="0.2">
<path opacity="0.2" d="M83.4841 126.585H74.1035V130.468H83.4841V126.585Z" fill="#6C63FF"/>
</g>
<g opacity="0.2">
<path opacity="0.2" d="M100.008 126.585H90.627V130.468H100.008V126.585Z" fill="#6C63FF"/>
</g>
<g opacity="0.2">
<path opacity="0.2" d="M116.529 126.585H107.148V130.468H116.529V126.585Z" fill="#6C63FF"/>
</g>
<g opacity="0.2">
<path opacity="0.2" d="M133.052 126.585H123.672V130.468H133.052V126.585Z" fill="#6C63FF"/>
</g>
<g opacity="0.2">
<path opacity="0.2" d="M149.574 126.585H140.193V130.468H149.574V126.585Z" fill="#6C63FF"/>
</g>
<g opacity="0.2">
<path opacity="0.2" d="M166.098 126.585H156.718V130.468H166.098V126.585Z" fill="#6C63FF"/>
</g>
<g opacity="0.2">
<path opacity="0.2" d="M182.619 126.585H173.238V130.468H182.619V126.585Z" fill="#6C63FF"/>
</g>
<g opacity="0.2">
<path opacity="0.2" d="M199.143 126.585H189.763V130.468H199.143V126.585Z" fill="#6C63FF"/>
</g>
<g opacity="0.2">
<path opacity="0.2" d="M215.665 126.585H206.284V130.468H215.665V126.585Z" fill="#6C63FF"/>
</g>
<path d="M83.4841 98.3652H74.1035V122.7H83.4841V98.3652Z" fill="#90EE90"/>
<path d="M100.008 87.1049H90.627V122.703H100.008V87.1049Z" fill="#90EE90"/>
<path d="M116.529 77.655H107.148V122.703H116.529V77.655Z" fill="#90EE90"/>
<path d="M133.052 82.5526H123.672V122.7H133.052V82.5526Z" fill="#90EE90"/>
<path d="M149.574 74.0308H140.193V122.703H149.574V74.0308Z" fill="#90EE90"/>
<g opacity="0.2">
<path opacity="0.2" d="M166.098 92.6689H156.718V122.7H166.098V92.6689Z" fill="#6C63FF"/>
</g>
<g opacity="0.2">
<path opacity="0.2" d="M182.619 92.6689H173.238V122.7H182.619V92.6689Z" fill="#6C63FF"/>
</g>
<g opacity="0.2">
<path opacity="0.2" d="M199.143 92.6689H189.763V122.7H199.143V92.6689Z" fill="#6C63FF"/>
</g>
<g opacity="0.2">
<path opacity="0.2" d="M215.665 92.6689H206.284V122.7H215.665V92.6689Z" fill="#6C63FF"/>
</g>
<path d="M205.207 92.6029L124.882 97.0951V98.5184L206.918 95.5606L205.207 92.6029Z" fill="#535461"/>
<path d="M300.308 122.258C300.308 122.258 304.511 115.977 303.394 106.121C302.277 96.2663 298.236 80.3155 298.236 80.3155C298.236 80.3155 299.991 71.3792 290.475 70.124C290.475 70.124 284.56 69.1241 280.331 66.7068C278.758 65.806 277.42 64.716 276.696 63.4038C276.696 63.4038 276.64 63.5509 276.531 63.8212C276.437 63.686 276.351 63.5467 276.273 63.4038C276.273 63.4038 276.25 63.4578 276.214 63.5539L274.598 61.2658C274.598 61.2658 274.377 61.479 274.003 61.8303C273.353 60.9826 272.8 60.0771 272.351 59.1278C272.753 59.0396 273.147 58.9252 273.531 58.7855C273.898 58.6752 274.228 58.4832 274.492 58.227C274.724 57.9348 274.873 57.5957 274.928 57.239C275.186 56.0977 275.259 54.9284 275.146 53.7678C275.057 52.867 274.856 51.9662 274.925 51.0503C274.998 50.0744 275.378 49.1315 275.431 48.1526C275.523 46.429 274.581 44.7895 273.418 43.4232C272.724 42.6095 271.945 41.8528 271.343 40.982C270.821 40.2253 270.441 39.3905 269.88 38.6548C268.558 36.9432 266.354 35.9343 264.094 35.5769C261.834 35.2196 259.508 35.4418 257.244 35.7811C255.262 36.0814 253.279 36.5168 251.297 36.6219C249.565 36.712 248.155 36.1805 246.569 37.2225C246.043 37.5744 245.607 38.0245 245.289 38.5424C244.971 39.0604 244.779 39.6342 244.725 40.2253C244.699 40.4265 244.716 40.6303 244.774 40.8258C244.868 41.0284 244.978 41.2241 245.105 41.4114C245.809 42.6725 244.738 44.1709 244.877 45.5792C244.961 46.202 245.275 46.7805 245.767 47.2209C246.259 47.6613 246.9 47.9378 247.586 48.0055C247.523 48.1256 247.454 48.2427 247.395 48.3658C246.517 50.1676 246.122 52.1328 246.243 54.1001C246.364 56.0674 246.996 57.9807 248.088 59.6827C249.181 61.3847 250.702 62.8269 252.527 63.8908C254.352 64.9548 256.428 65.6101 258.586 65.803L259.2 66.2324C260.588 67.2083 262.148 68.3764 263.651 69.6466L263.621 69.6676L263.377 69.5415C262.919 69.8704 262.438 70.1714 261.936 70.4423C260.545 71.217 258.302 72.223 255.777 72.3371C255.777 72.3371 251.257 74.5141 249.701 81.6937C247.467 83.5134 242.686 86.7985 236.368 87.6543C227.49 88.8554 216.543 89.2488 216.543 89.2488C216.543 89.2488 216.454 89.3929 216.329 89.6571L215.318 89.489C215.318 89.489 215.318 89.6001 215.275 89.7893L214.878 89.6271C211.742 88.381 205.478 86.5643 204.685 91.5699C203.621 98.2841 210.665 97.5124 210.665 97.5124C212.058 97.0315 213.486 96.6372 214.938 96.3323L215.331 96.2633C215.398 96.4384 215.491 96.6041 215.608 96.7557H216.566C216.899 97.3816 217.301 97.9752 217.766 98.5274L240.096 98.083C240.096 98.083 243.912 97.3263 247.434 97.8067C245.898 108.244 244.084 119.691 244.084 119.691C244.084 119.691 240.284 137.819 242.944 139.714C244.488 139.246 246.061 138.862 247.656 138.567C247.68 139.687 247.81 140.803 248.045 141.903L249.747 152.025C249.747 152.025 250.408 162.367 252.618 168.54L254.568 176.978L256.2 183.356L257.119 194.181C258.38 198.767 259.292 203.426 259.848 208.126C260.71 215.399 265.392 227.152 266.017 228.698C264.418 230.755 261.133 234.244 257.013 234.605C251.132 235.121 250.99 238.343 255.1 239.502C259.21 240.661 267.861 239.502 267.861 239.502L280.06 236.761C279.693 238.806 279.501 240.421 279.769 240.595C280.549 241.112 292.388 243.898 292.814 239.436C292.847 239.068 292.877 238.71 292.903 238.364C293.079 235.506 292.659 232.643 291.664 229.926C291.568 229.659 291.482 229.389 291.406 229.119C291.582 228.94 291.743 228.751 291.889 228.551C291.889 228.551 292.741 216.504 293.379 212.186C293.429 211.841 293.462 211.42 293.478 210.946C293.772 205.769 291.694 192.151 291.694 192.151C291.694 192.151 289.126 183.293 289.222 179.221C289.237 178.883 289.3 178.548 289.411 178.224C289.411 178.224 289.411 178.143 289.378 178.008C289.378 177.951 289.407 177.891 289.427 177.837C289.427 177.837 288.125 169.729 288.307 164.907C288.332 164.188 288.443 163.473 288.637 162.775C288.844 161.859 288.949 160.926 288.951 159.991C289.117 156.688 288.925 150.983 288.661 145.632C288.69 145.542 288.72 145.452 288.743 145.347C288.796 144.921 288.741 144.489 288.581 144.086C288.561 143.74 288.545 143.398 288.525 143.059C288.634 142.719 288.723 142.359 288.803 141.987H288.974V142.008C288.974 142.008 300.083 141.524 302.637 138.819C302.637 138.819 300.057 131.531 298.626 125.607L300.308 122.258ZM252.437 99.5904L252.262 99.5333C252.542 98.6325 252.876 97.5845 253.253 96.4855C252.932 97.6746 252.655 98.7556 252.437 99.5904ZM263.711 69.7156L263.76 69.7577L263.707 69.7306L263.711 69.7156ZM277.588 226.017C276.99 224.146 274.614 216.519 274.69 212.883C274.707 212.566 274.768 212.254 274.872 211.952C275.092 211.293 275.204 210.608 275.203 209.919C275.441 206.123 273.841 199.322 273.841 199.322C273.841 199.322 270.263 190.148 270.537 182.864C270.537 182.68 270.56 182.497 270.573 182.314C270.633 181.623 270.679 180.876 270.712 180.086V180.071C270.848 177.257 270.818 173.87 270.729 170.711L270.709 170.594C270.587 166.411 270.359 162.646 270.263 161.156C270.593 163.309 272.708 176.711 273.62 178.903C273.62 178.903 274.119 185.086 276.385 190.314L278.87 203.904C278.87 203.904 279.508 220.077 280.569 224.65C281.044 226.686 281.448 228.059 281.748 228.953C281.319 230.776 280.625 233.83 280.159 236.358C279.885 234.71 278.92 228.428 277.592 226.017H277.588Z" fill="url(#paint0_linear)"/>
<path d="M266.965 226.434C266.965 226.434 262.819 233.265 256.987 233.776C251.155 234.286 251.016 237.478 255.09 238.628C259.164 239.779 267.738 238.628 267.738 238.628L279.964 235.884C279.964 235.884 278.487 224.9 276.521 224.326C274.555 223.753 266.965 226.434 266.965 226.434Z" fill="#4C4C78"/>
<path d="M281.867 226.56C281.867 226.56 278.774 239.202 279.554 239.715C280.334 240.229 292.06 242.97 292.483 238.565C292.516 238.195 292.546 237.841 292.572 237.502C292.746 234.669 292.328 231.832 291.343 229.14C291.013 228.239 290.781 227.275 290.867 226.56C291.062 224.774 281.867 226.56 281.867 226.56Z" fill="#4C4C78"/>
<path d="M278.031 66.5087C278.031 66.5087 268.544 87.6844 270.233 80.8831C271.35 76.3789 264.13 70.3943 259.137 66.8781C256.596 65.0764 254.634 63.9323 254.634 63.9323C254.634 63.9323 272.443 45.0628 271.181 53.2034C270.835 55.4329 271.171 57.7061 272.153 59.7735C274.119 64.0194 278.031 66.5087 278.031 66.5087Z" fill="#FFB9B9"/>
<path d="M217.436 96.5906C216.933 96.4735 216.114 96.5485 215.265 96.7137C213.826 97.0156 212.412 97.4058 211.032 97.8818C211.032 97.8818 204.05 98.6475 205.104 91.9933C205.888 87.0327 212.096 88.8344 215.205 90.0655C216.263 90.4889 216.963 90.8432 216.963 90.8432L217.436 96.5906Z" fill="#FFB9B9"/>
<path opacity="0.1" d="M217.435 96.5906C216.933 96.4735 216.113 96.5486 215.264 96.7137C214.504 94.9721 215.082 90.8433 215.205 90.0656C216.262 90.4889 216.962 90.8433 216.962 90.8433L217.435 96.5906Z" fill="black"/>
<path d="M217.465 90.2368L215.638 89.9365C215.638 89.9365 214.703 95.6418 215.925 97.1432H218.027L217.465 90.2368Z" fill="#CBCDDA"/>
<path d="M254.112 100.647C254.112 100.647 248.528 97.6115 247.861 101.443C247.193 105.275 246.314 111.821 246.314 111.821L244.768 120.153L242.766 136.849L243.046 139.69C243.046 139.69 248.994 137.87 250.388 138.509C251.783 139.149 252.919 131.486 252.919 131.486L255.232 123.568L255.583 106.776L254.112 100.647Z" fill="#4C4C78"/>
<path opacity="0.1" d="M254.112 100.647C254.112 100.647 248.528 97.6115 247.861 101.443C247.193 105.275 246.314 111.821 246.314 111.821L244.768 120.153L242.766 136.849L243.046 139.69C243.046 139.69 248.994 137.87 250.388 138.509C251.783 139.149 252.919 131.486 252.919 131.486L255.232 123.568L255.583 106.776L254.112 100.647Z" fill="black"/>
<path d="M251.102 80.9791C251.102 80.9791 245.307 86.9186 236.508 88.1137C227.709 89.3089 216.851 89.6962 216.851 89.6962C216.851 89.6962 214.112 94.1493 218.064 98.8907L240.202 98.4463C240.202 98.4463 245.102 97.4794 248.898 98.4463L251.102 80.9791Z" fill="#4C4C78"/>
<path opacity="0.05" d="M251.102 80.9791C251.102 80.9791 245.307 86.9186 236.508 88.1137C227.709 89.3089 216.851 89.6962 216.851 89.6962C216.851 89.6962 214.112 94.1493 218.064 98.8907L240.202 98.4463C240.202 98.4463 245.102 97.4794 248.898 98.4463L251.102 80.9791Z" fill="black"/>
<path opacity="0.1" d="M271.214 59.5903C269.053 63.7942 265.296 66.8931 259.848 66.8931C259.607 66.8931 259.372 66.8931 259.137 66.8781C256.596 65.0764 254.634 63.9323 254.634 63.9323C254.634 63.9323 272.443 45.0628 271.181 53.2034C270.791 55.6957 270.345 57.7196 271.214 59.5903Z" fill="black"/>
<path d="M273.421 54.1702C273.419 56.6103 272.621 58.995 271.128 61.023C269.635 63.0509 267.514 64.6309 265.033 65.5633C262.551 66.4957 259.822 66.7386 257.188 66.2613C254.555 65.7839 252.137 64.6078 250.24 62.8816C248.342 61.1554 247.05 58.9566 246.527 56.5632C246.005 54.1698 246.275 51.6893 247.303 49.4353C248.331 47.1814 250.072 45.2551 252.305 43.9001C254.538 42.5451 257.163 41.8222 259.848 41.8228C261.632 41.8196 263.4 42.1369 265.049 42.7564C266.699 43.376 268.197 44.2856 269.458 45.4329C270.72 46.5803 271.719 47.9428 272.399 49.4422C273.079 50.9416 273.427 52.5484 273.421 54.1702Z" fill="#FFB9B9"/>
<path d="M281.718 129.57C281.718 129.57 251.439 131.999 250.328 128.486C249.218 124.973 253.418 115.46 253.418 115.46L252.05 102.179L252 101.671C252 101.671 255.794 87.303 255.655 86.1559C255.523 85.1229 261.761 73.0667 263.043 70.6015C263.195 70.3162 263.274 70.1601 263.274 70.1601L263.515 70.2862L263.621 70.3432L265.105 71.13L270.963 69.8688L278.024 66.5087L278.685 103.266L281.718 129.57Z" fill="#CBCDDA"/>
<path opacity="0.1" d="M265.98 70.6045C265.98 70.6045 263.908 70.094 263.099 71.9768C262.782 72.7861 262.406 73.5755 261.975 74.34L261.169 78.712L259.692 85.6184L258.602 116.172L259.094 121.598L261.8 117.226L262.292 88.6662V85.1139C262.451 82.0427 263.214 79.0221 264.546 76.1957L264.922 75.3939L267.275 72.6464L265.98 70.6045Z" fill="black"/>
<path d="M265.561 70.2202C265.561 70.2202 263.486 69.7097 262.68 71.5925C262.362 72.4021 261.986 73.1915 261.553 73.9557L260.747 78.3307L259.27 85.2371L258.183 115.791L258.675 121.22L261.381 116.832L261.873 88.291V84.7297C262.035 81.6588 262.798 78.6387 264.127 75.8114L264.507 75.0097L266.859 72.2651L265.561 70.2202Z" fill="#4C4C78"/>
<path opacity="0.1" d="M274.413 62.3348C274.413 62.3348 267.246 69.2413 264.715 70.061C264.715 70.061 265.98 75.2979 267.246 76.3188C267.246 76.3188 274.766 69.3494 276.098 68.7848L277.215 66.3015L274.413 62.3348Z" fill="black"/>
<path d="M274.413 61.9414C274.413 61.9414 267.246 68.8478 264.715 69.6676C264.715 69.6676 265.98 74.9044 267.246 75.9254C267.246 75.9254 274.766 68.9559 276.098 68.3914L277.215 65.9111L274.413 61.9414Z" fill="#CBCDDA"/>
<path opacity="0.1" d="M263.694 70.1602L263.621 70.3403L261.324 75.9345L257.217 86.4893C257.217 86.4893 257.181 86.5974 257.108 86.7896C256.428 88.7114 252.77 99.14 252.05 102.17L252 101.662C252 101.662 255.793 87.2941 255.654 86.147C255.522 85.114 261.761 73.0578 263.043 70.5926C263.247 70.4664 263.406 70.3583 263.515 70.2773L263.694 70.1602Z" fill="black"/>
<path d="M263.274 70.1571L260.902 75.9345L256.795 86.4893C256.795 86.4893 256.759 86.5974 256.686 86.7895C255.966 88.8374 251.858 100.527 251.528 102.665C251.155 105.013 245.99 117.706 245.99 117.706L243.04 139.684C240.396 137.819 244.15 119.865 244.15 119.865C244.15 119.865 248.366 93.2395 249.364 84.3813C250.362 75.5231 255.744 72.9347 255.744 72.9347C258.229 72.8206 260.469 71.8237 261.847 71.0579C262.345 70.7872 262.822 70.4862 263.274 70.1571V70.1571Z" fill="#4C4C78"/>
<path opacity="0.1" d="M293.028 211.555C292.397 215.834 291.554 227.77 291.554 227.77C288.604 231.791 282.068 229.62 282.068 229.62C282.068 229.62 281.367 228.419 280.313 223.873C279.259 219.327 278.628 203.313 278.628 203.313L276.167 189.86C273.92 184.686 273.427 178.558 273.427 178.558C272.436 176.194 270.054 160.679 270.054 160.679C270.054 160.679 271.045 174.597 270.407 181.942C269.77 189.287 273.636 199.169 273.636 199.169C273.636 199.169 275.816 208.429 274.69 211.303C273.563 214.177 277.501 226.05 277.501 226.05C277.171 229.5 265.983 228.095 265.983 228.095C265.983 228.095 260.72 215.258 259.798 207.532C259.245 202.876 258.341 198.261 257.092 193.719L256.18 182.99L254.561 176.648L252.631 168.285C250.45 162.156 249.786 151.908 249.786 151.908L248.098 141.852C246.994 136.879 248.428 131.042 249.38 127.988C249.793 126.664 250.123 125.856 250.123 125.856C251.091 126.48 256.636 127.213 259.504 127.808C261.073 128.136 262.687 128.254 264.295 128.156C271.546 127.633 278.719 126.437 285.702 124.589C286.175 124.459 286.426 124.384 286.426 124.384L286.575 125.534L286.925 128.273L287.55 133.135C287.55 133.135 289.446 159.058 288.323 162.562C287.199 166.066 289.096 177.876 289.096 177.876C288.042 180.678 291.343 192.064 291.343 192.064C291.343 192.064 293.662 207.276 293.028 211.555Z" fill="black"/>
<path d="M293.028 211.18C292.397 215.459 291.554 227.395 291.554 227.395C288.604 231.419 282.068 229.245 282.068 229.245C282.068 229.245 281.367 228.044 280.313 223.5C279.259 218.957 278.628 202.937 278.628 202.937L276.167 189.467C273.936 184.293 273.427 178.149 273.427 178.149C272.436 175.786 270.054 160.271 270.054 160.271C270.054 160.271 271.045 174.189 270.407 181.533C269.77 188.878 273.636 198.772 273.636 198.772C273.636 198.772 275.816 208.033 274.69 210.907C273.563 213.78 277.501 225.656 277.501 225.656C277.171 229.104 265.983 227.698 265.983 227.698C265.983 227.698 260.72 214.876 259.798 207.147C259.245 202.492 258.341 197.877 257.092 193.334L256.18 182.608L254.561 176.288L252.631 167.925C250.45 161.793 249.786 151.545 249.786 151.545L248.098 141.488C246.994 136.516 248.428 130.678 249.38 127.624C249.793 126.303 250.123 125.495 250.123 125.495C251.091 126.12 256.636 126.85 259.504 127.444C261.073 127.774 262.687 127.892 264.295 127.793C271.546 127.269 278.719 126.074 285.702 124.225L286.426 124.024L286.575 125.171L286.925 127.913L287.55 132.774C287.55 132.774 289.446 158.694 288.323 162.201C287.199 165.709 289.096 177.516 289.096 177.516C288.042 180.314 291.343 191.701 291.343 191.701C291.343 191.701 293.662 206.895 293.028 211.18Z" fill="#474463"/>
<path opacity="0.1" d="M273.421 54.1702C273.426 56.3278 272.806 58.4486 271.624 60.3199C269.509 60.6592 267.259 60.2839 265.676 59.0137C264.593 58.1459 263.892 56.9598 262.96 55.9539C262.357 55.3357 261.709 54.7548 261.021 54.2152C260.571 53.8083 260.055 53.4669 259.491 53.2033C259.207 53.073 258.894 53.0037 258.576 53.0005C258.258 52.9974 257.944 53.0606 257.657 53.1853C256.91 53.5636 256.666 54.4074 256.233 55.08C255.908 55.6575 255.35 56.0993 254.677 56.3142C254.34 56.4121 253.978 56.4092 253.643 56.306C253.308 56.2027 253.018 56.0046 252.817 55.7407C252.357 55.023 252.694 53.903 251.924 53.4645C251.721 53.3734 251.512 53.2952 251.297 53.2303C250.305 52.822 250.19 51.6118 250.104 50.6209C250.061 50.1345 249.945 49.5849 249.496 49.3237C249.046 49.0625 248.455 49.1946 247.92 49.2036C247.761 49.2093 247.603 49.1982 247.447 49.1706C248.709 46.5856 250.91 44.4729 253.681 43.1863C256.452 41.8998 259.625 41.5173 262.67 42.103C265.714 42.6887 268.445 44.207 270.404 46.4037C272.364 48.6004 273.434 51.3423 273.435 54.1702H273.421Z" fill="black"/>
<path d="M246.615 38.1234C246.093 38.4732 245.66 38.9207 245.345 39.4356C245.03 39.9505 244.84 40.5209 244.788 41.1082C244.763 41.3044 244.779 41.5032 244.837 41.6937C244.929 41.8959 245.04 42.0907 245.168 42.2763C245.861 43.5284 244.801 45.0118 244.936 46.4081C245.028 47.0677 245.38 47.6747 245.927 48.1164C246.474 48.5582 247.178 48.8047 247.91 48.8103C248.445 48.8103 249.033 48.6662 249.486 48.9304C249.939 49.1947 250.051 49.7412 250.094 50.2276C250.18 51.2186 250.289 52.4287 251.284 52.8371C251.498 52.9034 251.708 52.9817 251.911 53.0713C252.685 53.5097 252.348 54.6327 252.807 55.3474C253.009 55.6113 253.298 55.8095 253.633 55.9127C253.968 56.016 254.33 56.0188 254.667 55.9209C255.339 55.7069 255.895 55.2661 256.22 54.6898C256.646 54.0142 256.901 53.1884 257.647 52.795C257.934 52.6692 258.248 52.6051 258.566 52.6077C258.884 52.6103 259.197 52.6796 259.481 52.81C260.046 53.0748 260.562 53.4171 261.011 53.825C261.7 54.3638 262.348 54.9447 262.951 55.5636C263.882 56.5665 264.583 57.7526 265.667 58.6204C267.709 60.251 270.834 60.4221 273.352 59.4822C273.716 59.3721 274.044 59.1824 274.307 58.9297C274.537 58.6392 274.686 58.3022 274.74 57.9478C274.996 56.8174 275.069 55.6592 274.958 54.5096C274.869 53.6088 274.667 52.7079 274.737 51.8071C274.806 50.8402 275.186 49.9063 275.239 48.9394C275.331 47.2279 274.396 45.6034 273.256 44.2491C272.569 43.4413 271.796 42.6937 271.201 41.8288C270.682 41.0782 270.306 40.2524 269.751 39.5257C268.449 37.8291 266.255 36.8232 264.015 36.4719C261.774 36.1205 259.471 36.3367 257.228 36.6761C255.272 36.9763 253.302 37.4027 251.32 37.5078C249.585 37.6189 248.188 37.0874 246.615 38.1234Z" fill="#472727"/>
<path opacity="0.1" d="M263.275 70.1571L260.903 75.9345L256.796 86.4893C256.796 86.4893 256.759 86.5974 256.687 86.7895V86.8045L261.854 71.0519C262.349 70.7829 262.824 70.4839 263.275 70.1571V70.1571Z" fill="black"/>
<path d="M288.921 136.275C288.921 136.275 289.166 143.266 287.094 145.023L281.579 135.573L286.205 133.528L288.921 136.275Z" fill="#FFB9B9"/>
<path opacity="0.1" d="M301.795 138.828C299.264 141.509 288.248 141.99 288.248 141.99L277.344 126.375C277.344 126.375 274.763 124.748 269.916 117.418C265.069 110.088 265.227 104.443 265.498 100.227C265.769 96.011 268.802 83.8948 268.802 83.8948C269.275 81.1683 276.072 64.0764 276.072 64.0764C276.785 65.3706 278.114 66.4516 279.667 67.3434C283.863 69.7457 289.721 70.7306 289.721 70.7306C299.158 71.9767 297.417 80.835 297.417 80.835C297.417 80.835 297.522 115.268 296.941 119.388C296.359 123.508 301.795 138.828 301.795 138.828Z" fill="black"/>
<path d="M289.064 137.615L288.746 140.17L284.917 138.894L282.108 135.029L284.216 133.528L289.064 137.615Z" fill="#CBCDDA"/>
<path opacity="0.1" d="M288.928 127.718L286.925 127.904L267.619 129.657C264.519 129.94 261.389 129.801 258.334 129.243L249.38 127.615C249.793 126.294 250.123 125.486 250.123 125.486C251.091 126.111 256.636 126.841 259.504 127.435C261.073 127.766 262.688 127.883 264.295 127.784C271.546 127.26 278.719 126.065 285.703 124.216L286.575 125.162L288.928 127.718Z" fill="black"/>
<g opacity="0.1">
<path opacity="0.1" d="M250.325 125.583C250.261 125.554 250.199 125.522 250.14 125.486C250.14 125.486 250.14 125.504 250.12 125.531L250.325 125.583Z" fill="black"/>
<path opacity="0.1" d="M291.359 191.698C291.359 191.698 288.055 180.311 289.113 177.513C289.113 177.513 287.216 165.712 288.343 162.199C289.469 158.685 287.566 132.771 287.566 132.771L286.942 127.91L286.591 125.168L286.446 124.021L285.719 124.222L285.27 124.342L285.326 124.787L285.676 127.525L286.301 132.387C286.301 132.387 288.197 158.31 287.077 161.814C285.957 165.318 287.847 177.128 287.847 177.128C286.793 179.93 290.094 191.314 290.094 191.314C290.094 191.314 292.407 206.514 291.782 210.79C291.158 215.066 290.305 227.005 290.305 227.005C288.151 229.944 284.084 229.578 282.045 229.167L282.081 229.239C282.081 229.239 288.617 231.413 291.568 227.389C291.568 227.389 292.41 215.447 293.045 211.174C293.679 206.901 291.359 191.698 291.359 191.698Z" fill="black"/>
<path opacity="0.1" d="M274.71 210.919C275.834 208.045 273.656 198.784 273.656 198.784C273.656 198.784 269.794 188.875 270.425 181.545C270.689 178.486 270.673 174.288 270.56 170.435C269.665 165.466 268.806 159.925 268.806 159.925C268.806 159.925 269.797 173.843 269.163 181.185C268.528 188.527 272.391 198.427 272.391 198.427C272.391 198.427 274.571 207.685 273.445 210.558C272.318 213.432 276.25 225.293 276.25 225.293C275.969 228.056 268.749 227.695 265.885 227.455L265.994 227.719C265.994 227.719 277.165 229.125 277.515 225.677C277.522 225.668 273.587 213.792 274.71 210.919Z" fill="black"/>
</g>
<path d="M302.214 138.828C299.686 141.509 288.667 141.99 288.667 141.99L277.763 126.375C277.763 126.375 275.183 124.748 270.332 117.418C265.481 110.088 265.647 104.443 265.914 100.227C266.182 96.011 269.218 83.8948 269.218 83.8948C269.691 81.1683 276.488 64.0764 276.488 64.0764C277.198 65.3706 278.526 66.4516 280.083 67.3434C284.279 69.7457 290.137 70.7306 290.137 70.7306C299.571 71.9767 297.829 80.835 297.829 80.835C297.829 80.835 297.935 115.268 297.354 119.388C296.772 123.508 302.214 138.828 302.214 138.828Z" fill="#4C4C78"/>
<path opacity="0.1" d="M278.506 72.5504L276.134 73.3521L277.713 74.3581L265.917 100.218C266.191 96.0141 269.221 83.8859 269.221 83.8859C269.694 81.1594 276.49 64.0675 276.49 64.0675C277.201 65.3617 278.529 66.4427 280.085 67.3345L278.506 72.5504Z" fill="black"/>
<path opacity="0.1" d="M281.352 118.619L293.418 115.793L295.001 120.247L282.67 122.979L281.352 118.619Z" fill="black"/>
<path opacity="0.1" d="M288.254 74.3701C288.254 74.3701 282.772 79.0574 284.84 89.5041C286.909 99.9508 290.216 111.292 290.216 111.292L281.295 133.753C281.295 133.753 287.513 139.645 290.57 140.359L299.475 122.4C299.475 122.4 303.638 116.175 302.531 106.407C301.424 96.6387 297.419 80.8321 297.419 80.8321C297.419 80.8321 297.423 71.2111 288.254 74.3701Z" fill="black"/>
<path d="M288.674 74.3701C288.674 74.3701 283.189 79.0574 285.251 89.5041C287.313 99.9508 290.623 111.292 290.623 111.292L281.702 133.753C281.702 133.753 287.921 139.645 290.977 140.359L299.898 122.4C299.898 122.4 304.062 116.175 302.955 106.407C301.848 96.6387 297.843 80.8321 297.843 80.8321C297.843 80.8321 297.843 71.2111 288.674 74.3701Z" fill="#4C4C78"/>
<path opacity="0.1" d="M281.999 134.231C281.999 134.231 288.954 142.981 288.429 145.311C287.904 147.641 285.865 146.395 285.865 146.395L283.126 142.981L280.664 136.594C280.664 136.594 280.905 133.837 281.999 134.231Z" fill="black"/>
<path opacity="0.1" d="M281.156 134.231C281.156 134.231 288.095 142.981 287.586 145.311C287.077 147.641 285.022 146.395 285.022 146.395L282.28 142.981L279.821 136.594C279.821 136.594 280.062 133.837 281.156 134.231Z" fill="black"/>
<path d="M281.579 134.231C281.579 134.231 288.518 142.981 288.006 145.311C287.494 147.641 285.442 146.395 285.442 146.395L282.702 142.981L280.244 136.594C280.244 136.594 280.482 133.837 281.579 134.231Z" fill="#474463"/>
</g>
<defs>
<linearGradient id="paint0_linear" x1="254.069" y1="241.943" x2="254.069" y2="35.3908" gradientUnits="userSpaceOnUse">
<stop stop-color="#808080" stop-opacity="0.25"/>
<stop offset="0.54" stop-color="#808080" stop-opacity="0.12"/>
<stop offset="1" stop-color="#808080" stop-opacity="0.1"/>
</linearGradient>
<clipPath id="clip0">
<rect width="345" height="250" fill="white"/>
</clipPath>
</defs>
</svg>
