<svg width="400" height="310" viewBox="0 0 400 310" fill="none" xmlns="http://www.w3.org/2000/svg">
<g clip-path="url(#clip0)">
<path opacity="0.1" d="M86.745 0.233114C73.8823 -0.240539 60.4461 -0.573575 48.8157 4.94004C37.1853 10.4537 28.1933 23.8122 32.0935 36.0938C33.3665 40.0977 35.8458 43.5872 37.9365 47.2321C48.3902 65.4603 48.8749 89.0208 39.1835 107.667C31.7235 122.021 19.0792 132.945 9.97616 146.318C0.873141 159.691 -4.30004 178.227 4.65496 191.7C10.7865 200.925 22.1653 205.414 33.1889 206.502C44.2124 207.59 55.2988 205.876 66.3705 205.436C87.915 204.608 109.368 208.665 129.122 217.303C156.316 229.226 179.744 249.623 208.378 257.493C211.815 258.437 215.408 259.199 218.924 258.559C225.159 257.423 229.692 252.268 234.573 248.198C250.155 235.295 271.729 232.886 291.955 232.286C312.182 231.687 333.248 232.149 351.532 223.464C367.495 215.882 379.785 201.776 387.426 185.842C395.067 169.908 398.387 152.202 399.637 134.569C400.377 124.075 400.351 113.24 396.595 103.415C392.373 92.3697 383.811 83.5738 374.83 75.8844C365.445 67.8471 355.217 60.5647 343.631 56.2278C329.792 51.0472 314.768 50.3071 300.033 49.0786C269.817 46.555 239.837 41.7405 210.35 34.6766C182.364 27.9862 151.635 20.6779 126.147 7.04928C113.355 0.207212 101.165 0.751172 86.745 0.233114Z" fill="#6C63FF"/>
<g opacity="0.1">
<path opacity="0.1" d="M264.165 233.004C264.165 233.004 265.475 214.646 275.807 204.637C280.168 200.466 283.059 194.993 284.044 189.039C284.488 186.209 284.674 183.344 284.599 180.48" fill="#6C63FF"/>
<path opacity="0.1" d="M291.071 174.134C290.312 176.162 284.447 180.669 284.447 180.669C284.447 180.669 282.967 173.42 283.733 171.392C284.096 170.419 284.832 169.63 285.777 169.199C286.722 168.768 287.8 168.73 288.773 169.094C289.746 169.458 290.535 170.193 290.965 171.138C291.396 172.083 291.434 173.161 291.071 174.134Z" fill="#6C63FF"/>
<path opacity="0.1" d="M292.943 187.63C291.204 188.917 283.833 189.513 283.833 189.513C283.833 189.513 286.534 182.627 288.274 181.335C289.109 180.749 290.141 180.512 291.149 180.675C292.157 180.838 293.061 181.388 293.67 182.208C294.278 183.028 294.543 184.052 294.407 185.064C294.272 186.076 293.746 186.995 292.943 187.626V187.63Z" fill="#6C63FF"/>
<path opacity="0.1" d="M285.509 206.713C283.355 206.949 276.69 203.752 276.69 203.752C276.69 203.752 282.5 199.171 284.65 198.942C285.649 198.887 286.632 199.217 287.396 199.864C288.159 200.511 288.646 201.426 288.756 202.421C288.866 203.416 288.591 204.415 287.987 205.213C287.383 206.011 286.496 206.548 285.509 206.713Z" fill="#6C63FF"/>
<path opacity="0.1" d="M276.631 219.886C274.552 220.482 267.439 218.447 267.439 218.447C267.439 218.447 272.391 212.951 274.47 212.356C274.97 212.197 275.496 212.14 276.018 212.188C276.539 212.236 277.046 212.388 277.508 212.635C277.97 212.883 278.378 213.22 278.707 213.628C279.036 214.036 279.28 214.505 279.425 215.009C279.569 215.513 279.611 216.04 279.548 216.561C279.486 217.081 279.319 217.583 279.059 218.038C278.798 218.492 278.449 218.89 278.032 219.208C277.615 219.525 277.139 219.756 276.631 219.886Z" fill="#6C63FF"/>
<path opacity="0.1" d="M275.98 187.026C276.906 188.98 283.13 192.973 283.13 192.973C283.13 192.973 283.988 185.628 283.059 183.67C282.596 182.762 281.797 182.069 280.832 181.741C279.866 181.412 278.811 181.472 277.889 181.909C276.968 182.346 276.253 183.125 275.897 184.08C275.54 185.036 275.57 186.093 275.98 187.026Z" fill="#6C63FF"/>
<path opacity="0.1" d="M265.793 202.564C267.273 204.152 274.397 206.102 274.397 206.102C274.397 206.102 273.016 198.834 271.547 197.243C270.841 196.484 269.862 196.036 268.826 195.998C267.789 195.959 266.78 196.333 266.019 197.037C265.258 197.741 264.806 198.718 264.764 199.754C264.722 200.79 265.092 201.801 265.793 202.564Z" fill="#6C63FF"/>
<path opacity="0.1" d="M257.967 219.024C259.144 220.837 265.849 223.964 265.849 223.964C265.849 223.964 265.716 216.563 264.535 214.754C263.955 213.914 263.071 213.334 262.07 213.137C261.069 212.939 260.031 213.14 259.175 213.696C258.32 214.252 257.715 215.12 257.49 216.115C257.264 217.11 257.435 218.153 257.967 219.024Z" fill="#6C63FF"/>
<path opacity="0.1" d="M291.071 174.134C290.312 176.162 284.447 180.669 284.447 180.669C284.447 180.669 282.967 173.42 283.733 171.392C284.096 170.419 284.832 169.63 285.777 169.199C286.722 168.768 287.8 168.73 288.773 169.094C289.746 169.458 290.535 170.193 290.965 171.138C291.396 172.083 291.434 173.161 291.071 174.134Z" fill="#6C63FF"/>
<path opacity="0.1" d="M292.943 187.63C291.204 188.917 283.833 189.513 283.833 189.513C283.833 189.513 286.534 182.627 288.274 181.335C289.109 180.749 290.141 180.512 291.149 180.675C292.157 180.838 293.061 181.388 293.67 182.208C294.278 183.028 294.543 184.052 294.407 185.064C294.272 186.076 293.746 186.995 292.943 187.626V187.63Z" fill="#6C63FF"/>
<path opacity="0.1" d="M285.509 206.713C283.355 206.949 276.69 203.752 276.69 203.752C276.69 203.752 282.5 199.171 284.65 198.942C285.649 198.887 286.632 199.217 287.396 199.864C288.159 200.511 288.646 201.426 288.756 202.421C288.866 203.416 288.591 204.415 287.987 205.213C287.383 206.011 286.496 206.548 285.509 206.713Z" fill="#6C63FF"/>
<path opacity="0.1" d="M276.631 219.886C274.552 220.482 267.439 218.447 267.439 218.447C267.439 218.447 272.391 212.951 274.47 212.356C274.97 212.197 275.496 212.14 276.018 212.188C276.539 212.236 277.046 212.388 277.508 212.635C277.97 212.883 278.378 213.22 278.707 213.628C279.036 214.036 279.28 214.505 279.425 215.009C279.569 215.513 279.611 216.04 279.548 216.561C279.486 217.081 279.319 217.583 279.059 218.038C278.798 218.492 278.449 218.89 278.032 219.208C277.615 219.525 277.139 219.756 276.631 219.886Z" fill="#6C63FF"/>
<path opacity="0.1" d="M275.98 187.026C276.906 188.98 283.13 192.973 283.13 192.973C283.13 192.973 283.988 185.628 283.059 183.67C282.596 182.762 281.797 182.069 280.832 181.741C279.866 181.412 278.811 181.472 277.889 181.909C276.968 182.346 276.253 183.125 275.897 184.08C275.54 185.036 275.57 186.093 275.98 187.026Z" fill="#6C63FF"/>
<path opacity="0.1" d="M265.793 202.564C267.273 204.152 274.397 206.102 274.397 206.102C274.397 206.102 273.016 198.834 271.547 197.243C270.841 196.484 269.862 196.036 268.826 195.998C267.789 195.959 266.78 196.333 266.019 197.037C265.258 197.741 264.806 198.718 264.764 199.754C264.722 200.79 265.092 201.801 265.793 202.564Z" fill="#6C63FF"/>
<path opacity="0.1" d="M257.967 219.024C259.144 220.837 265.849 223.964 265.849 223.964C265.849 223.964 265.716 216.563 264.535 214.754C263.955 213.914 263.071 213.334 262.07 213.137C261.069 212.939 260.031 213.14 259.175 213.696C258.32 214.252 257.715 215.12 257.49 216.115C257.264 217.11 257.435 218.153 257.967 219.024Z" fill="#6C63FF"/>
</g>
<g opacity="0.1">
<path opacity="0.1" d="M267.792 163.518C267.792 163.518 269.102 145.16 279.433 135.15C283.794 130.979 286.684 125.506 287.671 119.553C288.119 116.723 288.305 113.858 288.226 110.994" fill="#6C63FF"/>
<path opacity="0.1" d="M294.697 104.648C293.957 106.672 288.077 111.179 288.077 111.179C288.077 111.179 286.597 103.93 287.359 101.906C287.722 100.933 288.458 100.144 289.403 99.7129C290.348 99.282 291.426 99.2441 292.399 99.6077C293.372 99.9714 294.161 100.707 294.592 101.652C295.022 102.597 295.06 103.675 294.697 104.648Z" fill="#6C63FF"/>
<path opacity="0.1" d="M296.581 118.139C294.846 119.431 287.471 120.023 287.471 120.023C287.471 120.023 290.172 113.14 291.911 111.849C292.323 111.525 292.795 111.288 293.3 111.15C293.806 111.012 294.333 110.977 294.852 111.047C295.371 111.117 295.871 111.289 296.322 111.555C296.773 111.821 297.166 112.175 297.478 112.595C297.79 113.015 298.014 113.494 298.138 114.003C298.262 114.511 298.283 115.04 298.2 115.557C298.116 116.073 297.93 116.568 297.652 117.012C297.374 117.455 297.01 117.839 296.581 118.139Z" fill="#6C63FF"/>
<path opacity="0.1" d="M289.136 137.226C286.986 137.463 280.321 134.266 280.321 134.266C280.321 134.266 286.131 129.688 288.281 129.455C288.797 129.389 289.322 129.426 289.824 129.565C290.326 129.703 290.795 129.941 291.204 130.263C291.613 130.585 291.954 130.985 292.207 131.441C292.46 131.896 292.619 132.397 292.676 132.915C292.733 133.432 292.686 133.956 292.538 134.455C292.39 134.955 292.144 135.419 291.814 135.822C291.485 136.226 291.078 136.559 290.618 136.803C290.158 137.047 289.654 137.197 289.136 137.245V137.226Z" fill="#6C63FF"/>
<path opacity="0.1" d="M280.258 150.4C278.179 150.995 271.066 148.96 271.066 148.96C271.066 148.96 276.021 143.465 278.097 142.866C279.092 142.595 280.153 142.726 281.051 143.232C281.949 143.738 282.611 144.577 282.895 145.568C283.179 146.558 283.061 147.621 282.566 148.526C282.072 149.43 281.242 150.103 280.255 150.4H280.258Z" fill="#6C63FF"/>
<path opacity="0.1" d="M279.607 117.536C280.532 119.494 286.76 123.487 286.76 123.487C286.76 123.487 287.615 116.138 286.69 114.184C286.476 113.709 286.17 113.281 285.789 112.925C285.408 112.57 284.96 112.294 284.471 112.114C283.982 111.934 283.462 111.853 282.941 111.876C282.421 111.9 281.91 112.026 281.439 112.249C280.968 112.472 280.547 112.787 280.199 113.175C279.851 113.562 279.584 114.016 279.413 114.508C279.243 115 279.172 115.522 279.205 116.042C279.239 116.562 279.375 117.07 279.607 117.536Z" fill="#6C63FF"/>
<path opacity="0.1" d="M269.42 133.074C270.9 134.665 278.027 136.612 278.027 136.612C278.027 136.612 276.643 129.344 275.174 127.757C274.462 127.024 273.491 126.599 272.469 126.572C271.448 126.545 270.456 126.917 269.705 127.611C268.955 128.305 268.505 129.264 268.452 130.285C268.398 131.305 268.746 132.306 269.42 133.074Z" fill="#6C63FF"/>
<path opacity="0.1" d="M261.593 149.537C262.774 151.351 269.475 154.477 269.475 154.477C269.475 154.477 269.342 147.077 268.162 145.267C267.889 144.82 267.529 144.432 267.103 144.127C266.678 143.821 266.195 143.604 265.684 143.488C265.173 143.372 264.644 143.36 264.128 143.452C263.613 143.544 263.12 143.738 262.681 144.024C262.242 144.31 261.864 144.68 261.571 145.114C261.277 145.548 261.074 146.037 260.973 146.551C260.871 147.065 260.874 147.594 260.98 148.107C261.087 148.62 261.296 149.106 261.593 149.537Z" fill="#6C63FF"/>
<path opacity="0.1" d="M294.697 104.648C293.957 106.672 288.077 111.179 288.077 111.179C288.077 111.179 286.597 103.93 287.359 101.906C287.722 100.933 288.458 100.144 289.403 99.7129C290.348 99.282 291.426 99.2441 292.399 99.6077C293.372 99.9714 294.161 100.707 294.592 101.652C295.022 102.597 295.06 103.675 294.697 104.648Z" fill="#6C63FF"/>
<path opacity="0.1" d="M296.581 118.139C294.846 119.431 287.471 120.023 287.471 120.023C287.471 120.023 290.172 113.14 291.911 111.849C292.323 111.525 292.795 111.288 293.3 111.15C293.806 111.012 294.333 110.977 294.852 111.047C295.371 111.117 295.871 111.289 296.322 111.555C296.773 111.821 297.166 112.175 297.478 112.595C297.79 113.015 298.014 113.494 298.138 114.003C298.262 114.511 298.283 115.04 298.2 115.557C298.116 116.073 297.93 116.568 297.652 117.012C297.374 117.455 297.01 117.839 296.581 118.139Z" fill="#6C63FF"/>
<path opacity="0.1" d="M289.136 137.226C286.986 137.463 280.321 134.266 280.321 134.266C280.321 134.266 286.131 129.688 288.281 129.455C288.797 129.389 289.322 129.426 289.824 129.565C290.326 129.703 290.795 129.941 291.204 130.263C291.613 130.585 291.954 130.985 292.207 131.441C292.46 131.896 292.619 132.397 292.676 132.915C292.733 133.432 292.686 133.956 292.538 134.455C292.39 134.955 292.144 135.419 291.814 135.822C291.485 136.226 291.078 136.559 290.618 136.803C290.158 137.047 289.654 137.197 289.136 137.245V137.226Z" fill="#6C63FF"/>
<path opacity="0.1" d="M280.258 150.4C278.179 150.995 271.066 148.96 271.066 148.96C271.066 148.96 276.021 143.465 278.097 142.866C279.092 142.595 280.153 142.726 281.051 143.232C281.949 143.738 282.611 144.577 282.895 145.568C283.179 146.558 283.061 147.621 282.566 148.526C282.072 149.43 281.242 150.103 280.255 150.4H280.258Z" fill="#6C63FF"/>
<path opacity="0.1" d="M279.607 117.536C280.532 119.494 286.76 123.487 286.76 123.487C286.76 123.487 287.615 116.138 286.69 114.184C286.476 113.709 286.17 113.281 285.789 112.925C285.408 112.57 284.96 112.294 284.471 112.114C283.982 111.934 283.462 111.853 282.941 111.876C282.421 111.9 281.91 112.026 281.439 112.249C280.968 112.472 280.547 112.787 280.199 113.175C279.851 113.562 279.584 114.016 279.413 114.508C279.243 115 279.172 115.522 279.205 116.042C279.239 116.562 279.375 117.07 279.607 117.536Z" fill="#6C63FF"/>
<path opacity="0.1" d="M269.42 133.074C270.9 134.665 278.027 136.612 278.027 136.612C278.027 136.612 276.643 129.344 275.174 127.757C274.462 127.024 273.491 126.599 272.469 126.572C271.448 126.545 270.456 126.917 269.705 127.611C268.955 128.305 268.505 129.264 268.452 130.285C268.398 131.305 268.746 132.306 269.42 133.074Z" fill="#6C63FF"/>
<path opacity="0.1" d="M261.593 149.537C262.774 151.351 269.475 154.477 269.475 154.477C269.475 154.477 269.342 147.077 268.162 145.267C267.889 144.82 267.529 144.432 267.103 144.127C266.678 143.821 266.195 143.604 265.684 143.488C265.173 143.372 264.644 143.36 264.128 143.452C263.613 143.544 263.12 143.738 262.681 144.024C262.242 144.31 261.864 144.68 261.571 145.114C261.277 145.548 261.074 146.037 260.973 146.551C260.871 147.065 260.874 147.594 260.98 148.107C261.087 148.62 261.296 149.106 261.593 149.537Z" fill="#6C63FF"/>
</g>
<g opacity="0.1">
<path opacity="0.1" d="M71.4888 187.57C71.4888 187.57 55.6843 178.149 51.3807 164.428C49.6181 158.657 46.0287 153.614 41.1528 150.059C38.8245 148.387 36.3471 146.933 33.752 145.715" fill="#6C63FF"/>
<path opacity="0.1" d="M30.9952 137.071C32.4754 138.658 33.8556 145.926 33.8556 145.926C33.8556 145.926 26.7175 143.983 25.2485 142.396C24.5756 141.628 24.2288 140.629 24.2816 139.609C24.3345 138.59 24.783 137.632 25.5317 136.938C26.2803 136.244 27.2701 135.87 28.2904 135.895C29.3108 135.92 30.2812 136.341 30.9952 137.071Z" fill="#6C63FF"/>
<path opacity="0.1" d="M43.8906 141.485C44.2607 143.617 41.478 150.47 41.478 150.47C41.478 150.47 36.5416 144.96 36.1716 142.829C36.0692 142.316 36.0704 141.788 36.1752 141.276C36.28 140.764 36.4862 140.278 36.7817 139.846C37.0772 139.415 37.456 139.047 37.8958 138.765C38.3356 138.482 38.8276 138.29 39.3426 138.201C39.8577 138.111 40.3854 138.125 40.8949 138.243C41.4043 138.36 41.8851 138.578 42.3089 138.884C42.7327 139.191 43.091 139.578 43.3626 140.025C43.6343 140.472 43.8138 140.968 43.8906 141.485Z" fill="#6C63FF"/>
<path opacity="0.1" d="M57.598 156.687C56.8579 158.714 50.9779 163.225 50.9779 163.225C50.9779 163.225 49.4978 155.976 50.2564 153.952C50.4254 153.456 50.6921 152.999 51.0407 152.608C51.3894 152.217 51.8129 151.9 52.2862 151.675C52.7596 151.451 53.2731 151.324 53.7965 151.301C54.3199 151.278 54.8425 151.361 55.3335 151.544C55.8244 151.727 56.2737 152.006 56.6548 152.366C57.0359 152.725 57.341 153.157 57.5521 153.637C57.7632 154.116 57.8761 154.633 57.8839 155.157C57.8918 155.681 57.7946 156.201 57.598 156.687Z" fill="#6C63FF"/>
<path opacity="0.1" d="M65.372 170.537C64.9723 172.665 59.9546 178.119 59.9546 178.119C59.9546 178.119 57.2718 171.226 57.6751 169.102C57.7706 168.596 57.9647 168.115 58.2463 167.684C58.5279 167.254 58.8916 166.883 59.3164 166.593C59.7413 166.303 60.2191 166.1 60.7226 165.995C61.226 165.89 61.7453 165.885 62.2507 165.98C62.7561 166.076 63.2377 166.27 63.6681 166.551C64.0984 166.833 64.4691 167.197 64.759 167.622C65.0488 168.046 65.2521 168.524 65.3573 169.028C65.4625 169.531 65.4675 170.05 65.372 170.556V170.537Z" fill="#6C63FF"/>
<path opacity="0.1" d="M35.7277 156.346C37.8887 156.398 44.2572 152.646 44.2572 152.646C44.2572 152.646 38.0775 148.575 35.9127 148.524C34.8868 148.519 33.9001 148.918 33.1647 149.633C32.4293 150.349 32.0038 151.324 31.9796 152.35C31.9554 153.375 32.3344 154.37 33.0352 155.119C33.736 155.868 34.7027 156.313 35.7277 156.357V156.346Z" fill="#6C63FF"/>
<path opacity="0.1" d="M45.0271 172.432C47.1068 171.832 52.0579 166.334 52.0579 166.334C52.0579 166.334 44.9457 164.302 42.8661 164.902C41.8895 165.207 41.0712 165.883 40.5862 166.784C40.1012 167.685 39.988 168.74 40.2707 169.724C40.5534 170.708 41.2097 171.541 42.0992 172.047C42.9887 172.554 44.0409 172.692 45.0308 172.432H45.0271Z" fill="#6C63FF"/>
<path opacity="0.1" d="M56.2104 186.823C58.364 186.586 64.17 182.012 64.17 182.012C64.17 182.012 57.5092 178.808 55.3519 179.052C54.8204 179.081 54.3004 179.218 53.8237 179.455C53.347 179.692 52.9237 180.024 52.5795 180.43C52.2354 180.836 51.9777 181.308 51.8222 181.817C51.6666 182.326 51.6166 182.862 51.675 183.391C51.7335 183.92 51.8992 184.432 52.1621 184.895C52.425 185.358 52.7796 185.762 53.204 186.083C53.6285 186.404 54.1141 186.636 54.631 186.763C55.1479 186.89 55.6853 186.91 56.2104 186.823Z" fill="#6C63FF"/>
<path opacity="0.1" d="M30.9952 137.071C32.4754 138.658 33.8556 145.926 33.8556 145.926C33.8556 145.926 26.7175 143.983 25.2485 142.396C24.5756 141.628 24.2288 140.629 24.2816 139.609C24.3345 138.59 24.783 137.632 25.5317 136.938C26.2803 136.244 27.2701 135.87 28.2904 135.895C29.3108 135.92 30.2812 136.341 30.9952 137.071Z" fill="#6C63FF"/>
<path opacity="0.1" d="M43.8906 141.485C44.2607 143.617 41.478 150.47 41.478 150.47C41.478 150.47 36.5416 144.96 36.1716 142.829C36.0692 142.316 36.0704 141.788 36.1752 141.276C36.28 140.764 36.4862 140.278 36.7817 139.846C37.0772 139.415 37.456 139.047 37.8958 138.765C38.3356 138.482 38.8276 138.29 39.3426 138.201C39.8577 138.111 40.3854 138.125 40.8949 138.243C41.4043 138.36 41.8851 138.578 42.3089 138.884C42.7327 139.191 43.091 139.578 43.3626 140.025C43.6343 140.472 43.8138 140.968 43.8906 141.485Z" fill="#6C63FF"/>
<path opacity="0.1" d="M57.598 156.687C56.8579 158.714 50.9779 163.225 50.9779 163.225C50.9779 163.225 49.4978 155.976 50.2564 153.952C50.4254 153.456 50.6921 152.999 51.0407 152.608C51.3894 152.217 51.8129 151.9 52.2862 151.675C52.7596 151.451 53.2731 151.324 53.7965 151.301C54.3199 151.278 54.8425 151.361 55.3335 151.544C55.8244 151.727 56.2737 152.006 56.6548 152.366C57.0359 152.725 57.341 153.157 57.5521 153.637C57.7632 154.116 57.8761 154.633 57.8839 155.157C57.8918 155.681 57.7946 156.201 57.598 156.687Z" fill="#6C63FF"/>
<path opacity="0.1" d="M65.372 170.537C64.9723 172.665 59.9546 178.119 59.9546 178.119C59.9546 178.119 57.2718 171.226 57.6751 169.102C57.7706 168.596 57.9647 168.115 58.2463 167.684C58.5279 167.254 58.8916 166.883 59.3164 166.593C59.7413 166.303 60.2191 166.1 60.7226 165.995C61.226 165.89 61.7453 165.885 62.2507 165.98C62.7561 166.076 63.2377 166.27 63.6681 166.551C64.0984 166.833 64.4691 167.197 64.759 167.622C65.0488 168.046 65.2521 168.524 65.3573 169.028C65.4625 169.531 65.4675 170.05 65.372 170.556V170.537Z" fill="#6C63FF"/>
<path opacity="0.1" d="M35.7277 156.346C37.8887 156.398 44.2572 152.646 44.2572 152.646C44.2572 152.646 38.0775 148.575 35.9127 148.524C34.8868 148.519 33.9001 148.918 33.1647 149.633C32.4293 150.349 32.0038 151.324 31.9796 152.35C31.9554 153.375 32.3344 154.37 33.0352 155.119C33.736 155.868 34.7027 156.313 35.7277 156.357V156.346Z" fill="#6C63FF"/>
<path opacity="0.1" d="M45.0271 172.432C47.1068 171.832 52.0579 166.334 52.0579 166.334C52.0579 166.334 44.9457 164.302 42.8661 164.902C41.8895 165.207 41.0712 165.883 40.5862 166.784C40.1012 167.685 39.988 168.74 40.2707 169.724C40.5534 170.708 41.2097 171.541 42.0992 172.047C42.9887 172.554 44.0409 172.692 45.0308 172.432H45.0271Z" fill="#6C63FF"/>
<path opacity="0.1" d="M56.2104 186.823C58.364 186.586 64.17 182.012 64.17 182.012C64.17 182.012 57.5092 178.808 55.3519 179.052C54.8204 179.081 54.3004 179.218 53.8237 179.455C53.347 179.692 52.9237 180.024 52.5795 180.43C52.2354 180.836 51.9777 181.308 51.8222 181.817C51.6666 182.326 51.6166 182.862 51.675 183.391C51.7335 183.92 51.8992 184.432 52.1621 184.895C52.425 185.358 52.7796 185.762 53.204 186.083C53.6285 186.404 54.1141 186.636 54.631 186.763C55.1479 186.89 55.6853 186.91 56.2104 186.823Z" fill="#6C63FF"/>
</g>
<path opacity="0.1" d="M265.22 298.383C275.844 303.005 288.806 300.192 300.862 300.518C302.509 300.562 304.259 300.699 305.58 301.499C306.901 302.298 307.556 303.589 308.463 304.699C311.841 308.822 318.765 310.146 324.815 309.447C330.865 308.748 336.412 306.431 342.122 304.67C351.991 301.621 363.27 300.229 373.005 303.56C373.897 303.863 374.856 304.215 375.796 304.093C377.931 303.822 378.567 301.61 380.058 300.348C382.752 298.065 388.606 298.686 389.791 295.678C390.482 293.916 388.888 292.111 387.148 290.908C380.488 286.305 370.978 285.546 362.271 286.257C353.563 286.967 345.004 288.925 336.253 288.932C325.348 288.932 314.813 285.927 304.015 284.695C296.536 283.844 288.373 283.955 281.361 286.46C273.76 289.169 272.088 295.271 265.22 298.383Z" fill="#6C63FF"/>
<path opacity="0.1" d="M64.1689 284.207C82.301 289.428 104.429 286.249 125.004 286.619C127.82 286.671 130.802 286.823 133.063 287.729C135.324 288.636 136.434 290.098 137.985 291.348C143.75 296.007 155.565 297.506 165.89 296.714C176.214 295.922 185.687 293.306 195.434 291.315C212.278 287.87 231.535 286.301 248.15 290.057C249.674 290.401 251.28 290.797 252.916 290.66C256.557 290.353 257.641 287.855 260.191 286.427C264.791 283.837 274.778 284.551 276.798 281.154C277.983 279.163 275.259 277.12 272.291 275.762C260.938 270.563 244.694 269.705 229.829 270.508C214.965 271.311 200.355 273.52 185.424 273.531C166.811 273.531 148.827 270.138 130.395 268.743C117.629 267.781 103.697 267.899 91.7259 270.741C78.7486 273.808 75.8882 280.702 64.1689 284.207Z" fill="#6C63FF"/>
<path opacity="0.1" d="M15.6338 297.003C20.8144 300.118 27.1051 298.224 32.9739 298.442C33.7769 298.472 34.628 298.564 35.2719 299.101C35.9158 299.637 36.234 300.514 36.6743 301.262C38.3173 304.041 41.6847 304.936 44.6265 304.463C47.5684 303.989 50.2697 302.431 53.0487 301.24C57.8592 299.186 63.3395 298.25 68.0724 300.5C68.4779 300.759 68.9531 300.888 69.4341 300.87C70.4702 300.685 70.7811 299.193 71.5063 298.342C72.8163 296.803 75.6656 297.232 76.2392 295.193C76.5759 294.005 75.7988 292.788 74.9551 291.977C71.721 288.873 67.0881 288.362 62.8511 288.84C58.6141 289.317 54.4511 290.612 50.192 290.612C44.8893 290.612 39.7642 288.588 34.5096 287.755C30.8684 287.178 26.8979 287.252 23.4861 288.947C19.7894 290.797 18.9753 294.912 15.6338 297.003Z" fill="#6C63FF"/>
<path d="M257.356 13.1994H85.4274C83.3594 13.196 81.311 13.6 79.3991 14.3884C77.4873 15.1767 75.7495 16.334 74.2849 17.7941C72.8204 19.2541 71.6578 20.9884 70.8636 22.8978C70.0694 24.8073 69.6592 26.8544 69.6562 28.9225V267.129C69.6651 271.304 71.3314 275.304 74.2889 278.25C77.2463 281.197 81.2528 282.848 85.4274 282.841H257.356C259.424 282.845 261.473 282.441 263.384 281.652C265.296 280.864 267.034 279.707 268.499 278.246C269.963 276.786 271.126 275.052 271.92 273.143C272.714 271.233 273.124 269.186 273.127 267.118V28.9225C273.124 26.8544 272.714 24.8073 271.92 22.8978C271.126 20.9884 269.963 19.2541 268.499 17.7941C267.034 16.334 265.296 15.1767 263.384 14.3884C261.473 13.6 259.424 13.196 257.356 13.1994Z" fill="url(#paint0_linear)"/>
<path d="M263.288 16.4298H79.4809C75.3935 16.4298 72.0801 19.7433 72.0801 23.8307V273.031C72.0801 277.119 75.3935 280.432 79.4809 280.432H263.288C267.375 280.432 270.689 277.119 270.689 273.031V23.8307C270.689 19.7433 267.375 16.4298 263.288 16.4298Z" fill="#90EE90"/>
<path d="M260.598 41.4002H82.1719V255.458H260.598V41.4002Z" fill="#F6F7F9"/>
<path d="M170.578 30.9614C171.917 30.9614 173.002 29.8762 173.002 28.5376C173.002 27.199 171.917 26.1138 170.578 26.1138C169.239 26.1138 168.154 27.199 168.154 28.5376C168.154 29.8762 169.239 30.9614 170.578 30.9614Z" fill="#F6F7F9"/>
<path d="M170.578 274.782C174.592 274.782 177.846 271.528 177.846 267.514C177.846 263.5 174.592 260.246 170.578 260.246C166.564 260.246 163.311 263.5 163.311 267.514C163.311 271.528 166.564 274.782 170.578 274.782Z" fill="#F6F7F9"/>
<g opacity="0.2">
<path opacity="0.2" d="M260.598 41.4002H82.1719V52.0685H260.598V41.4002Z" fill="#6C63FF"/>
</g>
<path d="M87.7513 49.012C89.0082 49.012 90.0271 47.9931 90.0271 46.7362C90.0271 45.4793 89.0082 44.4604 87.7513 44.4604C86.4945 44.4604 85.4756 45.4793 85.4756 46.7362C85.4756 47.9931 86.4945 49.012 87.7513 49.012Z" fill="#F6F7F9"/>
<path d="M93.5502 49.012C94.807 49.012 95.8259 47.9931 95.8259 46.7362C95.8259 45.4793 94.807 44.4604 93.5502 44.4604C92.2933 44.4604 91.2744 45.4793 91.2744 46.7362C91.2744 47.9931 92.2933 49.012 93.5502 49.012Z" fill="#F6F7F9"/>
<path d="M99.3451 49.012C100.602 49.012 101.621 47.9931 101.621 46.7362C101.621 45.4793 100.602 44.4604 99.3451 44.4604C98.0882 44.4604 97.0693 45.4793 97.0693 46.7362C97.0693 47.9931 98.0882 49.012 99.3451 49.012Z" fill="#F6F7F9"/>
<path d="M253.652 104.326H87.5V104.881H253.652V104.326Z" fill="#DCE0ED"/>
<path d="M253.652 117.214H87.5V117.769H253.652V117.214Z" fill="#DCE0ED"/>
<path d="M253.652 130.107H87.5V130.662H253.652V130.107Z" fill="#DCE0ED"/>
<path d="M253.652 142.995H87.5V143.55H253.652V142.995Z" fill="#DCE0ED"/>
<path d="M253.652 155.884H87.5V156.439H253.652V155.884Z" fill="#DCE0ED"/>
<g opacity="0.2">
<path opacity="0.2" d="M253.653 156.439H87.2969V131.091L102.554 138.61L118.343 140.753L132.198 136.575L148.912 123.612L157.32 118.757L163.466 117.573L169.346 117.888L179.015 122.665L192.163 131.039L202.48 132.364L210.658 129.544L227.998 115.346L236.849 112.189L246.111 113.621L253.653 117.977V156.439Z" fill="#6C63FF"/>
</g>
<path d="M116.293 140.745C101.31 140.745 87.4669 131.583 87.293 131.465L87.7074 130.85C87.922 130.995 109.229 145.09 127.335 138.029C133.937 135.439 138.636 131.45 143.184 127.575C147.932 123.531 152.413 119.712 158.526 118.054C165.535 116.156 173.194 117.873 179.015 122.658C183.992 126.747 193.902 133.311 204.37 131.35C209.706 130.347 214.202 126.451 218.965 122.325C228.094 114.413 237.537 106.232 253.871 117.969L253.438 118.569C237.578 107.171 228.364 115.161 219.45 122.883C214.609 127.076 210.039 131.024 204.507 132.075C193.739 134.096 183.622 127.398 178.545 123.228C172.909 118.598 165.501 116.937 158.718 118.768C152.768 120.382 148.357 124.149 143.661 128.138C139.069 132.053 134.322 136.098 127.605 138.717C123.994 140.093 120.157 140.781 116.293 140.745Z" fill="#90EE90"/>
<path d="M167.452 121.655C169.726 121.655 171.57 119.811 171.57 117.536C171.57 115.262 169.726 113.418 167.452 113.418C165.177 113.418 163.333 115.262 163.333 117.536C163.333 119.811 165.177 121.655 167.452 121.655Z" fill="#90EE90"/>
<g opacity="0.2">
<path opacity="0.2" d="M221.174 63.0366H169.221C168.997 63.0366 168.782 63.1255 168.624 63.2837C168.466 63.4419 168.377 63.6565 168.377 63.8803V99.0157C168.377 99.1846 168.428 99.3496 168.523 99.4893C168.618 99.629 168.753 99.7369 168.91 99.799C169.067 99.8612 169.239 99.8749 169.404 99.8381C169.569 99.8014 169.719 99.716 169.835 99.593L178.838 89.9904C178.917 89.9062 179.012 89.8392 179.117 89.7933C179.223 89.7475 179.337 89.7239 179.452 89.724H221.174C221.398 89.724 221.613 89.6351 221.771 89.4769C221.929 89.3186 222.018 89.104 222.018 88.8803V63.8729C222.016 63.6504 221.926 63.4377 221.768 63.2811C221.61 63.1245 221.397 63.0366 221.174 63.0366Z" fill="#6C63FF"/>
</g>
<path d="M209.988 69.5419H180.403V73.2423H209.988V69.5419Z" fill="#F6F7F9"/>
<path d="M188.526 77.742H180.403V81.4424H188.526V77.742Z" fill="#F6F7F9"/>
<g opacity="0.2">
<path opacity="0.2" d="M109.655 182.919H101.532V186.619H109.655V182.919Z" fill="#6C63FF"/>
</g>
<g opacity="0.2">
<path opacity="0.2" d="M109.655 190.072H101.532V193.772H109.655V190.072Z" fill="#6C63FF"/>
</g>
<g opacity="0.2">
<path opacity="0.2" d="M109.655 197.225H101.532V200.925H109.655V197.225Z" fill="#6C63FF"/>
</g>
<g opacity="0.2">
<path opacity="0.2" d="M109.655 204.381H101.532V208.082H109.655V204.381Z" fill="#6C63FF"/>
</g>
<g opacity="0.2">
<path opacity="0.2" d="M109.655 211.534H101.532V215.235H109.655V211.534Z" fill="#6C63FF"/>
</g>
<g opacity="0.2">
<path opacity="0.2" d="M109.655 218.687H101.532V222.387H109.655V218.687Z" fill="#6C63FF"/>
</g>
<g opacity="0.2">
<path opacity="0.2" d="M109.655 225.844H101.532V229.544H109.655V225.844Z" fill="#6C63FF"/>
</g>
<g opacity="0.2">
<path opacity="0.2" d="M109.655 232.997H101.532V236.697H109.655V232.997Z" fill="#6C63FF"/>
</g>
<g opacity="0.2">
<path opacity="0.2" d="M124.949 236.697H116.826V240.397H124.949V236.697Z" fill="#6C63FF"/>
</g>
<g opacity="0.2">
<path opacity="0.2" d="M139.258 236.697H131.136V240.397H139.258V236.697Z" fill="#6C63FF"/>
</g>
<g opacity="0.2">
<path opacity="0.2" d="M153.568 236.697H145.445V240.397H153.568V236.697Z" fill="#6C63FF"/>
</g>
<g opacity="0.2">
<path opacity="0.2" d="M167.873 236.697H159.751V240.397H167.873V236.697Z" fill="#6C63FF"/>
</g>
<g opacity="0.2">
<path opacity="0.2" d="M182.183 236.697H174.061V240.397H182.183V236.697Z" fill="#6C63FF"/>
</g>
<g opacity="0.2">
<path opacity="0.2" d="M196.493 236.697H188.37V240.397H196.493V236.697Z" fill="#6C63FF"/>
</g>
<g opacity="0.2">
<path opacity="0.2" d="M210.798 236.697H202.676V240.397H210.798V236.697Z" fill="#6C63FF"/>
</g>
<g opacity="0.2">
<path opacity="0.2" d="M225.108 236.697H216.985V240.397H225.108V236.697Z" fill="#6C63FF"/>
</g>
<g opacity="0.2">
<path opacity="0.2" d="M239.417 236.697H231.295V240.397H239.417V236.697Z" fill="#6C63FF"/>
</g>
<path d="M209.988 77.742H197.654V81.4424H209.988V77.742Z" fill="#F6F7F9"/>
<path d="M124.949 209.806H116.826V232.997H124.949V209.806Z" fill="#90EE90"/>
<path d="M139.258 199.075H131.136V232.997H139.258V199.075Z" fill="#90EE90"/>
<path d="M153.568 190.072H145.445V232.997H153.568V190.072Z" fill="#90EE90"/>
<path d="M167.873 194.738H159.751V232.993H167.873V194.738Z" fill="#90EE90"/>
<path d="M182.183 186.619H174.061V232.997H182.183V186.619Z" fill="#90EE90"/>
<g opacity="0.2">
<path opacity="0.2" d="M196.493 204.381H188.37V232.997H196.493V204.381Z" fill="#6C63FF"/>
</g>
<g opacity="0.2">
<path opacity="0.2" d="M210.798 204.381H202.676V232.997H210.798V204.381Z" fill="#6C63FF"/>
</g>
<g opacity="0.2">
<path opacity="0.2" d="M225.108 204.381H216.985V232.997H225.108V204.381Z" fill="#6C63FF"/>
</g>
<g opacity="0.2">
<path opacity="0.2" d="M239.417 204.381H231.295V232.997H239.417V204.381Z" fill="#6C63FF"/>
</g>
<path d="M366.149 100.836C357.353 95.7778 354.03 94.5234 354.012 94.516L353.834 94.3865C352.875 93.6497 352.112 92.6875 351.614 91.5853C351.614 91.3817 351.614 91.1819 351.614 90.9821V91.0413C351.755 88.3622 353.66 85.9236 355.47 83.7959L360.092 78.3563C360.619 77.8193 361.025 77.1759 361.283 76.4691C361.379 76.0907 361.421 75.7009 361.409 75.3109C361.409 75.1517 361.409 74.9926 361.409 74.8372C361.387 73.4865 361.346 72.1322 361.298 70.7667C361.254 69.5863 360.95 68.0987 359.77 67.8545C359.156 67.7287 358.345 67.9507 358.02 67.4216C357.91 67.2054 357.883 66.9571 357.942 66.7222C357.94 66.7407 357.94 66.7592 357.942 66.7777V66.7111C358.172 65.7998 358.319 64.8697 358.382 63.9321C358.405 63.4555 358.34 62.9787 358.19 62.5259C357.505 60.5647 355.152 59.7617 353.068 59.3917C350.985 59.0216 348.654 58.7034 347.348 57.0752C346.944 56.572 346.67 55.9651 346.211 55.5099C345.609 54.976 344.874 54.6131 344.084 54.459C341.5 53.8204 338.777 54.0573 336.342 55.1325C335.336 55.5802 334.326 56.1871 333.223 56.1205C332.12 56.0539 331.095 55.2583 329.963 55.0659C328.135 54.7551 326.385 56.0983 325.485 57.6858C324.951 58.63 324.666 59.6945 324.657 60.7793C324.657 60.8385 324.657 60.9014 324.657 60.9606C324.63 62.1268 325.055 63.2581 325.844 64.1171C326.633 64.9349 327.809 65.4974 328.135 66.5742C328.268 67.0108 328.235 67.4845 328.353 67.9285C328.353 67.984 328.387 68.0395 328.405 68.0913L328.346 68.1691C326.459 70.5873 325.438 73.5684 325.445 76.6356C325.464 79.6111 326.429 82.5033 328.201 84.894C329.972 87.2848 332.458 89.0501 335.299 89.9349C335.299 90.0718 335.299 90.2124 335.299 90.3493C335.299 92.0293 334.822 93.7426 333.386 95.0045L320.93 100.015C320.93 100.015 313.422 99.123 310.713 110.098C310.278 111.921 310.12 113.798 310.247 115.668C310.347 117.322 310.118 120.238 308.193 124.008C305.111 130.04 305.814 143.887 312.112 145.26C318.059 146.555 320.386 146 320.623 145.952V146.192C320.527 148.783 319.583 171.203 316.153 173.916C315.206 174.656 315.383 175.174 316.153 175.514C316.153 175.514 316.153 175.659 316.131 175.918C316.027 177.557 315.498 183.8 313.204 187.352C310.543 191.463 310.821 215.187 310.821 215.187L309.033 229.185C309.033 229.185 310.144 237.822 309.033 239.332C308.034 240.675 306.702 272.635 306.443 279.559H306.325C305.777 279.592 305.245 279.758 304.776 280.044C304.307 280.33 303.915 280.726 303.635 281.198C302.154 283.589 297.011 288.003 297.011 288.003C295.901 289.591 291.76 291.108 289.573 291.826C289.28 291.92 288.997 292.044 288.729 292.196C287.912 292.642 287.256 293.333 286.853 294.172C286.711 294.419 286.619 294.693 286.584 294.976C286.549 295.26 286.572 295.548 286.65 295.822C287.212 297.191 298.831 298.15 301.77 296.781C304.082 295.7 313.241 294.283 317.041 293.728C317.731 293.64 318.373 293.326 318.865 292.834C319.357 292.343 319.672 291.702 319.761 291.012C319.794 290.772 319.779 290.527 319.715 290.293C319.652 290.059 319.541 289.84 319.391 289.65C318.651 288.747 318.281 286.286 318.122 284.68C318.431 284.556 318.719 284.385 318.976 284.173C318.664 279.192 319.379 274.199 321.075 269.505C323.876 262.104 324.716 248.387 324.035 239.476C324.035 239.476 332.575 202.731 339.295 199.301C339.399 199.43 342.659 203.619 343.074 216.574C343.495 229.737 348.254 238.373 348.254 238.373C348.254 238.373 346.152 260.724 348.254 269.087L345.505 282.282C345.305 282.109 345.175 281.975 345.175 281.975C345.175 281.975 345.257 282.345 345.371 282.93L345.312 283.208L345.431 283.237C345.742 284.888 346.204 287.763 346.015 289.45C345.904 290.409 345.645 291.726 345.453 293.017C345.164 295.049 345.083 297.017 346.152 297.458C347.903 298.161 358.193 299.123 359.944 296.862C360.336 296.401 360.592 295.839 360.682 295.24C360.773 294.641 360.694 294.029 360.454 293.472C360.327 293.162 360.155 292.871 359.944 292.61C359.944 292.61 357.213 288.144 357.983 284.995C358.056 284.687 358.064 284.367 358.008 284.056C357.952 283.745 357.833 283.448 357.657 283.185C357.775 281.639 358.397 274.486 360.014 268.41C361.764 261.812 365.461 247.347 362.741 237.833C362.638 237.463 362.519 237.093 362.393 236.723C360.824 231.53 360.301 226.078 360.854 220.682C359.844 216.074 359.844 211.302 360.854 206.694C362.534 199.016 363.707 191.474 363.707 191.474C363.707 191.474 364.636 181.331 363.825 175.111L363.77 174.711L364.214 174.611C364.214 174.611 361.835 164.054 360.995 157.338C360.795 155.75 360.536 153.741 360.255 151.595C361.03 151.471 361.794 151.282 362.538 151.029C370.072 148.413 372.44 124.833 372.44 124.833V117.359C372.44 117.359 374.971 105.91 366.149 100.836ZM309.829 282.923C309.596 282.804 309.459 282.726 309.459 282.726L309.829 282.923Z" fill="url(#paint1_linear)"/>
<path d="M361.585 236.923C364.864 246.351 361.038 261.653 359.262 268.484C357.485 275.315 356.938 283.518 356.938 283.518C349.97 284.61 344.915 283.241 344.915 283.241L347.783 269.179C345.733 260.846 347.783 238.573 347.783 238.573C347.783 238.573 343.139 229.966 342.728 216.848C342.325 203.934 339.142 199.763 339.028 199.634C332.471 203.049 324.134 239.672 324.134 239.672C324.818 248.553 323.997 262.215 321.266 269.594C319.609 274.281 318.912 279.252 319.216 284.214C318.261 285.021 316.933 285.158 315.497 284.928C311.608 284.281 306.941 280.921 306.941 280.921C306.941 280.921 308.422 241.027 309.532 239.52C310.642 238.014 309.532 229.407 309.532 229.407L311.304 215.471C311.304 215.471 311.034 191.829 313.628 187.718C315.871 184.177 316.385 177.957 316.485 176.325C316.485 176.066 316.507 175.921 316.507 175.921L320.459 171.185C320.459 171.185 358.721 168.317 361.589 171.185C362.296 171.892 362.729 173.49 362.988 175.507C363.776 181.705 362.873 191.815 362.873 191.815C362.873 191.815 361.726 199.33 360.087 206.986C359.099 211.579 359.099 216.329 360.087 220.922C359.543 226.302 360.052 231.737 361.585 236.923Z" fill="#65617D"/>
<path d="M359.195 296.84C357.486 299.093 347.443 298.135 345.733 297.436C344.69 297.003 344.771 295.041 345.052 293.017C345.23 291.73 345.492 290.427 345.6 289.461C345.874 287 344.778 282.012 344.778 282.012C344.778 282.012 347.036 284.403 347.58 282.012C347.82 280.969 348.66 280.432 349.53 280.162C350.701 279.81 351.96 279.889 353.078 280.384C354.851 281.154 357.815 282.797 357.282 285.017C356.542 288.155 359.195 292.607 359.195 292.607C359.401 292.867 359.568 293.157 359.691 293.465C359.925 294.019 360.003 294.627 359.915 295.222C359.828 295.817 359.579 296.377 359.195 296.84Z" fill="#A27772"/>
<path opacity="0.1" d="M359.195 296.84C357.486 299.093 347.443 298.135 345.733 297.436C344.69 297.003 344.771 295.041 345.052 293.017C346.129 293.521 347.965 293.942 351.021 293.657C351.736 293.591 352.454 293.569 353.171 293.591C355.345 293.691 357.523 293.648 359.691 293.461C359.926 294.016 360.004 294.624 359.917 295.22C359.829 295.816 359.58 296.376 359.195 296.84Z" fill="black"/>
<path opacity="0.1" d="M324.146 239.657C324.83 248.538 324.009 262.2 321.278 269.579C319.621 274.266 318.924 279.238 319.228 284.199C318.273 285.006 316.945 285.143 315.509 284.913C316.334 279.141 319.846 254.318 322.114 234.702C324.66 212.363 336.649 196.992 336.649 196.992L339.04 199.623C332.475 203.034 324.146 239.657 324.146 239.657Z" fill="black"/>
<path d="M355.095 96.048L353.426 104.244L345.256 117.977L335.179 113.673C335.179 113.673 321.488 99.3265 330.091 97.2765C331.122 97.0564 332.095 96.6227 332.948 96.0036C334.639 94.7306 335.168 92.8767 335.168 91.0635C335.168 88.0699 333.77 85.1836 333.77 85.1836L351.395 79.6329C350.667 81.949 350.241 84.3495 350.129 86.7747C349.996 91.5853 351.779 93.9387 353.241 95.0674C353.788 95.5135 354.418 95.8468 355.095 96.048Z" fill="#FBBEBE"/>
<path opacity="0.1" d="M351.406 79.6514C350.678 81.9675 350.253 84.368 350.141 86.7932C349.82 87.1753 349.478 87.5386 349.116 87.8811C347.297 89.6202 345.04 90.8343 342.587 91.3946C340.133 91.9549 337.574 91.8405 335.18 91.0635C335.18 88.0699 333.781 85.1835 333.781 85.1835L351.406 79.6514Z" fill="black"/>
<path d="M353.426 77.3979C353.425 80.1546 352.607 82.8491 351.075 85.1407C349.542 87.4322 347.365 89.2178 344.817 90.2716C342.27 91.3254 339.467 91.6 336.764 91.0606C334.061 90.5213 331.578 89.1923 329.63 87.2417C327.682 85.2911 326.356 82.8066 325.82 80.1025C325.285 77.3983 325.563 74.596 326.62 72.0501C327.677 69.5041 329.466 67.3289 331.759 65.7996C334.053 64.2702 336.749 63.4555 339.505 63.4584C341.337 63.4525 343.151 63.8092 344.844 64.5079C346.537 65.2066 348.074 66.2334 349.368 67.5292C350.663 68.825 351.687 70.3642 352.384 72.0579C353.08 73.7517 353.434 75.5665 353.426 77.3979Z" fill="#FBBEBE"/>
<path opacity="0.1" d="M355.095 96.048L353.426 104.244L345.256 117.977L335.179 113.673C335.179 113.673 321.488 99.3266 330.091 97.2765C331.122 97.0564 332.095 96.6228 332.948 96.0036C331.394 100.278 337.81 109.166 337.81 109.166C338.551 110.276 340.271 109.573 340.271 109.573C344.401 108.951 352.013 97.0619 353.252 95.0859C353.798 95.5241 354.424 95.851 355.095 96.048Z" fill="black"/>
<path opacity="0.1" d="M362.985 175.529C360.561 176.08 347.136 179.056 342.044 178.312C336.445 177.49 325.551 176.946 325.551 176.946C325.551 176.946 318.617 177.316 316.481 176.347C316.481 176.088 316.504 175.944 316.504 175.944L320.456 171.207C320.456 171.207 358.718 168.339 361.586 171.207C362.293 171.906 362.725 173.505 362.985 175.529Z" fill="black"/>
<path d="M337.81 109.573C337.81 109.573 330.602 99.5818 333.318 95.7001L321.14 100.692C321.14 100.692 313.81 99.8039 311.149 110.742C310.724 112.56 310.571 114.43 310.694 116.293C310.79 117.943 310.568 120.848 308.688 124.604C305.68 130.617 306.364 144.416 312.514 145.785C318.664 147.154 320.848 146.466 320.848 146.466C320.848 146.466 320.03 171.474 316.478 174.341C312.925 177.209 325.532 176.528 325.532 176.528C325.532 176.528 336.426 177.076 342.029 177.894C347.631 178.712 363.343 175.026 363.343 175.026C363.343 175.026 361.019 164.502 360.202 157.808C359.384 151.114 357.467 136.856 357.467 136.856L371.406 117.984C371.406 117.984 373.864 106.576 365.256 101.521C356.649 96.4661 353.415 95.2302 353.415 95.2302C353.415 95.2302 344.778 109.292 340.271 109.984C340.271 109.984 338.558 110.672 337.81 109.573Z" fill="#7C7CDD"/>
<path opacity="0.1" d="M321.825 113.536C321.825 113.536 321.688 118.047 322.506 119.827C323.324 121.607 326.332 131.442 326.332 131.442H319.501C319.501 131.442 323.201 127.479 322.916 125.566C322.632 123.653 321.825 113.536 321.825 113.536Z" fill="black"/>
<path d="M342.047 147.561C342.047 147.561 326.957 143.861 325.551 140.727C324.144 137.593 320.263 130.554 320.263 130.554L321.854 128.408L329.196 134.17C329.196 134.17 337.94 141.138 342.04 141.822C346.14 142.507 342.047 147.561 342.047 147.561Z" fill="#FBBEBE"/>
<path opacity="0.05" d="M342.047 147.561C342.047 147.561 326.957 143.861 325.551 140.727C324.144 137.593 320.263 130.554 320.263 130.554L321.854 128.408L329.196 134.17C329.196 134.17 337.94 141.138 342.04 141.822C346.14 142.507 342.047 147.561 342.047 147.561Z" fill="black"/>
<path d="M355.095 129.799V137.985H353.778C347.276 137.986 340.883 139.641 335.198 142.795L332.733 144.164L332.071 144.535L327.834 134.995L331.797 131.442H332.001C332.97 131.535 337.163 131.886 338.939 131.287C340.626 130.713 342.721 128.897 347.69 130.177C350.14 130.802 352.231 133.548 354.606 132.689L355.095 129.799Z" fill="#FBBEBE"/>
<path opacity="0.1" d="M368.28 114.905L371.015 117.977V125.426C371.015 125.426 368.691 148.927 361.313 151.525C353.934 154.122 340.764 150.018 340.764 150.018C340.764 150.018 337.36 141.001 338.951 140.457C340.542 139.913 353.012 136.616 353.012 136.616C353.012 136.616 352.839 122.828 355.569 118.728C355.569 118.728 353.793 105.887 359.943 105.614C366.093 105.34 368.28 114.905 368.28 114.905Z" fill="black"/>
<path d="M368.691 114.905L371.426 117.977V125.426C371.426 125.426 369.109 148.927 361.708 151.525C354.308 154.122 341.156 150.018 341.156 150.018C341.156 150.018 337.756 141.001 339.347 140.457C340.938 139.913 353.408 136.616 353.408 136.616C353.408 136.616 353.231 122.828 355.965 118.728C355.965 118.728 354.189 105.887 360.339 105.614C366.489 105.34 368.691 114.905 368.691 114.905Z" fill="#7C7CDD"/>
<path opacity="0.1" d="M349.604 83.3186C349.659 82.4194 349.678 81.4684 349.293 80.658C348.908 79.8476 348.005 79.2 347.125 79.4072C345.955 79.6811 345.452 81.2019 344.305 81.5683C343.339 81.8754 342.285 81.1982 341.826 80.2879C341.367 79.3776 341.352 78.3267 341.348 77.3276C341.348 76.1879 341.348 75.0444 341.348 73.9047C341.348 72.6614 341.308 71.3144 340.542 70.3449C339.591 69.1275 337.352 68.5983 335.857 68.6464C334.861 68.658 333.906 69.0437 333.182 69.7269C332.382 70.4041 331.457 70.9074 330.366 70.726C329.912 70.6573 329.487 70.4617 329.14 70.1618C328.793 69.8619 328.538 69.47 328.404 69.0313V68.9869C329.566 67.4519 331.033 66.1743 332.713 65.2346C334.393 64.2949 336.25 63.7135 338.166 63.527C340.082 63.3405 342.016 63.553 343.846 64.1511C345.675 64.7492 347.361 65.7199 348.797 67.002C350.233 68.2841 351.388 69.8498 352.189 71.6004C352.99 73.351 353.419 75.2486 353.45 77.1734C353.481 79.0982 353.113 81.0085 352.369 82.7839C351.625 84.5593 350.521 86.1613 349.127 87.4889C349.364 86.1089 349.523 84.7165 349.604 83.3186Z" fill="black"/>
<path d="M330.358 70.3042C329.904 70.2347 329.479 70.0384 329.132 69.7379C328.785 69.4374 328.53 69.0449 328.396 68.6057C328.282 68.1653 328.311 67.6954 328.182 67.255C327.864 66.1819 326.702 65.6231 325.962 64.809C324.422 63.1735 324.522 60.487 325.614 58.5183C326.494 56.9346 328.204 55.5987 329.984 55.9059C331.094 56.0983 332.045 56.8865 333.166 56.9568C334.287 57.0271 335.227 56.4202 336.212 55.9725C338.581 54.8996 341.244 54.6634 343.764 55.3027C344.539 55.4583 345.258 55.8201 345.844 56.3499C346.241 56.8497 346.611 57.3697 346.954 57.9078C348.231 59.5323 350.51 59.8505 352.542 60.2168C354.573 60.5832 356.867 61.3862 357.537 63.34C357.978 64.6351 357.537 66.0413 357.297 67.3882C357.211 67.6627 357.229 67.9591 357.348 68.2208C357.667 68.7463 358.459 68.528 359.058 68.6538C360.213 68.8943 360.509 70.3782 360.538 71.5549C360.588 72.9019 360.625 74.2488 360.649 75.5958C360.718 76.2203 360.637 76.8522 360.414 77.4396C360.191 78.0269 359.831 78.5529 359.365 78.9742L354.854 84.3953C352.852 86.8006 350.728 89.6018 351.132 92.7028C350.184 93.1283 349.06 92.3068 348.749 91.3151C348.438 90.3234 348.69 89.2577 348.897 88.2401C349.262 86.4807 349.501 84.6975 349.611 82.9041C349.666 82.0012 349.685 81.0539 349.3 80.2435C348.915 79.4331 348.012 78.7633 347.132 78.989C345.962 79.2629 345.459 80.7837 344.312 81.1501C343.35 81.4572 342.291 80.78 341.833 79.8697C341.374 78.9594 341.359 77.9085 341.355 76.9094V73.4828C341.355 72.2432 341.315 70.8925 340.549 69.923C339.598 68.7056 337.359 68.1764 335.864 68.2245C334.868 68.2368 333.913 68.6224 333.188 69.3051C332.374 69.9822 331.449 70.4818 330.358 70.3042Z" fill="#7C5C5C"/>
<path opacity="0.1" d="M333.508 113.196L337.786 130.773C337.786 130.773 341.16 130.754 333.508 113.196Z" fill="black"/>
<path opacity="0.1" d="M348.128 110.258C348.128 110.258 342.526 119.435 344.713 128.919L345.756 128.996C345.756 128.996 343.891 124.604 348.128 110.258Z" fill="black"/>
<path opacity="0.1" d="M351.68 162.182C351.68 162.182 358.559 159.906 359.058 165.186C359.058 165.186 357.76 161.567 351.68 162.182Z" fill="black"/>
<path opacity="0.1" d="M331.798 131.864C331.798 131.864 330.432 141.43 332.908 145.256C332.908 145.256 327.905 147.306 320.881 146.895L320.049 131.864H331.798Z" fill="black"/>
<path opacity="0.1" d="M332.733 144.161L332.071 144.531L327.834 134.991L331.797 131.439H332.001C331.938 131.898 330.835 140.112 332.733 144.161Z" fill="black"/>
<path d="M331.798 131.439C331.798 131.439 330.432 141.001 332.908 144.827C332.908 144.827 327.905 146.877 320.882 146.466L316.101 131.439H331.798Z" fill="#7C7CDD"/>
<path d="M319.979 291.023C319.9 291.704 319.596 292.34 319.116 292.83C318.635 293.319 318.005 293.635 317.326 293.728C313.625 294.283 304.678 295.696 302.42 296.769C299.553 298.135 288.211 297.18 287.663 295.815C287.509 295.263 287.579 294.672 287.859 294.172C288.254 293.337 288.901 292.647 289.709 292.199C289.97 292.049 290.246 291.925 290.531 291.829C292.666 291.115 296.7 289.609 297.791 288.018C297.791 288.018 302.82 283.618 304.252 281.239C304.522 280.772 304.903 280.378 305.361 280.093C305.82 279.808 306.341 279.639 306.879 279.603C308.078 279.548 309.41 280.151 309.954 282.775C309.954 282.775 316.512 286.516 318.284 283.233C318.284 283.233 318.558 288.273 319.646 289.65C319.79 289.845 319.893 290.067 319.95 290.303C320.007 290.539 320.017 290.783 319.979 291.023Z" fill="#A27772"/>
<path opacity="0.1" d="M319.979 291.023C319.9 291.704 319.596 292.34 319.115 292.83C318.635 293.319 318.005 293.635 317.326 293.728C313.625 294.283 304.678 295.696 302.42 296.769C299.553 298.135 288.211 297.18 287.663 295.815C287.509 295.263 287.579 294.672 287.859 294.172C288.254 293.337 288.901 292.647 289.709 292.199C291.56 293.428 295.663 294.627 304.692 293.217C313.303 291.874 317.566 290.556 319.646 289.657C319.789 289.852 319.892 290.072 319.949 290.307C320.006 290.541 320.016 290.784 319.979 291.023Z" fill="black"/>
<g opacity="0.1">
<path opacity="0.1" d="M357.268 67.588V67.5214C357.464 66.4964 357.757 65.4381 357.69 64.4168C357.602 65.255 357.462 66.0868 357.268 66.9072C357.217 67.1312 357.217 67.364 357.268 67.588Z" fill="black"/>
<path opacity="0.1" d="M349.289 80.3767C349.505 80.8695 349.619 81.4005 349.626 81.9383C349.69 81.1965 349.574 80.4503 349.289 79.7624C348.919 78.9446 348.005 78.3007 347.125 78.508C345.955 78.7818 345.452 80.3027 344.305 80.669C343.339 80.9761 342.285 80.299 341.822 79.3887C341.359 78.4784 341.352 77.4274 341.348 76.4283C341.348 75.2849 341.348 74.1452 341.348 73.0017C341.348 71.7621 341.308 70.4115 340.542 69.4419C339.591 68.2245 337.348 67.6954 335.857 67.7435C334.861 67.755 333.906 68.1407 333.182 68.824C332.379 69.5049 331.457 70.0044 330.366 69.8268C329.912 69.7574 329.487 69.561 329.14 69.2605C328.793 68.96 328.538 68.5675 328.404 68.1283C328.29 67.6879 328.319 67.218 328.19 66.7776C327.868 65.7045 326.71 65.1458 325.969 64.3317C325.25 63.5386 324.841 62.5122 324.819 61.4417C324.762 62.0733 324.834 62.71 325.032 63.3126C325.23 63.9152 325.549 64.471 325.969 64.9459C326.739 65.76 327.883 66.3225 328.19 67.3956C328.319 67.8323 328.29 68.3022 328.404 68.7426C328.538 69.1818 328.793 69.5743 329.14 69.8748C329.487 70.1753 329.912 70.3716 330.366 70.4411C331.476 70.6187 332.379 70.1191 333.182 69.4382C333.906 68.755 334.861 68.3693 335.857 68.3577C337.337 68.3096 339.591 68.8425 340.542 70.0562C341.308 71.0331 341.345 72.3764 341.348 73.616C341.348 74.7594 341.348 75.8992 341.348 77.0426C341.348 78.0565 341.348 79.1111 341.822 80.0029C342.296 80.8947 343.339 81.5904 344.305 81.2833C345.452 80.9132 345.955 79.3961 347.125 79.1222C348.017 78.9187 348.908 79.5589 349.289 80.3767Z" fill="black"/>
<path opacity="0.1" d="M360.52 76.6133C360.271 77.3154 359.875 77.9562 359.358 78.4931C357.856 80.3014 356.352 82.1084 354.847 83.9143C352.949 86.1974 350.936 88.8395 351.084 91.7517C351.221 89.08 353.082 86.6488 354.847 84.5285L359.358 79.1111C359.874 78.5722 360.27 77.9303 360.52 77.2276C360.632 76.7427 360.672 76.244 360.638 75.7474C360.635 76.0398 360.595 76.3307 360.52 76.6133Z" fill="black"/>
<path opacity="0.1" d="M348.757 90.834C348.684 90.5933 348.639 90.345 348.624 90.094C348.585 90.5473 348.63 91.0039 348.757 91.4409C349.068 92.4326 350.197 93.2504 351.144 92.8249C351.118 92.6251 351.103 92.4252 351.096 92.2254C350.141 92.6177 349.046 91.811 348.757 90.834Z" fill="black"/>
</g>
<path opacity="0.1" d="M303.338 282.471C303.338 282.471 304.766 284.984 309.939 282.771L303.338 282.471Z" fill="black"/>
<path opacity="0.1" d="M347.091 283.089C347.091 283.089 351.554 288.344 357.178 284.81L347.091 283.089Z" fill="black"/>
<path opacity="0.1" d="M360.084 220.933C360.084 220.933 356.927 222.906 356.827 224.034C356.728 225.163 358.456 223.213 358.456 223.213L360.084 220.933Z" fill="black"/>
<path opacity="0.1" d="M361.338 236.042C360.241 236.955 358.877 237.487 357.452 237.559C355.095 237.663 355.291 240.738 356.831 239.813C358.37 238.888 361.338 236.042 361.338 236.042Z" fill="black"/>
<path opacity="0.1" d="M361.927 238.014C361.927 238.014 360.413 245.452 359.185 244.016L361.927 238.014Z" fill="black"/>
<path d="M50.6069 272.613C50.6069 272.613 52.6384 275.27 49.667 279.274C46.6955 283.278 44.2458 286.675 45.2265 289.176C45.2265 289.176 49.7077 281.724 53.3674 281.62C57.0271 281.516 54.6218 277.094 50.6069 272.613Z" fill="#6C63FF"/>
<path opacity="0.1" d="M50.6065 272.613C50.7845 272.869 50.9242 273.15 51.0209 273.446C54.5807 277.627 56.4791 281.531 53.0562 281.631C49.8701 281.72 46.0254 287.422 45.1299 288.862C45.1601 288.972 45.1959 289.081 45.2372 289.187C45.2372 289.187 49.7184 281.735 53.3781 281.631C57.0378 281.528 54.6215 277.094 50.6065 272.613Z" fill="black"/>
<path d="M54.385 275.999C54.385 276.935 54.2814 277.694 54.1519 277.694C54.0224 277.694 53.915 276.935 53.915 275.999C53.915 275.063 54.0483 275.507 54.1778 275.507C54.3073 275.507 54.385 275.07 54.385 275.999Z" fill="#FFD037"/>
<path d="M55.6838 277.117C54.8623 277.564 54.1445 277.834 54.0816 277.723C54.0186 277.612 54.6366 277.154 55.4581 276.706C56.2796 276.258 55.954 276.584 56.0169 276.706C56.0798 276.828 56.5053 276.669 55.6838 277.117Z" fill="#FFD037"/>
<path d="M39.8685 272.613C39.8685 272.613 37.8369 275.27 40.8084 279.274C43.7798 283.278 46.2295 286.675 45.2489 289.176C45.2489 289.176 40.7677 281.724 37.1079 281.62C33.4482 281.516 35.8572 277.094 39.8685 272.613Z" fill="#6C63FF"/>
<path opacity="0.1" d="M39.8677 272.613C39.6913 272.87 39.5518 273.15 39.4533 273.446C35.8935 277.627 33.9952 281.531 37.418 281.631C40.6078 281.72 44.4488 287.422 45.3443 288.862C45.3158 288.973 45.2799 289.081 45.237 289.187C45.237 289.187 40.7558 281.735 37.0961 281.631C33.4364 281.528 35.8565 277.094 39.8677 272.613Z" fill="black"/>
<path d="M36.0898 275.999C36.0898 276.935 36.1935 277.694 36.323 277.694C36.4525 277.694 36.5598 276.935 36.5598 275.999C36.5598 275.063 36.4266 275.507 36.2971 275.507C36.1676 275.507 36.0898 275.07 36.0898 275.999Z" fill="#FFD037"/>
<path d="M34.7947 277.117C35.6162 277.564 36.3304 277.834 36.3933 277.723C36.4562 277.612 35.8382 277.154 35.0167 276.706C34.1952 276.258 34.5209 276.584 34.458 276.706C34.3951 276.828 33.9732 276.669 34.7947 277.117Z" fill="#FFD037"/>
<path d="M36.7373 288.84C36.7373 288.84 42.4211 288.666 44.1381 287.445C45.8551 286.223 52.8785 284.769 53.3041 286.727C53.7296 288.684 61.8446 296.455 55.4281 296.507C49.0116 296.559 40.5191 295.508 38.8095 294.464C37.0999 293.421 36.7373 288.84 36.7373 288.84Z" fill="#A8A8A8"/>
<path opacity="0.2" d="M55.5391 295.826C49.1226 295.878 40.6301 294.827 38.9205 293.783C37.618 292.991 37.0999 290.146 36.926 288.832H36.7373C36.7373 288.832 37.1073 293.417 38.8058 294.457C40.5043 295.497 49.0079 296.551 55.4244 296.499C57.2746 296.499 57.9185 295.826 57.8815 294.849C57.6262 295.445 56.9194 295.815 55.5391 295.826Z" fill="black"/>
</g>
<defs>
<linearGradient id="paint0_linear" x1="171.384" y1="282.852" x2="171.384" y2="13.1994" gradientUnits="userSpaceOnUse">
<stop stop-color="#808080" stop-opacity="0.25"/>
<stop offset="0.54" stop-color="#808080" stop-opacity="0.12"/>
<stop offset="1" stop-color="#808080" stop-opacity="0.1"/>
</linearGradient>
<linearGradient id="paint1_linear" x1="82217.9" y1="204579" x2="82217.9" y2="43494" gradientUnits="userSpaceOnUse">
<stop stop-color="#808080" stop-opacity="0.25"/>
<stop offset="0.54" stop-color="#808080" stop-opacity="0.12"/>
<stop offset="1" stop-color="#808080" stop-opacity="0.1"/>
</linearGradient>
<clipPath id="clip0">
<rect width="400" height="309.614" fill="white"/>
</clipPath>
</defs>
</svg>
