<svg width="400" height="256" viewBox="0 0 400 256" fill="none" xmlns="http://www.w3.org/2000/svg">
<g clip-path="url(#clip0)">
<path d="M400 252.8H0V255.69H400V252.8Z" fill="#85848B"/>
<path d="M316.904 201.771C316.904 203.994 303.798 210.475 288.23 210.475C272.662 210.475 260.531 203.994 260.531 201.771C260.531 199.547 273.15 200.263 288.733 200.263C304.316 200.263 316.904 199.544 316.904 201.771Z" fill="#504F60"/>
<path opacity="0.2" d="M316.904 201.771C316.904 203.994 303.798 210.475 288.23 210.475C272.662 210.475 260.531 203.994 260.531 201.771" fill="black"/>
<path d="M160.121 160.979C162.648 161.299 165.27 161.502 167.69 160.726C168.071 160.609 168.49 160.349 168.452 159.973C168.425 159.836 168.366 159.707 168.281 159.596C167.369 158.243 166.602 156.8 165.994 155.289C165.97 155.21 165.921 155.141 165.853 155.093C165.774 155.065 165.688 155.065 165.609 155.093C164.493 155.383 163.528 156.095 162.419 156.401C161.854 156.554 161.264 156.597 160.682 156.529C160.178 156.472 159.492 156.061 159.035 156.114C159.294 157.761 159.927 159.298 160.121 160.979Z" fill="#6C63FF"/>
<path d="M207.908 156.807C209.574 155.677 211.3 154.49 212.283 152.746C212.354 152.641 212.394 152.52 212.401 152.395C212.385 152.272 212.336 152.155 212.26 152.056C211.324 150.584 210.118 149.297 208.705 148.262C207.967 148.777 207.301 149.385 206.723 150.07C206.304 150.507 205.145 151.201 205.134 151.868C205.134 152.244 205.576 152.682 205.782 152.998C206.06 153.405 206.323 153.819 206.574 154.241C206.719 154.449 208.042 156.725 207.908 156.807Z" fill="#6C63FF"/>
<path d="M170.026 166.024C170.056 166.412 169.948 166.798 169.721 167.117C169.544 167.294 169.323 167.423 169.081 167.493C165.548 168.744 161.459 167.184 157.934 168.417C157.21 168.669 156.524 169.034 155.796 169.276C154.928 169.534 154.033 169.69 153.128 169.743C151.882 169.86 150.628 169.935 149.378 169.969C148.428 170.035 147.474 169.953 146.55 169.724C146.088 169.607 145.657 169.395 145.283 169.103C144.909 168.81 144.602 168.443 144.382 168.025C144.19 167.65 144.152 167.217 144.275 166.815C144.33 166.677 144.409 166.55 144.508 166.438C144.746 166.173 145.027 165.948 145.338 165.771L146.638 164.942C147.247 164.516 147.909 164.169 148.608 163.91C149.123 163.744 149.668 163.673 150.19 163.533C152.015 163.006 153.41 161.574 154.706 160.199L156.474 158.333C156.64 158.128 156.849 157.962 157.088 157.847C157.333 157.767 157.594 157.742 157.85 157.776C159.568 157.897 161.226 158.447 162.671 159.373C163.04 159.647 163.439 159.88 163.86 160.067C164.897 160.466 166.227 160.165 167.183 159.66C167.637 159.419 167.538 159.283 167.728 158.853C167.919 158.424 168.384 158.149 168.788 158.541C168.91 158.676 168.996 158.839 169.039 159.015C169.42 160.259 169.276 161.597 169.276 162.9C169.264 163.104 169.29 163.308 169.352 163.503C169.449 163.7 169.565 163.886 169.699 164.061C169.726 164.107 169.75 164.155 169.771 164.204C170.004 164.781 170.092 165.406 170.026 166.024Z" fill="#514E7F"/>
<path d="M170.026 166.024C170.056 166.412 169.948 166.798 169.721 167.117C169.543 167.294 169.323 167.423 169.081 167.493C165.548 168.744 161.459 167.184 157.934 168.417C157.21 168.669 156.524 169.034 155.796 169.276C154.928 169.534 154.033 169.69 153.128 169.743C151.882 169.86 150.628 169.935 149.378 169.969C148.428 170.035 147.474 169.953 146.55 169.724C146.088 169.607 145.657 169.395 145.283 169.103C144.909 168.81 144.602 168.443 144.382 168.025C144.19 167.65 144.152 167.217 144.275 166.815C144.33 166.677 144.409 166.55 144.508 166.438C144.713 166.864 144.862 167.429 144.992 167.633C145.167 167.934 145.405 168.195 145.69 168.399C145.975 168.602 146.301 168.743 146.645 168.812C147.161 168.843 147.679 168.778 148.17 168.62C151.371 167.836 154.774 167.825 157.85 166.638C158.906 166.227 159.912 165.681 161.021 165.432C162.13 165.184 163.307 165.251 164.451 165.157C166.257 165.014 168.006 164.475 169.786 164.193C170.016 164.775 170.098 165.403 170.026 166.024Z" fill="#464353"/>
<path d="M215.998 156.578C215.831 157.904 214.981 159.046 214.047 160.014C213.113 160.982 212.058 161.853 211.315 162.968C210.4 164.351 209.988 166.065 208.799 167.233C208.343 167.658 207.83 168.019 207.275 168.307C206.653 168.67 205.995 168.969 205.312 169.2C203.536 169.762 201.623 169.634 199.767 169.498C199.165 169.492 198.568 169.379 198.006 169.163C197.751 169.034 197.506 168.885 197.275 168.718C196.809 168.435 196.418 168.048 196.131 167.588C195.991 167.337 195.951 167.044 196.021 166.766C196.127 166.46 196.309 166.186 196.551 165.967C196.968 165.538 197.417 165.139 197.892 164.773C198.545 164.357 199.133 163.849 199.638 163.266C199.947 162.805 200.176 162.295 200.312 161.759C200.582 160.818 200.747 159.852 200.804 158.876C200.802 158.228 200.869 157.581 201.006 156.947C201.288 155.952 202.035 155.063 201.951 154.034C201.917 153.887 201.93 153.733 201.989 153.593C202.078 153.484 202.201 153.409 202.34 153.379C202.922 153.149 203.536 153.008 204.161 152.96C204.475 152.939 204.789 152.987 205.082 153.1C205.375 153.213 205.638 153.39 205.853 153.616C206.113 153.925 206.284 154.37 206.665 154.49C206.854 154.541 207.052 154.549 207.244 154.513C208.182 154.419 209.173 154.302 209.912 153.703C210.254 153.4 210.529 153.03 210.719 152.617C210.909 152.204 211.011 151.756 211.017 151.302C211.017 150.96 210.861 150.602 211.398 150.549C211.802 150.496 212.123 150.926 212.328 151.189C213.072 152.173 213.834 153.202 214.112 154.4C214.22 154.358 214.335 154.336 214.451 154.336C214.689 154.334 214.924 154.388 215.135 154.495C215.347 154.602 215.529 154.758 215.667 154.95C215.97 155.436 216.088 156.013 215.998 156.578Z" fill="#514E7F"/>
<path d="M215.999 156.578C215.831 157.904 214.981 159.046 214.048 160.014C213.114 160.982 212.058 161.853 211.315 162.968C210.4 164.351 209.989 166.065 208.8 167.233C208.343 167.658 207.83 168.019 207.275 168.307C206.653 168.67 205.996 168.969 205.313 169.2C203.537 169.762 201.624 169.634 199.768 169.498C199.165 169.492 198.568 169.379 198.007 169.163C197.751 169.034 197.507 168.886 197.275 168.718C196.81 168.435 196.418 168.048 196.132 167.588C196.489 167.418 196.879 167.325 197.275 167.316C198.098 167.362 198.7 168.13 199.489 168.368C200.614 168.703 201.734 167.919 202.874 167.652C203.617 167.478 204.398 167.524 205.134 167.275C205.746 167.041 206.313 166.701 206.807 166.273C207.483 165.794 208.085 165.22 208.594 164.57C209.016 163.919 209.368 163.225 209.642 162.501C210.244 161.113 210.952 159.773 211.761 158.492C211.881 158.289 212.025 158.102 212.192 157.934C212.371 157.772 212.573 157.659 212.775 157.516C213.537 156.947 213.853 156.009 214.12 155.089C214.192 154.81 214.293 154.538 214.421 154.279C214.659 154.277 214.893 154.332 215.105 154.439C215.317 154.546 215.499 154.702 215.637 154.893C215.965 155.391 216.094 155.991 215.999 156.578Z" fill="#464353"/>
<path d="M136.085 39.1002C137.034 39.803 137.814 40.7034 138.372 41.7378C138.905 42.7702 141.981 50.7809 141.802 51.9452C142.804 50.9467 146.756 50.7846 147.77 49.7861C148.193 49.3679 150.476 47.2804 150.819 46.7944C151.162 46.3083 153.707 45.2872 153.986 44.7747C155.026 42.9322 146.607 35.9502 147.686 34.1302C147.746 34.0466 147.776 33.9462 147.774 33.8439C147.749 33.758 147.7 33.6808 147.633 33.6216C146.943 32.9245 146.028 32.4912 145.197 31.975C144.367 31.4588 143.566 30.7391 143.341 29.7896C142.549 30.1501 141.822 30.6363 141.188 31.2289C139.643 32.5377 138.125 33.8728 136.634 35.2343C136.051 35.7693 134.923 36.4815 134.652 37.2463C134.332 38.0678 135.529 38.6518 136.085 39.1002Z" fill="#A1616A"/>
<path d="M149.713 36.1348C148.421 36.9929 147.214 37.9694 146.108 39.0512C145.063 40.0723 144.073 41.2554 143.821 42.6835C143.714 43.2449 143.73 43.8139 143.642 44.3828C143.261 46.8508 141.104 48.6595 140.151 50.9692C139.875 51.6821 139.672 52.4206 139.545 53.1735C139.277 54.6008 139.131 56.0477 139.107 57.4991C139.084 58.9045 140.479 59.8729 140.989 61.1842C141.5 62.4954 141.637 63.8443 141.896 65.1895C142.384 67.7291 143.28 70.1783 144.183 72.6124C146.062 77.7444 152.152 91.9307 154.031 97.0665C159.789 95.6384 175.117 92.3565 180.217 89.3459C181.916 88.3436 168.421 77.036 170.239 76.256C170.343 76.24 170.442 76.2004 170.528 76.1402C170.613 76.08 170.684 76.0009 170.733 75.9092C170.783 75.8174 170.81 75.7156 170.813 75.6116C170.816 75.5077 170.794 75.4045 170.75 75.3103C168.932 67.4503 163.246 60.992 160.666 53.3393C159.77 50.6829 158.162 48.4145 156.942 45.89C155.837 43.6029 155.247 41.0746 153.924 38.9004C153.675 38.4525 153.348 38.0509 152.96 37.7135C152.63 37.4635 152.274 37.25 151.897 37.0768C151.142 36.715 150.441 36.5003 149.713 36.1348Z" fill="#514E7F"/>
<path d="M136.389 38.2071C141.367 38.2071 145.402 34.2174 145.402 29.2959C145.402 24.3743 141.367 20.3846 136.389 20.3846C131.411 20.3846 127.376 24.3743 127.376 29.2959C127.376 34.2174 131.411 38.2071 136.389 38.2071Z" fill="#A1616A"/>
<path d="M145.559 33.4822C146.008 33.0725 146.572 32.8072 147.177 32.7211C147.782 32.6349 148.399 32.7322 148.947 32.9999C149.556 33.3126 150.09 33.9456 149.953 34.6088L154.423 34.6766C155.135 34.6574 155.846 34.7219 156.542 34.8688C157.243 35.0196 157.868 35.4074 158.31 35.9652C158.364 36.0368 158.425 36.1235 158.516 36.1348C158.591 36.1359 158.663 36.112 158.722 36.067C159.41 35.726 160.184 35.5948 160.948 35.6902C163.364 35.8447 165.597 37.0391 167.491 38.5312C167.833 38.7634 168.098 39.0896 168.253 39.4694C168.41 39.9706 168.223 40.5998 168.635 40.9578C168.635 45.1025 170.075 48.976 171.035 53.0153C171.207 53.7349 171.904 54.3717 172.388 54.9369C172.986 55.5635 173.475 56.2843 173.833 57.0696C174.648 59.1646 173.524 61.6288 174.317 63.7313C174.652 64.6206 175.3 65.3516 175.841 66.124C176.555 67.0159 177.006 68.085 177.145 69.2137C177.179 69.7186 177.114 70.2273 177.145 70.7209C177.196 71.3998 177.324 72.0709 177.526 72.7217C177.851 73.9375 178.191 75.152 178.547 76.3653C179.126 78.3247 179.881 80.4385 181.657 81.4822C177.369 82.2019 172.85 82.9065 168.764 81.4332C168.194 81.241 167.653 80.9736 167.156 80.6382C165.681 79.5982 164.968 77.8197 164.332 76.1392C163.623 74.2553 162.903 72.3374 162.758 70.3328C162.759 69.6953 162.668 69.0608 162.487 68.4488C162.072 67.3561 160.963 66.6967 159.957 66.0901C158.821 65.4746 157.791 64.6834 156.908 63.7464C156.47 63.2745 156.134 62.7187 155.921 62.1134C155.709 61.508 155.625 60.8661 155.673 60.2271C155.749 59.6054 155.997 59.0063 156.02 58.3808C156.043 57.7554 155.761 57.0394 155.155 56.8737C152.034 55.9392 150.543 52.2843 149.85 49.1343C149.551 47.5062 149.416 45.8526 149.45 44.1982L149.408 40.9842C148.977 40.5967 148.631 40.1267 148.389 39.6026C148.148 39.0786 148.018 38.5115 148.005 37.9359C148.047 37.6001 148.04 37.2601 147.986 36.9261C147.835 36.5177 147.59 36.15 147.27 35.8522C146.581 35.153 146.004 34.3537 145.559 33.4822Z" fill="#464353"/>
<path d="M135.959 43.6707C135.856 44.6654 136.084 45.6866 135.86 46.6625C135.772 47.0393 135.619 47.416 135.509 47.7665C135.171 49.1711 135.317 50.6471 135.924 51.9602C136.531 53.2604 137.256 54.5028 138.093 55.6717C138.376 56.0707 138.609 56.5021 138.786 56.9565C138.931 57.4337 139.02 57.9254 139.053 58.4223C139.274 60.4176 139.628 62.3963 140.113 64.3455C140.54 66.0335 145.387 80.4648 146.515 81.8025C146.72 82.0986 147.03 82.3073 147.384 82.3865C147.639 82.396 147.893 82.3443 148.123 82.2358L150.41 81.3691C150.605 81.3103 150.785 81.2129 150.94 81.0828C151.154 80.8352 151.271 80.5194 151.268 80.1935C151.431 78.3548 146.572 63.8218 145.955 62.0847C144.088 56.8397 141.603 51.7831 140.387 46.3535C140.048 44.8463 139.869 42.5252 138.752 41.3233C138.291 40.8259 138.447 41.0369 137.895 41.2969C137.615 41.4167 137.345 41.5565 137.087 41.7151C136.763 41.9374 136.494 42.2284 136.299 42.5667C136.104 42.9051 135.987 43.2822 135.959 43.6707Z" fill="#464353"/>
<path d="M142.899 53.6219C143.512 56.8284 144.145 60.0274 144.774 63.2339L153.722 60.9166C153.795 59.9897 153.295 59.1306 152.96 58.2791C152.145 56.2557 152.125 54.0024 151.466 51.9225C150.967 50.34 150.098 48.8855 149.629 47.2917C149.359 46.3648 149.221 45.4077 148.955 44.4695C148.669 43.5481 148.317 42.6478 147.903 41.7754C147.401 40.5101 146.745 39.3094 145.952 38.1996C144.808 38.6216 143.589 39.1114 142.937 40.1326C142.603 40.7079 142.412 41.3537 142.381 42.0165C142.224 44.0022 142.952 45.9993 142.712 47.9737C142.465 49.854 142.528 51.7615 142.899 53.6219Z" fill="#6C63FF"/>
<path d="M153.871 96.2751C154.374 98.1591 153.646 100.141 153.051 102.006C152.156 104.816 151.546 107.706 151.23 110.635C151.191 111.38 151.039 112.116 150.78 112.816C150.498 113.446 150.018 113.977 149.69 114.576C148.791 116.151 148.813 118.073 149.008 119.874C149.137 121.061 149.332 122.244 149.572 123.412C149.865 124.84 150.227 126.332 149.804 127.726C150.513 127.572 150.993 128.48 150.948 129.192C150.902 129.904 150.669 130.699 151.016 131.313C151.893 131.63 151.9 132.821 151.874 133.744C151.888 135.344 152.093 136.938 152.484 138.491C153.81 144.796 155.217 151.084 156.706 157.354C159.926 158.341 163.688 159.37 166.76 158.002C167.331 157.749 167.903 157.346 168.033 156.736C168.066 156.407 168.024 156.075 167.911 155.764L166.455 150.526C166.1 149.26 165.746 147.953 165.933 146.653C166.074 145.684 166.501 144.641 166.02 143.785C165.856 143.491 165.597 143.262 165.407 142.983C164.645 141.879 165.045 140.402 165.106 139.064C165.129 138.764 165.109 138.462 165.045 138.167C164.94 137.823 164.794 137.493 164.61 137.184C163.407 134.875 162.829 132.296 162.933 129.701C162.979 129.369 162.933 129.032 162.8 128.725C162.708 128.598 162.625 128.464 162.552 128.325C162.495 128.084 162.524 127.83 162.632 127.606C162.196 127.278 161.801 126.898 161.459 126.475C161.67 126.345 161.849 126.17 161.981 125.961C162.114 125.753 162.197 125.518 162.224 125.273C162.251 125.029 162.222 124.781 162.138 124.549C162.054 124.318 161.918 124.108 161.741 123.936C161.896 123.905 162.04 123.832 162.156 123.725C162.272 123.618 162.356 123.482 162.398 123.331C162.44 123.179 162.439 123.02 162.395 122.869C162.351 122.719 162.266 122.583 162.148 122.478C161.962 122.349 161.714 122.293 161.58 122.101C161.375 121.822 161.542 121.434 161.71 121.136L162.598 119.55C163.261 118.37 163.41 116.912 164.122 115.782C165.144 114.135 165.811 112.3 166.47 110.484L169.035 103.487L170.761 104.968C171.336 105.402 171.818 105.945 172.179 106.565C172.424 107.178 172.58 107.823 172.64 108.48C173.273 112.278 175.689 115.571 176.585 119.312C176.783 120.145 176.916 121.019 177.4 121.731C177.573 121.95 177.729 122.182 177.865 122.425C177.991 122.795 178.057 123.183 178.059 123.574C178.139 124.339 178.385 125.079 178.78 125.742C179.174 126.405 179.708 126.976 180.346 127.417C181.196 127.994 182.252 128.389 182.713 129.301C182.805 129.584 182.933 129.853 183.094 130.104C183.505 130.594 184.393 130.65 184.569 131.264C184.668 131.607 184.485 132.018 184.679 132.319C184.79 132.459 184.936 132.567 185.102 132.632L187.583 133.857C190.358 135.228 191.775 138.378 193.822 140.673C194.529 141.42 195.155 142.239 195.689 143.115C196.574 144.678 196.981 146.641 198.475 147.636C198.877 147.842 199.242 148.111 199.558 148.431C200.026 149.042 199.855 149.897 199.897 150.666C199.939 151.434 200.533 152.35 201.273 152.116C201.013 153.047 201.013 154.03 201.273 154.961C204.518 154.796 207.614 153.557 210.061 151.442C210.785 150.816 211.482 150.018 211.49 149.068C211.501 148.904 211.464 148.741 211.383 148.597C211.237 148.412 211.044 148.267 210.823 148.179C208.502 146.935 207.805 144.053 206.631 141.713C205.606 139.648 204.089 137.87 202.82 135.952C200.061 131.826 198.178 126.833 194.005 124.109C193.086 123.51 192.019 122.979 191.558 121.988C191.303 121.434 191.272 120.801 191.07 120.228C190.868 119.655 190.384 119.098 189.767 119.098C190.11 118.269 190.041 117.259 190.064 116.362C190.088 115.964 190.041 115.565 189.927 115.183C189.769 114.771 189.563 114.38 189.313 114.015C188.225 112.192 187.68 110.102 187.743 107.986C187.774 106.897 187.968 105.774 187.637 104.734C187.469 104.21 187.175 103.732 186.974 103.227C186.669 102.312 186.508 101.357 186.497 100.394L186.268 96.7725C186.234 95.5666 186.076 94.3672 185.796 93.1929C185.034 90.382 184.271 78.6072 181.661 77.2808C179.05 75.9545 174.565 85.0165 171.626 85.1936C170.327 85.2471 169.042 85.4922 167.815 85.9208C165.86 86.6442 164.222 87.9932 162.625 89.312L157.221 93.7996C156.077 94.7303 155.132 95.6195 153.871 96.2751Z" fill="#464353"/>
<path d="M127.933 19.4012C129.122 17.796 131.165 16.9445 133.177 16.8729C135.189 16.8013 137.171 17.4268 138.974 18.3122C139.506 18.6114 140.074 18.8419 140.666 18.998C141.618 19.1902 142.678 18.934 143.539 19.3748C144.682 19.9739 144.904 21.4999 144.804 22.766C144.705 24.032 144.465 25.4375 145.147 26.5339C145.389 26.8466 145.61 27.1752 145.807 27.5174C146.1 28.1692 145.929 28.9228 145.753 29.6124C145.307 29.2356 145.056 28.6666 144.66 28.2295C144.263 27.7924 143.573 27.4985 143.082 27.8263C142.59 28.1542 142.598 28.7495 142.571 29.2845C142.544 29.8196 142.407 30.4602 141.897 30.6335C141.683 30.6815 141.46 30.6651 141.256 30.5865C141.053 30.5079 140.877 30.3707 140.753 30.1926C139.881 29.1376 140.231 27.4533 139.366 26.3908C138.874 25.7879 138.055 25.494 137.602 24.861C137.243 24.3636 137.152 23.7306 136.839 23.1955C136.527 22.6605 135.799 22.2686 135.315 22.6379C135.15 22.7939 135.012 22.976 134.907 23.1767C134.605 23.6041 134.167 23.9184 133.662 24.0688C133.157 24.2192 132.615 24.197 132.125 24.0056C131.75 23.7782 131.345 23.6044 130.921 23.4894C130.643 23.4757 130.367 23.539 130.124 23.6721C129.881 23.8053 129.68 24.0031 129.545 24.243C129.271 24.7225 129.139 25.2681 129.164 25.818C129.164 26.5716 129.301 27.3742 128.867 27.9771C128.701 28.204 128.495 28.3983 128.257 28.5498C127.62 28.953 126.732 29.2243 126.146 28.7646C125.947 28.5814 125.799 28.3507 125.716 28.0947C125.633 27.8387 125.618 27.5659 125.673 27.3026C125.787 26.7782 125.937 26.262 126.123 25.7577C126.458 24.5897 126.02 23.2747 126.386 22.1744C126.769 21.1835 127.29 20.2502 127.933 19.4012Z" fill="#464353"/>
<path d="M132.762 45.9842C132.705 46.2588 132.734 46.5441 132.846 46.8018C132.959 46.9773 133.113 47.1233 133.295 47.2276C134.577 48.0169 136.035 48.484 137.541 48.5878C137.746 48.5913 137.947 48.643 138.128 48.7385C138.486 48.9721 138.509 49.4921 138.376 49.9066C138.198 50.2976 138.106 50.7213 138.105 51.15C138.216 51.9375 139.161 52.2804 139.957 52.3972C141.074 52.5366 142.297 52.465 143.181 51.7755C143.78 51.2354 144.237 50.559 144.511 49.8049C146.699 44.8349 147.465 39.3412 149.679 34.3864C149.847 34.0628 149.959 33.7139 150.011 33.3539C150.034 33.1738 150.008 32.9907 149.936 32.8237C149.864 32.6567 149.747 32.5119 149.599 32.4044C149.188 32.152 148.547 32.2952 148.269 31.8995C148.132 31.6998 148.147 31.4285 148.025 31.2175C147.77 30.7691 147.099 30.8407 146.642 30.5807C146.284 30.3923 146.036 30.0042 145.636 29.9289C145.439 29.9179 145.243 29.9524 145.062 30.0296C144.882 30.1067 144.722 30.2245 144.595 30.3735C143.296 31.5717 142.614 33.271 141.889 34.8762C140.784 37.3366 139.489 39.7099 138.017 41.975C138.189 41.7113 137.194 39.7143 136.805 39.6276C136.123 39.492 135.251 40.6751 134.881 41.1159C133.721 42.5065 132.986 44.1953 132.762 45.9842Z" fill="#6C63FF"/>
<path opacity="0.1" d="M146.607 30.9312C146.333 30.9357 146.064 31.001 145.819 31.1223C145.574 31.2436 145.36 31.4178 145.193 31.632C144.785 32.1557 144.705 32.849 144.602 33.516C144.255 35.6289 143.493 37.6541 142.357 39.4769" fill="black"/>
<path opacity="0.1" d="M148.55 32.4346C148.172 32.4429 147.803 32.5484 147.479 32.7406C147.155 32.9329 146.887 33.2053 146.702 33.531C146.45 34.1237 146.293 34.7518 146.237 35.3924C145.91 36.8128 145.28 38.1476 144.389 39.3073" fill="black"/>
<path d="M239.124 106.098V101.418C239.123 97.9734 237.738 94.6699 235.274 92.2342C232.81 89.7986 229.468 88.4303 225.984 88.4303H39.0555C35.5711 88.4303 32.2294 89.7986 29.7651 92.2342C27.3009 94.6699 25.916 97.9734 25.915 101.418V110.047L239.124 106.098Z" fill="#33323D"/>
<path d="M91.0576 82.9442C91.0576 82.9442 90.524 115.673 96.393 126.442C102.262 137.21 104.777 184.057 104.777 184.057C104.777 184.057 166.303 190.35 209.177 176.521C252.051 162.693 343.28 157.037 343.28 157.037L327.907 54.5903C327.907 54.5903 251.956 49.7748 208.75 70.1482C165.544 90.5215 91.0576 82.9442 91.0576 82.9442Z" fill="#8DD070"/>
<path opacity="0.1" d="M91.0576 82.9442C91.0576 82.9442 90.524 115.673 96.393 126.442C102.262 137.21 104.777 184.057 104.777 184.057C104.777 184.057 166.303 190.35 209.177 176.521C252.051 162.693 343.28 157.037 343.28 157.037L327.907 54.5903C327.907 54.5903 251.956 49.7748 208.75 70.1482C165.544 90.5215 91.0576 82.9442 91.0576 82.9442Z" fill="black"/>
<path d="M104.675 94.8999C104.675 94.8999 102.75 121.905 107.579 130.534C112.407 139.162 112.632 177.682 112.632 177.682C112.632 177.682 168.003 180.222 207.39 166.966C246.777 153.71 329.546 145.112 329.546 145.112L320.14 61.3311C320.14 61.3311 251.655 60.6341 211.685 79.293C171.715 97.9519 104.675 94.8999 104.675 94.8999Z" fill="#90EE90"/>
<path opacity="0.1" d="M211.076 151.626C218.954 150.656 223.635 136.327 221.53 119.621C219.426 102.914 211.333 90.158 203.455 91.1282C195.576 92.0984 190.896 106.428 193 123.134C195.105 139.84 203.198 152.596 211.076 151.626Z" fill="black"/>
<path opacity="0.2" d="M286.266 4.68359C286.266 4.68359 212.481 23.1466 177.686 55.6453C142.891 88.144 69.6426 103.532 69.6426 103.532C69.6426 103.532 79.2921 134.84 88.2176 143.311C97.1431 151.781 114.072 195.61 114.072 195.61C114.072 195.61 174.58 182.927 211.09 156.747C247.599 130.567 332.689 97.5036 332.689 97.5036L286.266 4.68359Z" fill="black"/>
<path d="M68.5342 98.8449C68.5342 98.8449 78.1799 130.157 87.0978 138.627C96.0156 147.097 112.952 190.923 112.952 190.923C112.952 190.923 173.468 178.243 209.981 152.064C246.495 125.884 331.577 92.8313 331.577 92.8313L285.154 0C285.154 0 211.372 18.463 176.577 50.9617C141.783 83.4603 68.5342 98.8449 68.5342 98.8449Z" fill="#8DD070"/>
<path opacity="0.1" d="M68.5342 98.8449C68.5342 98.8449 78.1799 130.157 87.0978 138.627C96.0156 147.097 112.952 190.923 112.952 190.923C112.952 190.923 173.468 178.243 209.981 152.064C246.495 125.884 331.577 92.8313 331.577 92.8313L285.154 0C285.154 0 211.372 18.463 176.577 50.9617C141.783 83.4603 68.5342 98.8449 68.5342 98.8449Z" fill="black"/>
<path d="M85.1924 106.094C85.1924 106.094 91.7436 132.384 99.0189 139.128C106.294 145.873 118.455 182.46 118.455 182.46C118.455 182.46 171.939 168.074 205.313 143.507C238.686 118.939 314.801 85.6797 314.801 85.6797L279.849 8.76807C279.849 8.76807 214.456 28.8777 182.203 58.7651C149.95 88.6526 85.1924 106.094 85.1924 106.094Z" fill="#90EE90"/>
<path opacity="0.1" d="M204.079 127.801C211.276 124.487 211.283 109.429 204.095 94.1677C196.907 78.9061 185.245 69.2204 178.048 72.534C170.851 75.8476 170.844 90.9058 178.032 106.167C185.22 121.429 196.882 131.115 204.079 127.801Z" fill="black"/>
<path opacity="0.1" d="M244.17 110.691V240.686C244.17 242.162 243.876 243.624 243.305 244.988C242.733 246.352 241.895 247.591 240.839 248.635C239.783 249.679 238.529 250.507 237.15 251.071C235.77 251.636 234.291 251.926 232.798 251.926H37.2913C34.2769 251.925 31.3863 250.74 29.2551 248.633C27.124 246.525 25.9268 243.666 25.9268 240.686V97.5864C31.529 99.6437 31.529 99.6437 37.2913 99.4704H232.798C235.81 99.4704 238.699 100.652 240.831 102.756C242.963 104.859 244.164 107.713 244.17 110.691Z" fill="black"/>
<path d="M244.17 112.346V242.34C244.169 245.322 242.971 248.18 240.838 250.288C238.706 252.396 235.814 253.58 232.798 253.58H37.2913C34.2769 253.579 31.3863 252.394 29.2551 250.287C27.124 248.179 25.9268 245.321 25.9268 242.34V99.2368C31.529 101.29 31.529 101.29 37.2913 101.121H232.798C235.811 101.121 238.701 102.303 240.833 104.407C242.965 106.512 244.165 109.367 244.17 112.346Z" fill="#4682B3"/>
<path opacity="0.1" d="M243.613 160.406V201.978H202.835C197.308 201.904 192.033 199.682 188.151 195.792C184.269 191.902 182.093 186.657 182.093 181.192C182.093 175.727 184.269 170.482 188.151 166.592C192.033 162.702 197.308 160.479 202.835 160.406H243.613Z" fill="black"/>
<path d="M244.17 159.298V200.878H203.392C197.865 200.804 192.59 198.582 188.708 194.692C184.826 190.801 182.649 185.556 182.649 180.092C182.649 174.627 184.826 169.382 188.708 165.492C192.59 161.602 197.865 159.379 203.392 159.306L244.17 159.298Z" fill="#104672"/>
<path opacity="0.1" d="M205.347 189.299C209.874 189.299 213.545 185.67 213.545 181.194C213.545 176.718 209.874 173.089 205.347 173.089C200.82 173.089 197.149 176.718 197.149 181.194C197.149 185.67 200.82 189.299 205.347 189.299Z" fill="black"/>
<path d="M205.904 188.198C210.431 188.198 214.101 184.57 214.101 180.094C214.101 175.617 210.431 171.989 205.904 171.989C201.376 171.989 197.706 175.617 197.706 180.094C197.706 184.57 201.376 188.198 205.904 188.198Z" fill="#909090"/>
<path d="M314.952 158.94C315.276 162.41 312.62 165.779 313.393 169.178C313.561 169.905 313.877 170.591 313.992 171.325C314.312 173.345 313.096 175.255 311.934 176.943L301.949 191.427C301.549 192.064 301.07 192.649 300.524 193.168C298.618 194.849 295.752 194.675 293.244 195.177C291.482 195.53 289.817 196.258 288.366 197.309C288.306 197.361 288.267 197.433 288.259 197.511C288.25 197.59 288.272 197.668 288.321 197.731C288.735 198.289 289.284 198.736 289.918 199.03C290.552 199.324 291.25 199.457 291.949 199.416C292.212 199.758 291.949 200.26 291.568 200.504C291.03 200.881 290.295 200.972 290.188 201.868C290.15 202.181 290.214 202.498 290.371 202.773C290.773 203.382 291.399 203.813 292.116 203.975C295.573 205.019 299.308 203.184 301.896 200.685C304.483 198.187 306.339 195.033 308.877 192.49C310.284 191.085 311.88 189.879 313.329 188.515C316.217 185.794 318.462 182.486 320.631 179.174C321.282 178.176 321.938 177.151 322.212 175.994C322.487 174.837 322.357 173.669 322.666 172.55C323.07 171.08 324.156 169.912 325.059 168.68C326.831 166.269 328.013 163.318 327.78 160.349C327.548 157.38 325.684 154.445 322.849 153.435C321.97 153.086 321.001 153.028 320.086 153.269C318.923 153.624 318.066 154.573 317.273 155.481L315.368 157.648C314.892 158.123 314.517 158.686 314.262 159.306C314.14 159.616 314.111 159.956 314.179 160.282C314.246 160.609 314.408 160.91 314.644 161.148" fill="#FBBEBE"/>
<path opacity="0.05" d="M314.952 158.94C315.276 162.41 312.62 165.779 313.393 169.178C313.561 169.905 313.877 170.591 313.992 171.325C314.312 173.345 313.096 175.255 311.934 176.943L301.949 191.427C301.549 192.064 301.07 192.649 300.524 193.168C298.618 194.849 295.752 194.675 293.244 195.177C291.482 195.53 289.817 196.258 288.366 197.309C288.306 197.361 288.267 197.433 288.259 197.511C288.25 197.59 288.272 197.668 288.321 197.731C288.735 198.289 289.284 198.736 289.918 199.03C290.552 199.324 291.25 199.457 291.949 199.416C292.212 199.758 291.949 200.26 291.568 200.504C291.03 200.881 290.295 200.972 290.188 201.868C290.15 202.181 290.214 202.498 290.371 202.773C290.773 203.382 291.399 203.813 292.116 203.975C295.573 205.019 299.308 203.184 301.896 200.685C304.483 198.187 306.339 195.033 308.877 192.49C310.284 191.085 311.88 189.879 313.329 188.515C316.217 185.794 318.462 182.486 320.631 179.174C321.282 178.176 321.938 177.151 322.212 175.994C322.487 174.837 322.357 173.669 322.666 172.55C323.07 171.08 324.156 169.912 325.059 168.68C326.831 166.269 328.013 163.318 327.78 160.349C327.548 157.38 325.684 154.445 322.849 153.435C321.97 153.086 321.001 153.028 320.086 153.269C318.923 153.624 318.066 154.573 317.273 155.481L315.368 157.648C314.892 158.123 314.517 158.686 314.262 159.306C314.14 159.616 314.111 159.956 314.179 160.282C314.246 160.609 314.408 160.91 314.644 161.148" fill="black"/>
<path d="M322.51 248.278C320.33 249.594 317.613 249.673 315.078 249.367C314.671 249.318 314.187 249.288 313.935 249.601C313.554 250.053 314.004 250.731 314.469 251.082C315.963 252.192 317.72 252.906 319.572 253.158C321.225 253.39 322.894 253.499 324.564 253.486C329.137 253.565 333.711 253.64 338.211 252.992C338.478 252.972 338.738 252.898 338.974 252.774C339.264 252.572 339.466 252.269 339.538 251.926C339.846 250.765 339.252 249.522 338.353 248.716C337.453 247.909 336.298 247.461 335.17 247.028L331.207 245.502C330.277 245.144 328.787 244.194 327.777 244.269C325.879 244.405 324.084 247.367 322.51 248.278Z" fill="#3F3D56"/>
<path opacity="0.05" d="M322.51 248.278C320.33 249.594 317.613 249.673 315.078 249.367C314.671 249.318 314.187 249.288 313.935 249.601C313.554 250.053 314.004 250.731 314.469 251.082C315.963 252.192 317.72 252.906 319.572 253.158C321.225 253.39 322.894 253.499 324.564 253.486C329.137 253.565 333.711 253.64 338.211 252.992C338.478 252.972 338.738 252.898 338.974 252.774C339.264 252.572 339.466 252.269 339.538 251.926C339.846 250.765 339.252 249.522 338.353 248.716C337.453 247.909 336.298 247.461 335.17 247.028L331.207 245.502C330.277 245.144 328.787 244.194 327.777 244.269C325.879 244.405 324.084 247.367 322.51 248.278Z" fill="black"/>
<path d="M325.288 196.258C323.638 198.428 321.931 200.934 322.338 203.621C322.559 205.067 323.379 206.345 323.981 207.682C324.797 209.499 325.223 211.45 325.643 213.395C326.26 216.236 326.881 219.084 327.258 221.971C327.689 225.23 325.665 234.661 325.479 237.943C325.433 238.734 325.338 239.59 324.781 240.159C324.564 240.385 324.274 240.565 324.175 240.859C324.117 241.143 324.165 241.437 324.309 241.688C325.239 243.761 327.14 245.306 329.263 246.187C331.386 247.069 336.504 248.591 338.817 248.67C339.122 248.704 339.431 248.663 339.717 248.554C340.025 248.368 340.267 248.093 340.41 247.766C342.068 244.631 340.475 233.485 340.498 229.947C340.521 226.997 341.226 224.066 341.096 221.119C340.99 218.753 340.334 216.439 340.117 214.08C339.736 210.215 340.452 206.33 341.173 202.509C341.721 199.578 342.274 196.646 342.979 193.752C343.41 191.985 343.909 190.203 344.885 188.669C345.647 187.452 346.718 186.435 347.606 185.278C350.07 182.083 351.165 178.058 350.654 174.072C350.601 173.695 344.938 175.493 344.439 175.708C342.402 176.56 340.527 177.752 338.897 179.231C337.586 180.466 336.554 182.117 335.406 183.5C333.783 185.457 332.18 187.427 330.597 189.412C328.791 191.68 327.021 193.962 325.288 196.258Z" fill="#464353"/>
<path opacity="0.05" d="M325.288 196.126C323.638 198.296 321.931 200.806 322.338 203.489C322.559 204.939 323.379 206.217 323.981 207.554C324.797 209.367 325.223 211.322 325.643 213.263C326.26 216.108 326.881 218.956 327.258 221.839C327.689 225.102 325.665 234.529 325.479 237.811C325.433 238.602 325.338 239.461 324.781 240.03C324.564 240.253 324.274 240.434 324.175 240.727C324.117 241.011 324.164 241.305 324.309 241.556C325.239 243.633 327.14 245.174 329.263 246.078C331.386 246.982 336.504 247.77 338.817 247.845C339.122 247.878 339.431 247.838 339.717 247.728C340.025 247.545 340.268 247.271 340.41 246.945C342.068 243.81 340.475 233.38 340.498 229.838C340.521 226.884 341.226 223.956 341.096 221.006C340.99 218.64 340.334 216.326 340.117 213.971C339.736 210.101 340.452 206.217 341.173 202.396C341.721 199.468 342.274 196.537 342.979 193.639C343.41 191.872 343.909 190.09 344.885 188.556C345.647 187.339 346.718 186.322 347.606 185.165C350.071 181.971 351.166 177.945 350.655 173.959C350.601 173.582 344.938 175.38 344.439 175.595C342.402 176.45 340.528 177.643 338.897 179.121C337.586 180.353 336.554 182.004 335.406 183.387C333.783 185.343 332.18 187.315 330.597 189.302C328.791 191.553 327.021 193.828 325.288 196.126Z" fill="black"/>
<path d="M306.927 148.458C312.035 148.458 316.177 144.363 316.177 139.313C316.177 134.262 312.035 130.168 306.927 130.168C301.819 130.168 297.678 134.262 297.678 139.313C297.678 144.363 301.819 148.458 306.927 148.458Z" fill="#FBBEBE"/>
<path d="M315.258 138.928C316.112 140.276 317.233 141.44 318.552 142.35C319.871 143.26 321.363 143.898 322.937 144.226L322.239 146.732C321.035 151.035 319.682 155.587 316.321 158.571C316.702 157.113 316.214 155.556 315.383 154.29C314.553 153.024 313.386 152.03 312.243 151.046L306.919 146.487C306.765 146.363 306.636 146.213 306.538 146.042C306.407 145.721 306.407 145.362 306.538 145.04C307.216 142.953 309.152 141.649 310.73 140.24C311.522 139.511 312.229 138.697 312.838 137.813C313.901 136.314 314.56 137.821 315.258 138.928Z" fill="#FBBEBE"/>
<path d="M294.743 130.119L294.534 128.401C295.993 128.778 297.38 127.549 298.314 126.279C299.248 125.01 300.113 123.514 301.534 122.983C303.261 122.342 305.09 123.359 306.74 124.218C308.588 125.232 310.615 125.884 312.712 126.14C313.047 126.151 313.378 126.204 313.699 126.298C314.774 126.675 315.285 128.009 315.441 129.218C315.597 130.428 315.555 131.713 316.085 132.791C316.466 133.608 317.175 134.215 317.609 135.021C318.753 137.184 317.648 140.142 318.84 142.263L315.875 139.577C315.605 139.332 315.224 139.075 314.923 139.283C314.686 139.448 314.667 139.806 314.572 140.093C314.286 140.929 313.227 141.178 312.461 140.846C311.695 140.515 311.135 139.795 310.555 139.14C309.244 137.61 307.682 136.265 305.852 135.613C305.051 135.316 304.194 135.192 303.34 135.248C302.486 135.304 301.653 135.539 300.898 135.937C299.515 136.709 298.501 138.51 296.805 138.574C294.48 138.661 293.512 134.381 292.438 132.689C292.831 132.396 293.107 131.976 293.219 131.502C293.33 131.028 293.27 130.531 293.047 130.096C293.204 130.032 294.709 129.855 294.743 130.119Z" fill="#464353"/>
<path d="M180.339 76.6554C179.596 77.3089 178.909 78.0222 178.285 78.788C177.657 79.5645 177.322 80.5333 177.339 81.5273C177.343 81.8156 177.436 82.0959 177.606 82.3299C177.693 82.4419 177.814 82.5243 177.95 82.5655C178.087 82.6067 178.233 82.6047 178.368 82.5597C178.522 82.4826 178.653 82.3685 178.75 82.2282C179.152 81.7496 179.58 81.2918 180.03 80.8566C180.194 80.6946 180.411 80.5251 180.632 80.5853C180.731 80.6201 180.82 80.6783 180.891 80.7549C181.148 80.974 181.334 81.262 181.429 81.5838C181.562 82.1603 181.223 82.7368 180.838 83.189C180.453 83.6412 180 84.0745 179.843 84.6434C179.784 84.7937 179.784 84.9604 179.843 85.1107C179.917 85.2194 180.02 85.3055 180.141 85.3593C180.686 85.6564 181.292 85.8313 181.913 85.8717C182.535 85.9121 183.158 85.8169 183.738 85.593C184.5 85.2878 185.179 84.764 185.964 84.4927C186.304 84.4007 186.633 84.2745 186.947 84.1159C187.172 83.9681 187.365 83.7778 187.514 83.556C187.664 83.3342 187.768 83.0852 187.82 82.8235C187.919 82.3005 187.938 81.7658 187.877 81.2372C187.782 79.1903 187.339 77.1738 186.566 75.2725C186.521 75.1499 186.445 75.0408 186.345 74.956C186.23 74.8869 186.098 74.8516 185.964 74.8543C184.988 74.7525 183.388 74.2589 182.446 74.6169C182.117 74.7954 181.833 75.0453 181.616 75.3479C181.44 75.54 180.339 76.4029 180.339 76.6554Z" fill="#A1616A"/>
<path d="M180.03 75.8039C180.03 74.8845 178.887 72.6652 180.705 72.5182C180.705 71.5348 179.299 70.9244 179.561 69.8806C179.645 69.534 179.943 69.2514 179.977 68.8972C180.091 67.8911 178.254 67.3448 178.559 66.3802C178.673 66.0034 179.077 65.7849 179.165 65.4118C179.371 64.5414 177.797 64.1533 177.766 63.2603C177.766 62.9589 177.938 62.6763 177.923 62.3748C177.923 61.998 177.591 61.7117 177.408 61.3839C176.932 60.5436 177.164 59.2437 176.295 58.8104C176.871 58.8593 177.058 58.0153 176.821 57.4991C176.585 56.9829 176.101 56.5345 176.097 55.9618C176.126 55.7542 176.126 55.5438 176.097 55.3363C175.937 54.7862 175.026 54.741 174.874 54.2059C174.854 54.0005 174.848 53.7941 174.855 53.588C174.794 53.1622 174.352 52.8909 173.936 52.7703C173.505 52.6979 173.09 52.5512 172.709 52.337C172.442 52.1373 172.134 51.8057 171.848 51.9602C171.741 52.0243 171.688 52.1448 171.608 52.2353C171.265 52.6309 170.609 52.4576 170.179 52.1674C168.906 51.3121 168.273 49.7786 168.003 48.2827C167.732 46.7868 167.74 45.2419 167.4 43.7611C167.297 43.2996 167.159 42.8463 166.989 42.4047C166.844 42.0279 166.379 41.4363 166.349 41.0557C166.28 40.1891 168.094 40.7807 168.784 40.8673C169.454 40.932 170.116 41.0581 170.762 41.2441C171.451 41.5017 172.127 41.7947 172.785 42.1221C175.537 43.324 178.86 43.471 181.071 45.4906C181.799 46.1538 182.412 47.0242 183.357 47.3256C183.791 47.4078 184.218 47.5173 184.638 47.6534C185.686 48.1395 185.85 49.5148 186.421 50.5095C186.601 50.7722 186.758 51.0495 186.89 51.3385C187 51.6793 187.052 52.0359 187.043 52.3935L187.123 55.0047C187.252 59.3793 187.382 63.7652 186.909 68.1135C186.757 69.549 186.528 71.0261 186.959 72.4052C187.073 72.782 187.233 73.1361 187.34 73.5167C187.434 73.9629 187.483 74.4174 187.485 74.8732L187.546 76.565C187.567 76.6965 187.537 76.8312 187.462 76.9418C187.398 76.9929 187.324 77.0293 187.244 77.0482C187.164 77.0671 187.081 77.0681 187.001 77.0511C184.619 76.8401 182.21 75.5137 179.962 76.3163" fill="#464353"/>
<path d="M288.728 205.798C304.295 205.798 316.915 203.995 316.915 201.771C316.915 199.546 304.295 197.743 288.728 197.743C273.162 197.743 260.542 199.546 260.542 201.771C260.542 203.995 273.162 205.798 288.728 205.798Z" fill="#504F60"/>
<path d="M312.979 201.966C312.483 199.868 312.174 198.025 312.174 198.025C312.174 198.025 312.289 195.742 311.252 194.027V193.455V189.235C311.547 188.468 311.908 187.728 312.331 187.023C313.093 185.696 312.331 180.836 312.331 180.836C312.331 180.836 309.484 173.982 310.174 169.634C310.863 165.285 304.328 150.327 304.328 150.327C304.368 148.884 304.574 147.45 304.941 146.054C305.011 145.76 305.039 145.458 305.025 145.157C305.025 145.119 305.025 145.085 305.025 145.048C305.025 145.01 305.025 145.07 305.025 145.082C304.926 142.214 302.632 136.841 302.632 136.841L302.94 126.6C302.94 126.6 304.404 120.571 302.018 112.451C301.183 109.621 300.65 107.357 300.311 105.608C300.273 105.412 300.234 105.232 300.204 105.039C305.116 104.286 308.87 103.683 308.87 103.683C308.87 103.683 306.02 91.893 304.095 89.8282C302.17 87.7633 300.631 81.2787 300.631 81.2787C300.631 81.2787 299.628 72.9552 301.248 70.5211C302.868 68.087 303.097 63.8895 303.097 63.8895C303.097 63.8895 306.789 61.2519 307.254 60.0575C307.719 58.8631 308.485 56.2255 308.485 54.8276C308.485 53.4297 308.024 52.19 308.177 51.4364C308.329 50.6828 307.098 47.8983 307.716 46.572C307.875 46.1645 307.958 45.7316 307.959 45.2946C307.961 45.2821 307.961 45.2695 307.959 45.257C307.965 44.0963 307.857 42.9379 307.635 41.798C306.567 40.9061 305.32 40.2474 303.977 39.865L303.897 39.5485L303.687 38.7195C303.57 38.6431 303.449 38.5727 303.325 38.5085V38.2071L303.291 37.0089L303.87 34.3186C305.013 29.6388 298.691 28.9417 298.691 28.9417C298.308 28.2238 297.67 27.6711 296.9 27.3893C295.631 26.9484 296.69 34.4278 297.281 34.9252C297.727 35.302 299.106 37.6306 299.773 38.7836L299.88 38.972C299.776 39.0648 299.679 39.1656 299.59 39.2734L299.83 40.8974L299.869 41.1461C299.45 41.6606 299.109 42.2331 298.859 42.8455C298.859 42.8455 300.002 44.0964 299.785 45.483C299.568 46.8696 300.139 48.6293 300.166 48.7235C300.097 48.6443 299.285 47.7777 298.474 47.9887C297.662 48.1997 295.394 48.8742 295.394 48.8742C295.394 48.8742 293.702 49.1681 293.87 49.5374C294.038 49.9066 292.727 51.5268 292.727 51.5268L288.176 47.2615C288.131 47.1334 288.081 47.0053 288.043 46.8847C287.857 46.2697 287.73 45.639 287.662 45.0007C288.158 44.8842 288.644 44.7318 289.118 44.5448C289.596 44.3825 290.027 44.1085 290.375 43.746C290.836 43.2072 290.924 42.4762 291.111 41.8055C291.469 40.4942 292.254 39.33 292.799 38.0828C293.722 35.9753 294.019 33.6517 293.657 31.3833C293.587 30.6843 293.347 30.0122 292.959 29.424C292.216 28.4142 290.867 28.0035 289.887 27.1971C288.908 26.3908 288.275 25.1586 287.132 24.5595C286.099 24.0132 284.845 24.0772 283.679 24.2656C281.402 24.637 279.214 25.4241 277.227 26.5867C276.564 26.9635 275.832 27.427 275.07 27.2875C274.415 27.1707 273.927 26.6545 273.515 26.1572C273.52 26.1366 273.526 26.1164 273.534 26.0969C273.516 26.0785 273.499 26.0583 273.485 26.0366C273.002 27.0948 272.76 28.2446 272.776 29.4051C272.776 29.586 272.776 29.7819 272.799 29.944V30.1324C272.799 30.1851 272.799 30.2379 272.799 30.2868C272.799 30.3672 272.787 30.4471 272.764 30.5242C272.668 30.7547 272.523 30.9617 272.338 31.1309C272.198 31.288 272.07 31.4555 271.956 31.632C271.956 31.5717 271.995 31.5114 272.017 31.4474C271.727 31.8669 271.563 32.3596 271.545 32.8679C271.524 33.2379 271.646 33.6019 271.888 33.8852C272.116 34.1043 272.365 34.3011 272.631 34.4731C272.54 34.9705 272.495 35.4748 272.494 35.9802C272.502 37.4786 272.902 38.9494 273.654 40.2504C274.405 41.5514 275.484 42.6386 276.785 43.4069C276.838 43.5312 276.888 43.6593 276.938 43.7837C277.521 45.2909 277.959 47.0618 277.764 48.682C277.764 48.7988 277.73 48.9194 277.711 49.0362C277.692 49.153 277.597 49.1606 277.547 49.2246C277.547 49.2246 270.028 49.3 268.26 47.7174C266.491 46.1349 263.793 51.5871 263.793 51.5871C263.793 51.5871 261.099 52.1033 260.558 51.5871C260.016 51.0709 256.865 51.5155 256.865 51.5155C255.573 50.3802 253.893 49.7738 252.166 49.82C251.119 49.0336 249.964 48.3991 248.736 47.936L248.652 47.9058C248.11 47.7105 247.53 47.6383 246.956 47.6948C246.956 47.6948 243.259 44.6805 242.181 43.0527C241.102 41.4249 235.969 35.415 235.946 35.3887V35.0985L235.889 34.2244C235.736 34.248 235.582 34.2606 235.428 34.262C235.401 34.1754 235.363 34.0736 235.325 33.9568C235.029 33.1042 234.664 32.2763 234.235 31.4813C234.235 31.4813 234.235 30.3773 234.559 30.0984C234.883 29.8196 234.425 25.7691 234.425 25.7691C234.425 25.7691 231.094 18.0711 228.11 23.8173C228.11 23.8173 222.47 27.5362 227.203 31.8694C227.203 31.8694 229.109 32.7737 229.36 33.4896C229.536 33.9531 230.176 35.253 230.607 36.1272L230.801 36.504L230.748 36.5492L230.816 37.2726L230.847 37.5515C229.955 38.0526 229.349 38.55 229.498 38.923C229.76 39.5613 229.941 40.2297 230.035 40.9125C230.035 40.9125 236.582 49.0211 237.428 52.4839C237.428 52.4839 254.986 62.8006 260.76 63.5353L259.738 68.6786C259.589 70.0742 259.513 71.4765 259.51 72.8799C259.586 73.9839 258.816 78.9953 258.816 78.9953C258.816 78.9953 257.814 86.3654 256.968 87.3978C256.122 88.4303 256.274 92.8501 256.274 92.8501C256.074 94.9659 255.692 97.061 255.131 99.1124C254.285 101.912 254.898 105.379 254.898 105.379C254.898 105.379 251.975 112.01 258.98 107.515C258.98 107.515 262.41 107.304 266.381 107.168C266.381 107.296 266.381 107.428 266.381 107.545C266.381 108.05 266.381 108.596 266.354 109.169C266.301 112.967 266.278 118.212 266.453 122.161C266.762 129.162 268.919 143.017 268.919 143.017V149.991C268.78 150.645 268.711 151.312 268.713 151.981C268.668 154.435 269.329 156.851 270.619 158.948L271.16 163.59C271.16 163.59 272.425 166.649 272.448 168.488C272.443 168.636 272.425 168.784 272.395 168.929C272.345 169.163 272.325 169.402 272.334 169.641C272.261 171.751 273.546 176.8 273.546 176.8C273.546 176.8 273.622 181.883 274.392 182.181C275.051 182.433 273.511 185.109 273.054 185.877C273.042 185.83 273.033 185.782 273.027 185.734L272.932 185.885C272.773 186.296 272.692 186.733 272.692 187.173C272.649 187.521 272.706 187.873 272.857 188.189C273.008 188.505 273.247 188.772 273.546 188.959C275.009 189.845 275.794 190.58 274.552 190.874C274.095 190.944 273.642 191.038 273.195 191.156C273.195 191.1 273.149 191.039 273.13 190.987C272.955 191.054 272.809 191.18 272.716 191.342C272.624 191.504 272.591 191.693 272.623 191.876C272.635 192.474 272.791 193.06 273.077 193.587C274.308 196.315 275.162 197.354 275.162 197.354L275.752 197.29C275.665 197.514 275.55 197.725 275.409 197.92C275.184 198.236 274.887 198.494 274.54 198.673C274.218 198.864 273.858 198.986 273.485 199.031C273.067 199.045 272.657 199.145 272.282 199.325C271.906 199.506 271.573 199.763 271.305 200.079C270.543 201.062 270.055 202.4 271.572 203.575L277.079 205.459C277.079 205.459 286.553 206.676 286.05 204.574C285.547 202.471 285.242 200.633 285.242 200.633C285.282 199.349 285.022 198.073 284.48 196.906C284.38 196.716 284.268 196.532 284.144 196.356L284.48 196.322C284.48 196.322 285.173 191.676 286.095 190.794C286.309 190.591 286.358 190.418 286.309 190.312C286.404 190.06 286.16 189.913 285.852 189.826L285.783 190.011C285.481 189.946 285.173 189.912 284.864 189.909C284.864 189.909 284.556 187.479 285.558 186.593C285.639 186.492 285.698 186.376 285.731 186.251C285.765 186.127 285.772 185.997 285.752 185.87C285.76 185.536 285.724 185.203 285.646 184.879C285.636 184.9 285.624 184.92 285.611 184.939C285.108 182.731 283.401 179.223 283.401 179.223C283.401 179.223 283.325 177.015 283.942 176.13C284.56 175.244 283.862 164.117 283.862 164.117C283.862 164.117 284.095 158.74 283.401 156.235C282.707 153.729 284.247 150.779 284.247 150.779C284.247 150.779 284.247 150.722 284.247 150.62V150.583L284.159 149.735C284.157 149.753 284.157 149.77 284.159 149.788C284.003 148.363 283.71 145.782 283.493 144.592C283.184 142.896 283.573 134.795 283.573 134.795L284.956 131.328L287.422 137.301L290.04 145.259C290.04 145.259 291.336 146.939 291.366 148.65C291.366 148.733 291.366 148.816 291.366 148.899C291.345 149.075 291.335 149.252 291.336 149.43C291.289 150.435 291.568 151.429 292.132 152.267C292.132 152.267 292.826 156.035 293.904 156.981C294.983 157.927 294.983 159.78 294.983 159.78C294.983 159.78 296.29 165.236 296.888 166.186C297.407 166.992 297.433 169.2 297.43 169.89C297.43 170.014 297.43 170.086 297.43 170.086C297.43 170.086 297.612 172.038 297.605 173.673C297.605 173.876 297.605 174.072 297.605 174.257C297.607 174.243 297.607 174.229 297.605 174.215C297.604 174.662 297.551 175.107 297.445 175.542L297.422 175.617C297.422 175.523 297.422 175.432 297.449 175.342C297.181 176.453 297.053 177.592 297.067 178.733C297.033 180.693 297.334 183.014 298.535 184.385C300.616 186.744 301.923 186.45 301.923 186.45C301.923 186.45 300.924 189.397 299.689 189.988C299.643 190.01 299.599 190.038 299.56 190.071C299.56 190.011 299.537 189.954 299.529 189.898C299.392 190.045 299.287 190.218 299.221 190.408C299.155 190.597 299.131 190.798 299.148 190.998C299.061 192.294 299.888 194.389 300.673 195.365C300.964 195.647 301.322 195.854 301.713 195.968C301.651 196.011 301.586 196.05 301.519 196.085C301.382 196.159 301.24 196.226 301.096 196.284C300.895 196.369 300.683 196.423 300.467 196.446C300.049 196.457 299.638 196.557 299.262 196.737C298.887 196.918 298.554 197.176 298.287 197.494C297.525 198.474 297.037 199.811 298.554 200.987L304.061 202.871C304.061 202.871 313.474 204.065 312.979 201.966Z" fill="url(#paint0_linear)"/>
<path d="M276.808 205.448L271.472 203.564C270.001 202.388 270.47 201.051 271.213 200.067C271.469 199.754 271.79 199.498 272.154 199.317C272.518 199.137 272.917 199.035 273.325 199.02C273.686 198.974 274.033 198.852 274.342 198.662C274.68 198.48 274.97 198.222 275.188 197.908C275.578 197.298 275.787 196.592 275.794 195.87C275.794 195.87 281.648 194.174 283.249 195.87C283.534 196.177 283.773 196.523 283.958 196.899C284.489 198.069 284.75 199.342 284.72 200.625C284.72 200.625 285.017 202.464 285.501 204.566C285.985 206.669 276.808 205.448 276.808 205.448Z" fill="#2D293D"/>
<path d="M302.891 202.848L297.555 200.964C296.084 199.789 296.553 198.451 297.296 197.471C297.55 197.156 297.87 196.9 298.234 196.719C298.598 196.538 298.997 196.437 299.404 196.424C299.615 196.402 299.82 196.348 300.014 196.262C300.155 196.203 300.292 196.136 300.425 196.062C301.915 195.252 301.877 193.263 301.877 193.263C301.877 193.263 307.727 191.567 309.332 193.263C309.546 193.492 309.734 193.745 309.892 194.016C310.894 195.731 310.784 198.018 310.784 198.018C310.784 198.018 311.081 199.86 311.546 201.959C312.011 204.058 302.891 202.848 302.891 202.848Z" fill="#2D293D"/>
<path opacity="0.1" d="M283.253 195.866C283.539 196.173 283.777 196.52 283.962 196.895L275.196 197.901C275.586 197.29 275.795 196.584 275.802 195.862C275.802 195.862 281.652 194.171 283.253 195.866Z" fill="black"/>
<path opacity="0.1" d="M309.899 194.024V195.648C308.534 197.867 301.937 197.381 300.021 196.269C300.161 196.211 300.299 196.144 300.432 196.07C301.922 195.26 301.884 193.27 301.884 193.27C301.884 193.27 307.734 191.574 309.339 193.27C309.553 193.5 309.741 193.753 309.899 194.024Z" fill="black"/>
<path d="M310.939 187.023C310.531 187.73 310.183 188.47 309.899 189.235V195.056C308.405 197.486 300.657 196.676 299.609 195.35C298.561 194.024 297.467 190.572 298.645 189.973C299.822 189.374 300.806 186.435 300.806 186.435C300.806 186.435 299.536 186.729 297.524 184.37C295.512 182.011 296.11 176.781 296.484 175.53C296.857 174.279 296.484 170.078 296.484 170.078C296.484 170.078 296.56 167.128 295.965 166.171C295.371 165.214 294.102 159.765 294.102 159.765C294.102 159.765 294.102 157.923 293.058 156.966C292.013 156.009 291.343 152.248 291.343 152.248C290.732 151.309 290.47 150.189 290.6 149.079C290.821 147.237 289.33 145.247 289.33 145.247L286.796 137.286L284.41 131.317L283.069 134.78C283.069 134.78 282.688 142.885 282.997 144.577C283.305 146.268 283.759 150.767 283.759 150.767C283.759 150.767 282.269 153.714 282.939 156.22C283.61 158.725 283.366 164.11 283.366 164.11C283.366 164.11 284.037 175.233 283.439 176.118C282.84 177.004 282.916 179.216 282.916 179.216C282.916 179.216 285.965 185.696 285.005 186.582C284.045 187.467 284.334 189.898 284.334 189.898C284.334 189.898 286.419 189.898 285.527 190.783C284.635 191.669 283.961 196.311 283.961 196.311L274.948 197.354C274.948 197.354 274.124 196.326 272.931 193.587C271.739 190.847 273.153 191.156 274.353 190.859C275.553 190.561 274.795 189.83 273.377 188.944C271.96 188.059 272.783 186.069 272.783 186.069C272.783 186.069 274.944 182.46 274.197 182.166C273.45 181.872 273.377 176.785 273.377 176.785C273.377 176.785 271.887 170.756 272.261 169.121C272.634 167.486 271.068 163.597 271.068 163.597L270.546 158.955C268.951 156.321 268.369 153.207 268.907 150.183V143.024C268.907 143.024 266.819 129.173 266.521 122.172C266.331 117.688 266.384 111.569 266.445 107.752C266.483 105.612 266.521 104.192 266.521 104.192L298.717 100.876C298.717 100.876 298.687 102.345 299.3 105.605C299.632 107.353 300.146 109.618 300.954 112.447C303.264 120.552 301.85 126.592 301.85 126.592L301.549 136.837C301.549 136.837 304.38 143.687 303.786 146.046C303.426 147.447 303.224 148.882 303.184 150.327C303.184 150.327 309.518 165.285 308.847 169.634C308.176 173.982 310.932 180.836 310.932 180.836C310.932 180.836 311.686 185.696 310.939 187.023Z" fill="#464353"/>
<path opacity="0.05" d="M292.532 148.635L302.334 147.342C302.334 147.342 296.782 152.945 292.532 148.635Z" fill="black"/>
<path opacity="0.1" d="M300.916 137.873C300.916 137.873 301.252 141.302 299.129 142.591C299.129 142.591 302.928 142.003 300.916 137.873Z" fill="black"/>
<path opacity="0.1" d="M300.315 126.969C300.315 126.969 292.121 133.638 289.141 133.084C286.161 132.531 300.315 126.969 300.315 126.969Z" fill="black"/>
<path opacity="0.1" d="M280.383 151.762C280.383 151.762 274.159 153.16 273.973 155.632C273.786 158.104 280.383 151.762 280.383 151.762Z" fill="black"/>
<path opacity="0.05" d="M281.751 182.494C281.751 182.494 272.959 184.114 275.455 185.218C277.951 186.322 282.052 187.207 282.052 187.207C282.052 187.207 284.891 187.354 281.751 182.494Z" fill="black"/>
<g opacity="0.05">
<path opacity="0.05" d="M273.679 186.974C273.458 186.837 273.271 186.653 273.132 186.435C272.992 186.217 272.905 185.971 272.875 185.715L272.783 185.87C272.783 185.87 271.964 187.859 273.382 188.741C273.542 188.843 273.698 188.944 273.839 189.042C274.102 188.993 274.384 188.956 274.655 188.888C275.855 188.594 275.097 187.859 273.679 186.974Z" fill="black"/>
<path opacity="0.05" d="M285.005 186.382C285.249 186.164 285.242 185.598 285.093 184.875C284.712 185.444 284.601 186.333 284.594 187.008C284.686 186.774 284.826 186.561 285.005 186.382Z" fill="black"/>
<path opacity="0.05" d="M283.653 149.724C283.329 150.595 283.129 151.507 283.059 152.433C283.229 151.793 283.457 151.17 283.741 150.571L283.653 149.724Z" fill="black"/>
<path opacity="0.05" d="M303.79 145.858C303.848 145.593 303.875 145.322 303.87 145.052C303.759 145.602 303.683 146.11 303.626 146.559C303.676 146.329 303.729 146.11 303.79 145.858Z" fill="black"/>
<path opacity="0.05" d="M283.443 175.922C283.565 175.741 283.634 175.131 283.664 174.283C283.388 174.939 283.242 175.641 283.233 176.352C283.285 176.201 283.356 176.057 283.443 175.922Z" fill="black"/>
<path opacity="0.05" d="M285.272 189.819C284.81 191.297 284.467 192.809 284.247 194.34L275.234 195.369C275.234 195.369 274.411 194.34 273.218 191.601C273.122 191.389 273.036 191.173 272.963 190.953C272.421 191.198 272.2 191.752 272.917 193.368C274.11 196.096 274.937 197.136 274.937 197.136L283.95 196.104C283.95 196.104 284.621 191.461 285.512 190.576C285.97 190.15 285.688 189.928 285.272 189.819Z" fill="black"/>
<path opacity="0.05" d="M273.382 176.585C273.382 176.585 273.454 181.668 274.201 181.962C274.582 181.122 274.83 180.323 274.494 180.191C273.732 179.898 273.675 174.811 273.675 174.811C273.675 174.811 272.185 168.782 272.558 167.147C272.932 165.511 271.366 161.623 271.366 161.623L270.843 156.981C269.249 154.347 268.667 151.233 269.205 148.209V141.05C269.205 141.05 267.116 127.199 266.819 120.198C266.628 115.714 266.682 109.595 266.743 105.778C266.743 105.088 266.766 104.478 266.777 103.962L266.522 103.988C266.522 103.988 266.48 105.405 266.445 107.549C266.384 111.366 266.327 117.485 266.522 121.965C266.819 128.966 268.904 142.821 268.904 142.821V149.98C268.369 153.003 268.952 156.115 270.546 158.748L271.064 163.39C271.064 163.39 272.631 167.294 272.257 168.918C271.884 170.542 273.382 176.585 273.382 176.585Z" fill="black"/>
<path opacity="0.05" d="M299.914 193.383C299.182 192.335 298.694 191.139 298.485 189.883C297.566 190.704 298.622 193.892 299.628 195.158C300.669 196.484 308.42 197.294 309.918 194.86V193.458C307.887 195.429 300.897 194.638 299.914 193.383Z" fill="black"/>
<path opacity="0.05" d="M311.241 185.056C310.832 185.764 310.483 186.503 310.196 187.268V188.311C310.368 187.935 310.608 187.43 310.959 186.834C311.194 186.254 311.306 185.632 311.286 185.007C311.286 185.007 311.252 185.041 311.241 185.056Z" fill="black"/>
<path opacity="0.05" d="M300.372 186.22C300.655 185.652 300.901 185.067 301.107 184.468C301.107 184.468 299.838 184.762 297.826 182.403C296.362 180.689 296.278 177.448 296.488 175.331C296.107 176.585 295.516 181.815 297.528 184.174C298.843 185.715 299.838 186.122 300.372 186.22Z" fill="black"/>
<path opacity="0.05" d="M296.485 169.879C296.616 171.33 296.666 172.788 296.633 174.246C296.671 174.016 296.721 173.788 296.786 173.564C297.167 172.309 296.786 168.111 296.786 168.111C296.786 168.111 296.862 165.161 296.264 164.204C295.665 163.247 294.419 157.791 294.419 157.791C294.419 157.791 294.419 155.948 293.375 154.991C292.331 154.034 291.66 150.274 291.66 150.274C291.044 149.336 290.775 148.217 290.898 147.105C291.123 145.262 289.632 143.273 289.632 143.273L287.098 135.315L284.712 129.347L283.367 132.813C283.367 132.813 283.367 133.25 283.321 133.943L284.411 131.129L286.797 137.086L289.331 145.044C289.331 145.044 290.821 147.033 290.597 148.876C290.474 149.987 290.743 151.107 291.359 152.045C291.359 152.045 292.03 155.813 293.074 156.762C294.118 157.712 294.114 159.562 294.114 159.562C294.114 159.562 295.383 165.014 295.978 165.967C296.572 166.921 296.485 169.879 296.485 169.879Z" fill="black"/>
</g>
<path d="M302.742 34.3072L302.181 36.9976L302.216 38.1958L302.238 39.0775L299.129 39.394L298.782 38.7572C298.138 37.6042 296.8 35.2605 296.369 34.8988C295.794 34.4241 294.769 26.9409 295.988 27.3855C296.739 27.6722 297.356 28.224 297.719 28.9341C297.719 28.9341 303.843 29.6274 302.742 34.3072Z" fill="#FFCDD3"/>
<path opacity="0.1" d="M302.239 39.0775L299.129 39.394L298.782 38.7572C299.201 38.2864 299.771 37.9735 300.396 37.8718C301.022 37.7702 301.663 37.886 302.212 38.1996L302.239 39.0775Z" fill="black"/>
<path d="M303.024 40.5358L298.924 41.474L298.836 40.8711L298.604 39.2471C298.604 39.2471 300.227 37.1069 302.575 38.7121L302.78 39.5373L303.024 40.5358Z" fill="#6C63FF"/>
<path d="M236.597 34.6012L232.218 36.9223L231.837 36.1084C231.422 35.2455 230.801 33.9456 230.629 33.4708C230.37 32.7549 228.545 31.8506 228.545 31.8506C223.971 27.5212 229.421 23.7985 229.421 23.7985C232.31 18.0523 235.519 25.7503 235.519 25.7503C235.519 25.7503 235.968 29.8084 235.652 30.0796C235.336 30.3509 235.336 31.4625 235.336 31.4625C235.753 32.2589 236.106 33.0866 236.392 33.938C236.525 34.3487 236.597 34.6012 236.597 34.6012Z" fill="#FFCDD3"/>
<path opacity="0.1" d="M236.598 34.6011L232.219 36.9222L231.838 36.1083C232.455 35.5959 234.647 33.8475 235.367 33.9191C235.711 33.9616 236.058 33.9704 236.404 33.9455C236.526 34.3487 236.598 34.6011 236.598 34.6011Z" fill="black"/>
<path d="M237.044 35.9086L232.124 38.305L232.025 37.2613L231.956 36.5379C231.956 36.5379 234.807 34.1226 235.649 34.2168C236.075 34.2778 236.507 34.2778 236.933 34.2168L236.99 35.091L237.044 35.9086Z" fill="#6C63FF"/>
<path d="M290.818 52.1787C290.818 52.1787 269.369 54.5714 273.378 53.2827C276.168 52.3822 277.277 50.6452 277.509 48.6858C277.7 47.0543 277.273 45.2946 276.713 43.7875C276.209 42.4504 275.57 41.1666 274.807 39.9554C274.807 39.9554 291.195 31.0404 287.921 39.1453C287.416 40.3712 287.103 41.6659 286.991 42.9849C286.893 44.2957 287.036 45.6133 287.414 46.8734C288.033 48.9181 289.21 50.7542 290.818 52.1787Z" fill="#FFCDD3"/>
<path opacity="0.1" d="M287.909 39.134C287.404 40.3599 287.091 41.6545 286.979 42.9735C285.436 44.2584 283.744 44.1717 281.567 44.1717C279.898 44.1717 278.046 44.5711 276.712 43.7761C276.208 42.439 275.57 41.1553 274.807 39.9441C274.807 39.9441 291.19 31.0291 287.909 39.134Z" fill="black"/>
<path d="M281.278 44.737C286.176 44.737 290.147 40.8114 290.147 35.969C290.147 31.1265 286.176 27.2009 281.278 27.2009C276.381 27.2009 272.41 31.1265 272.41 35.969C272.41 40.8114 276.381 44.737 281.278 44.737Z" fill="#FFCDD3"/>
<path opacity="0.1" d="M290.818 52.1787C290.818 52.1787 269.369 54.5714 273.378 53.2827C276.168 52.3822 277.277 50.6451 277.509 48.6858C278.577 47.5554 280.722 46.7152 282.083 46.2781C283.341 45.8599 284.699 45.8375 285.97 46.214C286.47 46.3629 286.946 46.5811 287.384 46.8621C288.009 48.9144 289.197 50.7549 290.818 52.1787Z" fill="black"/>
<path opacity="0.1" d="M303.024 40.5357L298.924 41.4739L298.836 40.871C299.275 40.2747 299.889 39.8267 300.595 39.5881C301.301 39.3494 302.064 39.3316 302.78 39.5372L303.024 40.5357Z" fill="black"/>
<path opacity="0.1" d="M237.044 35.9087L232.123 38.3051L232.024 37.2614C233.618 36.4142 235.274 35.6875 236.979 35.0873L237.044 35.9087Z" fill="black"/>
<path opacity="0.1" d="M299.3 105.612C290.988 106.923 279.174 108.596 277.299 108.031C275.74 107.564 270.771 107.613 266.445 107.76C266.483 105.62 266.522 104.199 266.522 104.199L298.717 100.883C298.717 100.883 298.687 102.353 299.3 105.612Z" fill="black"/>
<path d="M307.585 103.683C307.585 103.683 280.234 108.325 277.299 107.451C274.365 106.577 259.292 107.522 259.292 107.522C252.508 112.018 255.34 105.386 255.34 105.386C255.34 105.386 254.745 101.923 255.565 99.1237C256.115 97.0682 256.491 94.971 256.689 92.8538C256.689 92.8538 256.54 88.4302 257.36 87.3978C258.179 86.3654 259.151 78.999 259.151 78.999C259.151 78.999 259.894 73.9876 259.822 72.8836C259.749 71.7796 260.043 68.6823 260.043 68.6823L261.014 63.524C255.424 62.7892 238.43 52.4726 238.43 52.4726C237.611 49.0098 231.277 40.9049 231.277 40.9049C231.185 40.2234 231.009 39.5554 230.755 38.9154C230.309 37.7361 237.016 35.3773 237.016 35.3773C237.016 35.3773 242.009 41.4061 243.053 43.0414C244.097 44.6767 247.672 47.6835 247.672 47.6835C248.227 47.627 248.788 47.6992 249.311 47.8945L249.398 47.9209C250.596 48.3858 251.72 49.0205 252.733 49.8048C254.414 49.7654 256.044 50.3734 257.28 51.5004C257.28 51.5004 260.328 51.0558 260.858 51.572C261.388 52.0882 263.987 51.572 263.987 51.572C263.987 51.572 266.594 46.1198 268.309 47.7023C270.024 49.2849 277.299 49.2095 277.299 49.2095C278.267 47.9359 280.626 47.0241 282.101 46.5719C283.359 46.1554 284.717 46.1331 285.988 46.5079C286.537 46.6697 287.053 46.9247 287.513 47.2615L291.937 51.5343C291.937 51.5343 293.203 49.9103 293.054 49.5449C292.905 49.1794 294.544 48.8817 294.544 48.8817C294.544 48.8817 296.705 48.2185 297.524 47.9962C298.344 47.7739 299.094 48.6518 299.163 48.731C299.136 48.6368 298.576 46.847 298.782 45.4905C298.988 44.1341 297.886 42.853 297.886 42.853C300.493 36.5152 306.381 41.8205 306.381 41.8205C306.381 41.8205 307.052 45.2833 306.457 46.6096C305.863 47.9359 307.052 50.7355 306.903 51.474C306.755 52.2126 307.204 53.4635 307.204 54.8652C307.204 56.2669 306.442 58.9158 306.011 60.0951C305.581 61.2745 301.987 63.9272 301.987 63.9272C301.987 63.9272 301.762 68.1284 300.196 70.5588C298.629 72.9891 299.613 81.3012 299.613 81.3012C299.613 81.3012 301.103 87.7859 302.966 89.8507C304.83 91.9156 307.585 103.683 307.585 103.683Z" fill="#3F3D56"/>
<path opacity="0.1" d="M267.714 55.1968C267.714 55.1968 266.895 52.7665 266.148 52.5592C265.407 52.2895 264.685 51.9698 263.987 51.6022L264.467 50.6941C264.467 50.6941 267.265 51.4477 267.714 52.2653C268.164 53.083 267.714 55.1968 267.714 55.1968Z" fill="black"/>
<path opacity="0.1" d="M252.733 49.82C252.584 50.5735 245.949 51.2179 245.949 51.2179L249.303 47.8945L249.387 47.9247C250.589 48.3922 251.717 49.0307 252.733 49.82Z" fill="black"/>
<path d="M233.541 40.2946C233.869 40.2946 234.135 40.0314 234.135 39.7068C234.135 39.3822 233.869 39.119 233.541 39.119C233.212 39.119 232.946 39.3822 232.946 39.7068C232.946 40.0314 233.212 40.2946 233.541 40.2946Z" fill="#575988"/>
<path d="M234.304 41.4739C234.632 41.4739 234.898 41.2108 234.898 40.8861C234.898 40.5615 234.632 40.2983 234.304 40.2983C233.975 40.2983 233.709 40.5615 233.709 40.8861C233.709 41.2108 233.975 41.4739 234.304 41.4739Z" fill="#575988"/>
<path d="M235.051 42.5629C235.379 42.5629 235.645 42.2998 235.645 41.9751C235.645 41.6505 235.379 41.3873 235.051 41.3873C234.722 41.3873 234.456 41.6505 234.456 41.9751C234.456 42.2998 234.722 42.5629 235.051 42.5629Z" fill="#575988"/>
<path d="M235.832 43.7385C236.16 43.7385 236.426 43.4753 236.426 43.1507C236.426 42.826 236.16 42.5629 235.832 42.5629C235.503 42.5629 235.237 42.826 235.237 43.1507C235.237 43.4753 235.503 43.7385 235.832 43.7385Z" fill="#575988"/>
<path d="M306.085 43.5652C306.352 43.5652 306.569 43.351 306.569 43.0867C306.569 42.8224 306.352 42.6082 306.085 42.6082C305.817 42.6082 305.601 42.8224 305.601 43.0867C305.601 43.351 305.817 43.5652 306.085 43.5652Z" fill="#575988"/>
<path d="M306.161 44.6541C306.428 44.6541 306.645 44.4398 306.645 44.1756C306.645 43.9113 306.428 43.697 306.161 43.697C305.893 43.697 305.677 43.9113 305.677 44.1756C305.677 44.4398 305.893 44.6541 306.161 44.6541Z" fill="#575988"/>
<path d="M306.225 45.7393C306.493 45.7393 306.709 45.525 306.709 45.2608C306.709 44.9965 306.493 44.7822 306.225 44.7822C305.958 44.7822 305.741 44.9965 305.741 45.2608C305.741 45.525 305.958 45.7393 306.225 45.7393Z" fill="#575988"/>
<path opacity="0.1" d="M267.741 75.1671C267.669 75.0805 284.472 96.0567 297.513 83.9352C297.525 83.9389 276.918 86.7009 267.741 75.1671Z" fill="black"/>
<path opacity="0.1" d="M258.1 86.0715C258.1 86.0715 268.153 86.3428 269.205 89.2027V92.1794C268.919 92.3364 268.597 92.4188 268.269 92.4188C267.942 92.4188 267.62 92.3364 267.334 92.1794C266.32 91.6368 260.241 88.5848 258.1 90.0543V86.0715Z" fill="black"/>
<path d="M258.286 86.0715C258.286 86.0715 267.901 86.3315 268.908 89.0595V91.893C268.634 92.0435 268.325 92.1224 268.012 92.1224C267.699 92.1224 267.39 92.0435 267.116 91.893C266.148 91.3806 260.336 88.468 258.286 89.8696V86.0715Z" fill="#3F3D56"/>
<path opacity="0.1" d="M263.588 64.4886C264.615 66.8393 265.924 69.0594 267.487 71.1014C269.186 73.3585 271.245 75.3272 273.584 76.9304C273.584 76.9304 263.756 65.8526 263.588 64.4886Z" fill="black"/>
<path opacity="0.1" d="M260.299 52.9398C260.299 52.9398 261.976 60.0989 266.297 62.5293L260.299 52.9398Z" fill="black"/>
<path opacity="0.1" d="M257.726 53.6633C257.684 53.5315 256.236 59.3153 263.298 62.5294C263.298 62.5294 260.298 61.5233 257.726 53.6633Z" fill="black"/>
<path opacity="0.1" d="M301.626 48.8629C301.515 48.8629 305.109 51.1237 306.088 52.1787C306.088 52.1787 303.748 48.7122 301.626 48.8629Z" fill="black"/>
<path d="M278.881 43.9157C278.883 44.1069 278.924 44.2959 279.003 44.4705C279.082 44.6451 279.197 44.8017 279.34 44.9302C279.483 45.0588 279.652 45.1565 279.835 45.2173C280.019 45.2781 280.213 45.3006 280.406 45.2834C283.108 45.4492 285.924 45.566 288.409 44.5298C288.875 44.3654 289.294 44.0912 289.628 43.731C290.071 43.1922 290.158 42.4612 290.337 41.7905C290.688 40.4793 291.435 39.315 291.972 38.0678C292.881 35.9606 293.186 33.6467 292.853 31.3796C292.782 30.6847 292.55 30.0154 292.174 29.4241C291.458 28.4105 290.151 27.9998 289.202 27.1934C288.253 26.3871 287.643 25.155 286.534 24.5559C285.535 24.0057 284.312 24.0736 283.188 24.262C280.976 24.6332 278.857 25.4198 276.945 26.5793C276.301 26.9561 275.596 27.4195 274.857 27.2801C274.209 27.1595 273.736 26.6207 273.332 26.1158C272.813 27.3216 272.594 28.6334 272.696 29.9403C272.724 30.1321 272.718 30.3272 272.677 30.5168C272.584 30.746 272.442 30.9528 272.262 31.1234C271.595 31.877 271.179 33.1016 271.839 33.8778C272.124 34.2132 272.566 34.3978 272.845 34.7407C273.344 35.3548 273.176 36.2479 273.165 37.0316C273.137 37.3053 273.207 37.5798 273.363 37.8078C273.507 37.9407 273.684 38.0344 273.875 38.08C274.067 38.1255 274.267 38.1213 274.457 38.0678C274.834 37.9553 275.231 37.9182 275.623 37.9585C276.036 38.0913 276.393 38.3565 276.637 38.7121C277.868 40.2984 278.355 42.0241 278.881 43.9157Z" fill="#2D293D"/>
<g opacity="0.1">
<path opacity="0.1" d="M289.945 43.064C289.61 43.4242 289.191 43.6984 288.725 43.8628C286.225 44.8915 283.413 44.7747 280.722 44.6164C280.433 44.6193 280.147 44.5561 279.887 44.4318C279.476 44.1944 279.319 43.697 279.194 43.2449C278.668 41.3609 278.184 39.6314 276.934 38.0602C276.693 37.6977 276.336 37.4257 275.92 37.2877C275.528 37.2512 275.132 37.2882 274.754 37.397C274.565 37.4511 274.365 37.4559 274.173 37.411C273.981 37.3661 273.805 37.273 273.66 37.1408C273.505 36.9128 273.434 36.6383 273.462 36.3646C273.462 35.5733 273.641 34.6879 273.142 34.0737C272.864 33.7308 272.422 33.5462 272.136 33.207C271.949 32.957 271.835 32.6617 271.805 32.3525C271.774 32.0433 271.83 31.7318 271.964 31.4512C271.488 32.2048 271.286 33.1505 271.838 33.7986C272.124 34.134 272.566 34.3186 272.845 34.6615C273.344 35.2794 273.176 36.1687 273.165 36.9524C273.135 37.2257 273.204 37.5004 273.359 37.7286C273.504 37.8621 273.681 37.9563 273.873 38.0018C274.065 38.0474 274.267 38.0428 274.457 37.9886C274.834 37.8761 275.231 37.839 275.623 37.8793C276.036 38.0121 276.393 38.2773 276.637 38.6329C277.883 40.2041 278.371 41.9299 278.896 43.8214C278.958 44.2868 279.193 44.7128 279.556 45.0158C279.817 45.1403 280.104 45.2023 280.394 45.1967C283.096 45.3625 285.913 45.483 288.397 44.4431C288.864 44.2797 289.283 44.0054 289.617 43.6443C289.785 43.432 289.914 43.1923 289.998 42.9359C290.002 42.9849 289.975 43.0263 289.945 43.064Z" fill="black"/>
<path opacity="0.1" d="M272.696 30.2869C272.816 30.1583 272.908 30.0071 272.966 29.8423C273.001 29.6516 273.001 29.4564 272.966 29.2658C272.892 28.1915 273.033 27.1133 273.382 26.0931L273.332 26.0366C272.811 27.2406 272.593 28.5516 272.696 29.8573C272.707 30.0003 272.707 30.1439 272.696 30.2869Z" fill="black"/>
</g>
<path opacity="0.1" d="M277.3 49.2284C277.3 49.2284 288.379 50.6829 289.373 49.0363L277.3 49.2284Z" fill="black"/>
<path opacity="0.1" d="M298.836 44.6956C298.836 44.6956 304.995 44.6956 306.348 46.9865L298.836 44.6956Z" fill="black"/>
<path d="M333.292 248.222C331.465 249.837 329.091 250.713 326.641 250.679C326.016 250.679 325.151 250.795 325.147 251.413C325.163 251.595 325.226 251.769 325.33 251.918C326.104 253.193 327.325 254.141 328.76 254.582C330.094 254.982 331.52 254.914 332.911 254.842L336.969 254.635C337.732 254.594 338.494 254.556 339.256 254.462C340.018 254.368 340.849 254.213 341.645 254.085C343.603 253.81 345.582 253.719 347.556 253.814C348.082 253.832 348.7 253.814 349.012 253.437C349.325 253.06 349.165 252.34 349.047 251.775C348.803 250.611 349.047 249.39 348.822 248.222C348.441 246.172 346.646 244.601 344.679 243.859C342.85 243.173 339.61 242.385 337.88 243.531C336.055 244.733 334.938 246.741 333.292 248.222Z" fill="#3F3D56"/>
<path d="M337.324 179.547C337.682 181.231 339.332 182.52 339.378 184.238C339.42 185.617 338.425 186.774 337.709 187.953C337.033 189.175 336.464 190.45 336.005 191.767C334.656 195.193 332.982 198.486 331.005 201.601C330.052 203.108 328.985 204.717 329.202 206.469C329.354 207.289 329.647 208.076 330.067 208.798L332.926 214.412C333.552 215.533 334.042 216.723 334.385 217.958C334.633 219.024 334.656 220.128 334.801 221.213C335.25 224.657 336.885 228.124 335.917 231.462C335.834 231.748 335.536 232.095 335.304 231.895C336.249 233.64 337.007 235.396 336.935 237.374C336.897 238.41 336.577 239.492 336.962 240.456C337.125 240.859 337.411 241.236 337.407 241.67C337.407 241.956 337.274 242.223 337.244 242.502C337.164 243.297 337.903 243.96 338.669 244.213C339.435 244.465 340.27 244.447 341.043 244.676C342.53 245.117 343.593 246.383 344.854 247.261C346.148 248.143 347.674 248.633 349.245 248.674C349.469 248.698 349.695 248.653 349.892 248.546C350.004 248.449 350.094 248.33 350.156 248.196C350.218 248.062 350.25 247.917 350.251 247.77C350.32 247.066 350.213 246.356 349.939 245.703C349.665 245.05 349.233 244.474 348.681 244.024C348.438 243.875 348.238 243.667 348.097 243.422C348.026 243.204 348.008 242.973 348.044 242.747C348.274 239.659 348.218 236.556 347.876 233.478C347.722 232.502 347.673 231.514 347.728 230.528C347.808 229.706 348.059 228.892 347.968 228.075C347.876 227.257 347.453 226.511 347.206 225.723C346.764 224.322 346.886 222.815 346.825 221.349C346.748 218.802 346.158 216.3 345.571 213.813C345.338 212.837 345.083 211.816 344.385 211.092C343.791 210.478 342.831 209.89 343.055 209.073C343.18 208.771 343.365 208.498 343.6 208.27C343.876 207.928 344.079 207.533 344.196 207.111C344.312 206.689 344.341 206.247 344.279 205.814C344.529 205.877 344.795 205.852 345.029 205.743C345.263 205.635 345.452 205.449 345.563 205.218C350.205 203.052 353.947 198.718 355.617 193.914C355.715 193.558 355.867 193.217 356.066 192.905C356.497 192.309 357.244 192.053 357.907 191.725C359.988 190.689 361.425 188.748 362.743 186.849C363.506 185.749 364.268 184.611 364.611 183.315C364.791 182.477 364.877 181.621 364.866 180.764L364.984 176.337C365.01 176.045 364.982 175.752 364.9 175.47C364.787 175.207 364.623 174.969 364.416 174.769C363.149 173.444 361.484 172.556 359.668 172.237C358.448 172.022 357.202 172.064 355.967 171.962C353.574 171.766 351.211 171.031 348.818 171.209C345.056 171.484 341.706 174.061 339.934 177.354C339.313 178.515 338.657 179.524 337.324 179.547Z" fill="#464353"/>
<path d="M316.439 150.76C316.489 151.443 316.396 152.13 316.164 152.776C315.871 153.394 315.135 153.876 314.491 153.624C314.686 153.19 314.171 152.697 313.691 152.749C313.455 152.803 313.235 152.913 313.051 153.069C312.867 153.225 312.725 153.423 312.635 153.646C312.317 154.279 312.21 154.995 312.33 155.692C312.483 156.559 312.99 157.392 312.856 158.262C312.75 158.985 312.212 159.705 312.498 160.376C312.683 160.682 312.916 160.958 313.188 161.193C313.564 161.652 313.749 162.236 313.702 162.825C313.656 163.414 313.383 163.963 312.94 164.359L320.151 164.502C319.888 165.692 320.429 166.909 321.046 167.968C322.775 170.879 325.163 173.354 328.022 175.2C330.881 177.045 334.134 178.211 337.525 178.605C337.342 178.711 337.185 178.856 337.065 179.029C336.945 179.202 336.866 179.4 336.832 179.607C336.799 179.815 336.813 180.027 336.873 180.228C336.933 180.429 337.037 180.615 337.178 180.772C337.765 181.348 338.76 181.277 339.495 180.904C340.231 180.531 340.806 179.913 341.477 179.434C342.661 178.605 344.106 178.22 345.551 178.349C346.454 178.436 347.331 178.726 348.238 178.771C350.906 178.91 353.192 177.011 355.761 176.235C357.632 175.666 359.755 175.666 361.325 174.509C362.004 174.012 362.56 173.194 362.362 172.388C362.198 171.925 361.938 171.5 361.6 171.141C360.696 169.984 360.163 168.594 359.515 167.279C358.231 164.675 356.464 162.333 354.305 160.376C352.676 158.968 350.949 157.673 349.137 156.502C348.699 156.183 348.233 155.904 347.743 155.67C347.11 155.395 346.409 155.263 345.837 154.916C344.991 154.388 344.503 153.458 343.851 152.708C342.422 151.058 340.227 150.3 338.466 149.004C337.285 148.134 336.241 146.988 334.831 146.57C334.145 146.363 333.417 146.348 332.731 146.144C331.172 145.677 330.036 144.309 328.508 143.755C327.3 143.318 325.966 143.431 324.697 143.277C323.267 143.102 321.9 142.588 320.715 141.777C320.333 141.47 319.904 141.223 319.446 141.046C317.513 140.466 317.357 144.023 317.159 145.255C316.904 147.086 316.439 148.906 316.439 150.76Z" fill="#6C63FF"/>
<path d="M318.321 162.689C318.645 166.163 315.993 169.528 316.766 172.931C316.93 173.654 317.246 174.344 317.361 175.078C317.685 177.094 316.465 179.005 315.303 180.693L305.318 195.18C304.917 195.816 304.438 196.401 303.892 196.921C301.987 198.598 299.121 198.428 296.613 198.926C294.852 199.284 293.188 200.011 291.735 201.058C291.67 201.108 291.627 201.182 291.615 201.263C291.604 201.344 291.625 201.426 291.674 201.492C292.088 202.049 292.637 202.495 293.27 202.789C293.903 203.084 294.6 203.216 295.299 203.176C295.561 203.515 295.299 204.02 294.936 204.265C294.403 204.642 293.664 204.728 293.557 205.629C293.521 205.942 293.585 206.258 293.74 206.533C294.143 207.14 294.769 207.57 295.485 207.731C298.942 208.779 302.677 206.94 305.264 204.442C307.852 201.944 309.708 198.79 312.246 196.25C313.653 194.841 315.249 193.639 316.698 192.275C319.586 189.551 321.835 186.247 324 182.934C324.651 181.936 325.311 180.911 325.581 179.754C325.852 178.598 325.726 177.426 326.035 176.307C326.439 174.841 327.525 173.669 328.428 172.441C330.2 170.029 331.385 167.079 331.149 164.106C330.913 161.133 329.053 158.202 326.218 157.192C325.338 156.846 324.37 156.788 323.455 157.026C322.292 157.38 321.435 158.33 320.642 159.242L318.737 161.404C318.273 161.883 317.909 162.448 317.666 163.066C317.543 163.377 317.513 163.717 317.581 164.045C317.649 164.372 317.81 164.673 318.047 164.912" fill="#FBBEBE"/>
<path d="M323.383 148.439C322.072 148.514 320.628 148.642 319.702 149.569C319.313 149.995 318.999 150.481 318.772 151.009C317.872 152.821 316.996 154.716 316.931 156.736C316.878 158.349 317.35 159.927 317.598 161.521C317.804 162.848 317.282 164.2 317.182 165.542C318.81 165.048 320.959 164.377 322.434 163.545C323.44 162.976 324.412 162.328 325.51 161.966C327.076 161.45 329.702 162.343 331.192 163.058C331.272 162.026 330.487 160.225 330.571 159.189C330.582 158.753 330.661 158.321 330.803 157.908C331.026 157.471 331.29 157.056 331.592 156.668C332.159 155.756 332.42 154.69 332.337 153.623C332.254 152.556 331.832 151.542 331.131 150.726C329.808 149.256 327.739 148.706 325.765 148.465C324.522 148.323 323.269 148.28 322.019 148.337" fill="#6C63FF"/>
</g>
<defs>
<linearGradient id="paint0_linear" x1="269.144" y1="205.798" x2="269.144" y2="21.6733" gradientUnits="userSpaceOnUse">
<stop stop-color="#808080" stop-opacity="0.25"/>
<stop offset="0.54" stop-color="#808080" stop-opacity="0.12"/>
<stop offset="1" stop-color="#808080" stop-opacity="0.1"/>
</linearGradient>
<clipPath id="clip0">
<rect width="400" height="255.69" fill="white"/>
</clipPath>
</defs>
</svg>
