<svg width="30" height="30" viewBox="0 0 30 30" fill="none" xmlns="http://www.w3.org/2000/svg">
<circle cx="15" cy="15" r="15" fill="#90EE90"/>
<path fill-rule="evenodd" clip-rule="evenodd" d="M14.068 8.06802C14.9119 7.22411 16.0565 6.75 17.25 6.75H19.5C19.9142 6.75 20.25 7.08579 20.25 7.5V10.5C20.25 10.9142 19.9142 11.25 19.5 11.25H17.25V12.75H19.5C19.731 12.75 19.949 12.8564 20.0912 13.0384C20.2333 13.2205 20.2836 13.4578 20.2276 13.6819L19.4776 16.6819C19.3941 17.0158 19.0942 17.25 18.75 17.25H17.25V22.5C17.25 22.9142 16.9142 23.25 16.5 23.25H13.5C13.0858 23.25 12.75 22.9142 12.75 22.5V17.25H11.25C10.8358 17.25 10.5 16.9142 10.5 16.5V13.5C10.5 13.0858 10.8358 12.75 11.25 12.75H12.75V11.25C12.75 10.0565 13.2241 8.91193 14.068 8.06802ZM17.25 8.25C16.4544 8.25 15.6913 8.56607 15.1287 9.12868C14.5661 9.69129 14.25 10.4544 14.25 11.25V13.5C14.25 13.9142 13.9142 14.25 13.5 14.25H12V15.75H13.5C13.9142 15.75 14.25 16.0858 14.25 16.5V21.75H15.75V16.5C15.75 16.0858 16.0858 15.75 16.5 15.75H18.1644L18.5394 14.25H16.5C16.0858 14.25 15.75 13.9142 15.75 13.5V11.25C15.75 10.8522 15.908 10.4706 16.1893 10.1893C16.4706 9.90804 16.8522 9.75 17.25 9.75H18.75V8.25H17.25Z" fill="white"/>
</svg>
