<svg width="30" height="30" viewBox="0 0 30 30" fill="none" xmlns="http://www.w3.org/2000/svg">
<circle cx="15" cy="15" r="15" fill="#90EE90"/>
<path fill-rule="evenodd" clip-rule="evenodd" d="M11.25 8.25C9.59315 8.25 8.25 9.59315 8.25 11.25V18.75C8.25 20.4069 9.59315 21.75 11.25 21.75H18.75C20.4069 21.75 21.75 20.4069 21.75 18.75V11.25C21.75 9.59315 20.4069 8.25 18.75 8.25H11.25ZM6.75 11.25C6.75 8.76472 8.76472 6.75 11.25 6.75H18.75C21.2353 6.75 23.25 8.76472 23.25 11.25V18.75C23.25 21.2353 21.2353 23.25 18.75 23.25H11.25C8.76472 23.25 6.75 21.2353 6.75 18.75V11.25Z" fill="white"/>
<path fill-rule="evenodd" clip-rule="evenodd" d="M15.3623 12.7419C14.8941 12.6725 14.416 12.7524 13.9959 12.9704C13.5759 13.1883 13.2352 13.5332 13.0225 13.956C12.8097 14.3787 12.7356 14.8577 12.8108 15.325C12.886 15.7922 13.1066 16.2239 13.4412 16.5585C13.7759 16.8932 14.2075 17.1138 14.6748 17.189C15.142 17.2641 15.6211 17.1901 16.0438 16.9773C16.4665 16.7645 16.8114 16.4239 17.0294 16.0038C17.2474 15.5837 17.3273 15.1056 17.2579 14.6375C17.1871 14.16 16.9646 13.7179 16.6232 13.3765C16.2819 13.0352 15.8398 12.8127 15.3623 12.7419ZM13.3051 11.6389C14.0052 11.2757 14.8021 11.1424 15.5823 11.2581C16.3782 11.3761 17.115 11.747 17.6839 12.3159C18.2528 12.8848 18.6237 13.6216 18.7417 14.4175C18.8574 15.1977 18.7241 15.9945 18.3608 16.6947C17.9975 17.3948 17.4227 17.9625 16.7182 18.3172C16.0136 18.6718 15.2152 18.7952 14.4365 18.6699C13.6577 18.5446 12.9383 18.1769 12.3806 17.6192C11.8228 17.0614 11.4552 16.342 11.3299 15.5633C11.2045 14.7846 11.328 13.9861 11.6826 13.2816C12.0372 12.577 12.605 12.0022 13.3051 11.6389Z" fill="white"/>
</svg>
