<svg width="30" height="30" viewBox="0 0 30 30" fill="none" xmlns="http://www.w3.org/2000/svg">
<circle cx="15" cy="15" r="15" fill="#90EE90"/>
<path fill-rule="evenodd" clip-rule="evenodd" d="M18 12.75C17.0054 12.75 16.0516 13.1451 15.3483 13.8483C14.6451 14.5516 14.25 15.5054 14.25 16.5V21H15.75V16.5C15.75 15.9033 15.9871 15.331 16.409 14.909C16.831 14.4871 17.4033 14.25 18 14.25C18.5967 14.25 19.169 14.4871 19.591 14.909C20.0129 15.331 20.25 15.9033 20.25 16.5V21H21.75V16.5C21.75 15.5054 21.3549 14.5516 20.6517 13.8483C19.9484 13.1451 18.9946 12.75 18 12.75ZM18 11.25C16.6076 11.25 15.2723 11.8031 14.2877 12.7877C13.3031 13.7723 12.75 15.1076 12.75 16.5V21.75C12.75 22.1642 13.0858 22.5 13.5 22.5H16.5C16.9142 22.5 17.25 22.1642 17.25 21.75V16.5C17.25 16.3011 17.329 16.1103 17.4697 15.9697C17.6103 15.829 17.8011 15.75 18 15.75C18.1989 15.75 18.3897 15.829 18.5303 15.9697C18.671 16.1103 18.75 16.3011 18.75 16.5V21.75C18.75 22.1642 19.0858 22.5 19.5 22.5H22.5C22.9142 22.5 23.25 22.1642 23.25 21.75V16.5C23.25 15.1076 22.6969 13.7723 21.7123 12.7877C20.7277 11.8031 19.3924 11.25 18 11.25Z" fill="white"/>
<path fill-rule="evenodd" clip-rule="evenodd" d="M6.75 12.75C6.75 12.3358 7.08579 12 7.5 12H10.5C10.9142 12 11.25 12.3358 11.25 12.75V21.75C11.25 22.1642 10.9142 22.5 10.5 22.5H7.5C7.08579 22.5 6.75 22.1642 6.75 21.75V12.75ZM8.25 13.5V21H9.75V13.5H8.25Z" fill="white"/>
<path fill-rule="evenodd" clip-rule="evenodd" d="M9 8.25C8.58579 8.25 8.25 8.58579 8.25 9C8.25 9.41421 8.58579 9.75 9 9.75C9.41421 9.75 9.75 9.41421 9.75 9C9.75 8.58579 9.41421 8.25 9 8.25ZM6.75 9C6.75 7.75736 7.75736 6.75 9 6.75C10.2426 6.75 11.25 7.75736 11.25 9C11.25 10.2426 10.2426 11.25 9 11.25C7.75736 11.25 6.75 10.2426 6.75 9Z" fill="white"/>
</svg>
