<svg width="40" height="50" viewBox="0 0 40 50" fill="none" xmlns="http://www.w3.org/2000/svg">
<path fill-rule="evenodd" clip-rule="evenodd" d="M3.33301 25C3.33301 23.8494 4.0792 22.9167 4.99967 22.9167H34.9997C35.9202 22.9167 36.6663 23.8494 36.6663 25C36.6663 26.1506 35.9202 27.0834 34.9997 27.0834H4.99967C4.0792 27.0834 3.33301 26.1506 3.33301 25Z" fill="white"/>
<path fill-rule="evenodd" clip-rule="evenodd" d="M3.33301 12.5C3.33301 11.3494 4.0792 10.4167 4.99967 10.4167H34.9997C35.9202 10.4167 36.6663 11.3494 36.6663 12.5C36.6663 13.6506 35.9202 14.5834 34.9997 14.5834H4.99967C4.0792 14.5834 3.33301 13.6506 3.33301 12.5Z" fill="white"/>
<path fill-rule="evenodd" clip-rule="evenodd" d="M3.33301 37.5C3.33301 36.3494 4.0792 35.4167 4.99967 35.4167H34.9997C35.9202 35.4167 36.6663 36.3494 36.6663 37.5C36.6663 38.6506 35.9202 39.5834 34.9997 39.5834H4.99967C4.0792 39.5834 3.33301 38.6506 3.33301 37.5Z" fill="white"/>
</svg>
