<svg width="188" height="198" viewBox="0 0 188 198" fill="none" xmlns="http://www.w3.org/2000/svg">
<g clip-path="url(#clip0)">
<path d="M94 166.262C129.286 166.262 157.891 136.135 157.891 98.9725C157.891 61.8098 129.286 31.6835 94 31.6835C58.7142 31.6835 30.1094 61.8098 30.1094 98.9725C30.1094 136.135 58.7142 166.262 94 166.262Z" fill="#E7F8FF"/>
<path d="M94.0003 147.711C119.558 147.711 140.277 125.89 140.277 98.9726C140.277 72.0552 119.558 50.2344 94.0003 50.2344C68.4424 50.2344 47.7236 72.0552 47.7236 98.9726C47.7236 125.89 68.4424 147.711 94.0003 147.711Z" fill="white"/>
<path d="M42.3516 138.826L3.6709 179.564L17.499 194.128L56.1796 153.39L42.3516 138.826Z" fill="#98E3FF"/>
<path d="M42.3477 138.828L30.3135 151.503L44.1416 166.066L56.1758 153.392L42.3477 138.828Z" fill="white"/>
<path d="M118.762 113.697H110.114C106.058 113.697 102.771 110.235 102.771 105.963V32.1367H118.927L118.762 113.697Z" fill="#FED79A"/>
<path d="M176.984 113.697H124.802C120.746 113.697 117.458 110.235 117.458 105.963V32.1367H184.328V105.963C184.328 110.235 181.04 113.697 176.984 113.697Z" fill="#FEE4BB"/>
<path d="M184.329 28.2695H102.771C100.743 28.2695 99.0992 30.0009 99.0992 32.1367V46.6472C97.4079 46.4666 95.7023 46.3672 94.0004 46.3672C66.458 46.3672 44.0508 69.9663 44.0508 98.9737C44.0508 127.981 66.458 151.58 94.0004 151.58C114.86 151.58 133.421 137.985 140.736 117.564H176.985C183.059 117.564 188 112.36 188 105.963V32.1367C188 30.0009 186.356 28.2695 184.329 28.2695ZM106.443 36.0039H113.787V105.963C113.787 107.319 114.011 108.62 114.418 109.83H110.115C108.09 109.83 106.443 108.095 106.443 105.963V36.0039ZM94.0004 143.845C70.5077 143.845 51.3945 123.716 51.3945 98.9733C51.3945 74.2307 70.5074 54.1016 94.0004 54.1016C95.7045 54.1016 97.4134 54.2118 99.0992 54.4229V105.963C99.0992 112.36 104.041 117.564 110.115 117.564H124.802H132.784C125.93 133.45 110.846 143.845 94.0004 143.845ZM180.657 105.963C180.657 108.095 179.009 109.83 176.985 109.83H134.754H124.802C122.778 109.83 121.13 108.095 121.13 105.963V36.0039H180.657V105.963Z" fill="black"/>
<path d="M150.894 81.0934C160.819 81.0934 168.895 72.5887 168.895 62.1349V55.0452C168.895 52.9093 167.251 51.178 165.223 51.178C163.195 51.178 161.551 52.9093 161.551 55.0452V62.1349C161.551 68.3239 156.77 73.359 150.894 73.359C145.017 73.359 140.236 68.3235 140.236 62.1349V55.0452C140.236 52.9093 138.592 51.178 136.564 51.178C134.536 51.178 132.893 52.9093 132.893 55.0452V62.1349C132.892 72.5887 140.968 81.0934 150.894 81.0934Z" fill="black"/>
<path d="M150.89 18.2828C152.918 18.2828 154.562 16.5515 154.562 14.4156V3.8706C154.562 1.73475 152.918 0.00341034 150.89 0.00341034C148.862 0.00341034 147.218 1.73475 147.218 3.8706V14.4156C147.218 16.5515 148.862 18.2828 150.89 18.2828Z" fill="black"/>
<path d="M164.071 22.9142C165.011 22.9142 165.951 22.5364 166.668 21.7815L172.78 15.3438C174.214 13.8337 174.214 11.385 172.78 9.87486C171.346 8.36472 169.021 8.36472 167.587 9.87486L161.475 16.3126C160.041 17.8227 160.041 20.2714 161.475 21.7815C162.192 22.5368 163.132 22.9142 164.071 22.9142Z" fill="black"/>
<path d="M135.118 21.7688C135.835 22.5241 136.774 22.9015 137.714 22.9015C138.654 22.9015 139.594 22.5241 140.31 21.7688C141.744 20.2587 141.744 17.81 140.31 16.2994L134.198 9.86211C132.764 8.35197 130.439 8.35197 129.005 9.86211C127.571 11.3722 127.571 13.8209 129.005 15.3315L135.118 21.7688Z" fill="black"/>
<path d="M151.417 128.776C149.653 127.722 147.412 128.373 146.411 130.23C135.719 150.071 115.637 162.396 93.9999 162.396C60.7951 162.396 33.7812 133.945 33.7812 98.9737C33.7812 69.5425 53.541 43.5151 80.7654 37.0875C82.8062 36.6056 84.8955 36.2328 86.976 35.9784C88.9904 35.7324 90.4338 33.8127 90.1999 31.6912C89.9664 29.5697 88.1458 28.051 86.1292 28.2954C83.7947 28.5808 81.4494 28.9996 79.1593 29.5403C64.4241 33.0196 51.0441 41.7784 41.4833 54.2037C31.7807 66.813 26.4374 82.7126 26.4374 98.9737C26.4374 113.486 30.5874 126.995 37.6983 138.261L1.0754 176.832C-0.358467 178.342 -0.358467 180.791 1.0754 182.301C1.79252 183.056 2.73215 183.434 3.67178 183.434C4.61142 183.434 5.55142 183.056 6.26817 182.301L30.3171 156.973L38.9512 166.066L14.9022 191.394C13.4683 192.905 13.4683 195.353 14.9022 196.864C15.6193 197.619 16.559 197.997 17.4986 197.997C18.4382 197.997 19.3782 197.619 20.095 196.864L56.7223 158.288C67.4141 165.766 80.2311 170.13 93.9995 170.13C118.274 170.13 140.804 156.304 152.797 134.048C153.799 132.19 153.18 129.83 151.417 128.776ZM44.1443 160.597L35.5102 151.504L42.1372 144.524C44.7513 147.82 47.6425 150.864 50.7731 153.616L44.1443 160.597Z" fill="black"/>
<path d="M94.0004 126.809C83.5524 126.809 74.0639 120.307 69.8273 110.246C69.0052 108.294 66.8362 107.413 64.9819 108.279C63.1284 109.145 62.2919 111.429 63.114 113.382C68.5271 126.237 80.6509 134.543 94.0007 134.543C96.0287 134.543 97.6726 132.812 97.6726 130.676C97.6726 128.54 96.0284 126.809 94.0004 126.809Z" fill="black"/>
<path d="M63.915 102.967C65.9429 102.958 67.5795 101.219 67.5703 99.0828V98.9737C67.5703 96.8379 65.9264 95.1065 63.8984 95.1065C61.8705 95.1065 60.2266 96.8379 60.2266 98.9737V99.1176C60.2357 101.247 61.8778 102.967 63.8981 102.967C63.9036 102.967 63.9095 102.967 63.915 102.967Z" fill="black"/>
</g>
<defs>
<clipPath id="clip0">
<rect width="188" height="198" fill="white"/>
</clipPath>
</defs>
</svg>
