<svg width="45" height="43" viewBox="0 0 45 43" fill="none" xmlns="http://www.w3.org/2000/svg">
<g clip-path="url(#clip0)">
<path d="M22.75 36.1073C31.0084 36.1073 37.7031 29.5647 37.7031 21.494C37.7031 13.4233 31.0084 6.88075 22.75 6.88075C14.4916 6.88075 7.79688 13.4233 7.79688 21.494C7.79688 29.5647 14.4916 36.1073 22.75 36.1073Z" fill="#D5F9D5"/>
<path d="M22.7506 32.0786C28.7323 32.0786 33.5813 27.3397 33.5813 21.494C33.5813 15.6484 28.7323 10.9095 22.7506 10.9095C16.769 10.9095 11.9199 15.6484 11.9199 21.494C11.9199 27.3397 16.769 32.0786 22.7506 32.0786Z" fill="white"/>
<path d="M10.6623 30.1491L1.60938 38.9963L4.84573 42.1591L13.8987 33.3119L10.6623 30.1491Z" fill="#98E3FF"/>
<path d="M10.6612 30.1496L7.84473 32.9021L11.0811 36.0649L13.8976 33.3124L10.6612 30.1496Z" fill="white"/>
<path d="M28.5454 24.6918H26.5215C25.5722 24.6918 24.8027 23.9398 24.8027 23.0121V6.97917H28.584L28.5454 24.6918Z" fill="#69E669"/>
<path d="M42.1719 24.6918H29.959C29.0097 24.6918 28.2402 23.9398 28.2402 23.0121V6.97917H43.8907V23.0121C43.8907 23.9398 43.1212 24.6918 42.1719 24.6918Z" fill="#90EE90"/>
<path d="M43.8905 6.13933H24.8026C24.328 6.13933 23.9432 6.51533 23.9432 6.97917V10.1304C23.5474 10.0912 23.1482 10.0696 22.7499 10.0696C16.3038 10.0696 11.0596 15.1947 11.0596 21.4943C11.0596 27.7939 16.3038 32.9188 22.7499 32.9188C27.632 32.9188 31.9761 29.9665 33.6881 25.5317H42.1718C43.5934 25.5317 44.7499 24.4014 44.7499 23.0121V6.97917C44.7499 6.51533 44.3652 6.13933 43.8905 6.13933ZM25.662 7.81902H27.3807V23.0121C27.3807 23.3066 27.4332 23.5891 27.5285 23.852H26.5214C26.0475 23.852 25.662 23.4752 25.662 23.0121V7.81902ZM22.7499 31.2392C17.2516 31.2392 12.7783 26.8676 12.7783 21.4942C12.7783 16.1208 17.2515 11.7493 22.7499 11.7493C23.1487 11.7493 23.5487 11.7733 23.9432 11.8191V23.0121C23.9432 24.4014 25.0998 25.5317 26.5214 25.5317H29.9589H31.827C30.2228 28.9816 26.6925 31.2392 22.7499 31.2392ZM43.0312 23.0121C43.0312 23.4752 42.6456 23.852 42.1718 23.852H32.2879H29.9589C29.485 23.852 29.0995 23.4752 29.0995 23.0121V7.81902H43.0312V23.0121Z" fill="#4682B3"/>
<path d="M36.0655 17.6112C38.3886 17.6112 40.2785 15.7642 40.2785 13.4939V11.9543C40.2785 11.4904 39.8938 11.1144 39.4192 11.1144C38.9445 11.1144 38.5598 11.4904 38.5598 11.9543V13.4939C38.5598 14.838 37.4408 15.9315 36.0655 15.9315C34.6903 15.9315 33.5713 14.8379 33.5713 13.4939V11.9543C33.5713 11.4904 33.1865 11.1144 32.7119 11.1144C32.2373 11.1144 31.8525 11.4904 31.8525 11.9543V13.4939C31.8525 15.7642 33.7425 17.6112 36.0655 17.6112Z" fill="white"/>
<path d="M36.0645 3.97051C36.5391 3.97051 36.9238 3.59451 36.9238 3.13066V0.840576C36.9238 0.37673 36.5391 0.000732422 36.0645 0.000732422C35.5898 0.000732422 35.2051 0.37673 35.2051 0.840576V3.13066C35.2051 3.59451 35.5899 3.97051 36.0645 3.97051Z" fill="#4682B3"/>
<path d="M39.1494 4.97633C39.3693 4.97633 39.5893 4.89428 39.7571 4.73034L41.1876 3.33225C41.5231 3.00429 41.5231 2.4725 41.1876 2.14454C40.852 1.81659 40.3078 1.81659 39.9722 2.14454L38.5417 3.54263C38.2061 3.87059 38.2061 4.40238 38.5417 4.73034C38.7096 4.89436 38.9295 4.97633 39.1494 4.97633Z" fill="#4682B3"/>
<path d="M32.3737 4.72758C32.5415 4.8916 32.7614 4.97357 32.9814 4.97357C33.2013 4.97357 33.4213 4.8916 33.589 4.72758C33.9246 4.39962 33.9246 3.86783 33.589 3.53979L32.1585 2.14178C31.8229 1.81382 31.2788 1.81382 30.9431 2.14178C30.6075 2.46974 30.6075 3.00153 30.9431 3.32957L32.3737 4.72758Z" fill="#4682B3"/>
<path d="M36.1879 27.9665C35.7751 27.7375 35.2507 27.8789 35.0164 28.2823C32.5141 32.5911 27.8139 35.2677 22.75 35.2677C14.9786 35.2677 8.65623 29.089 8.65623 21.4943C8.65623 15.1027 13.2809 9.45025 19.6525 8.05435C20.1302 7.9497 20.6192 7.86874 21.1061 7.81348C21.5775 7.76007 21.9154 7.34317 21.8606 6.88243C21.806 6.42169 21.3799 6.09189 20.9079 6.14496C20.3615 6.20694 19.8126 6.2979 19.2766 6.41531C15.828 7.17092 12.6965 9.07308 10.4589 11.7715C8.18804 14.5099 6.93748 17.9628 6.93748 21.4943C6.93748 24.646 7.90874 27.5798 9.57301 30.0263L1.00169 38.4029C0.666104 38.7308 0.666104 39.2626 1.00169 39.5907C1.16953 39.7547 1.38944 39.8366 1.60935 39.8366C1.82927 39.8366 2.04927 39.7547 2.21702 39.5907L7.84549 34.0901L9.86623 36.0649L4.23775 41.5655C3.90217 41.8934 3.90217 42.4252 4.23775 42.7533C4.40559 42.9173 4.6255 42.9992 4.84542 42.9992C5.06533 42.9992 5.28533 42.9173 5.45308 42.7533L14.0254 34.3757C16.5278 35.9997 19.5275 36.9474 22.7499 36.9474C28.4311 36.9474 33.7042 33.9448 36.5111 29.1114C36.7454 28.708 36.6007 28.1953 36.1879 27.9665ZM11.0816 34.8771L9.06091 32.9023L10.6119 31.3866C11.2237 32.1024 11.9004 32.7634 12.6331 33.3609L11.0816 34.8771Z" fill="#4682B3"/>
<path d="M22.75 27.5392C20.3047 27.5392 18.084 26.1274 17.0925 23.9423C16.9 23.5183 16.3924 23.3272 15.9584 23.5151C15.5246 23.7032 15.3289 24.1993 15.5213 24.6233C16.7882 27.415 19.6256 29.2189 22.7501 29.2189C23.2247 29.2189 23.6094 28.8429 23.6094 28.3791C23.6094 27.9152 23.2246 27.5392 22.75 27.5392Z" fill="#4682B3"/>
<path d="M15.7089 22.3616C16.1836 22.3595 16.5666 21.9818 16.5645 21.518V21.4943C16.5645 21.0304 16.1797 20.6544 15.7051 20.6544C15.2304 20.6544 14.8457 21.0304 14.8457 21.4943V21.5255C14.8479 21.988 15.2322 22.3616 15.705 22.3616C15.7063 22.3616 15.7077 22.3616 15.7089 22.3616Z" fill="#4682B3"/>
</g>
<defs>
<clipPath id="clip0">
<rect width="44" height="43" fill="white" transform="translate(0.75)"/>
</clipPath>
</defs>
</svg>
