<svg width="30" height="30" viewBox="0 0 30 30" fill="none" xmlns="http://www.w3.org/2000/svg">
<path fill-rule="evenodd" clip-rule="evenodd" d="M28.3839 1.61612C28.872 2.10428 28.872 2.89573 28.3839 3.38389L14.6339 17.1339C14.1457 17.622 13.3543 17.622 12.8661 17.1339C12.378 16.6457 12.378 15.8543 12.8661 15.3661L26.6161 1.61612C27.1043 1.12797 27.8957 1.12797 28.3839 1.61612Z" fill="#4682B3"/>
<path fill-rule="evenodd" clip-rule="evenodd" d="M28.3839 1.61612C28.7234 1.95567 28.8385 2.45971 28.6798 2.91294L19.9298 27.9129C19.7605 28.3967 19.3131 28.7281 18.801 28.749C18.2889 28.7699 17.8159 28.476 17.6077 28.0077L12.803 17.197L1.99233 12.3923C1.52398 12.1841 1.23015 11.7111 1.25105 11.199C1.27194 10.687 1.60332 10.2395 2.08707 10.0702L27.0871 1.32018C27.5403 1.16155 28.0443 1.27657 28.3839 1.61612ZM5.88885 11.3883L14.2577 15.1077C14.5405 15.2334 14.7666 15.4595 14.8923 15.7423L18.6117 24.1112L25.4625 4.53747L5.88885 11.3883Z" fill="#4682B3"/>
</svg>
