<svg width="30" height="30" viewBox="0 0 30 30" fill="none" xmlns="http://www.w3.org/2000/svg">
<circle cx="15" cy="15" r="15" fill="#90EE90"/>
<g clip-path="url(#clip0)">
<path d="M12.2248 22.4249C10.2748 22.4249 8.24978 21.8999 6.44978 20.8499C6.14978 20.6999 5.99978 20.3249 6.07478 20.0249C6.14978 19.7249 6.44978 19.4999 6.74978 19.4999C8.02478 19.5749 9.29978 19.2749 10.4248 18.7499C7.64978 17.0249 6.89978 14.6249 6.82478 12.7499C6.74978 10.5749 7.49978 8.7749 7.57478 8.6999C7.64978 8.4749 7.87478 8.2499 8.17478 8.2499C8.47478 8.2499 8.69978 8.3249 8.84978 8.5499C10.1248 10.3499 12.0748 11.4749 14.2498 11.6249C14.2498 10.4249 14.7748 9.2999 15.6748 8.4749C17.2498 7.1249 19.5748 7.1249 21.1498 8.4749C21.7498 8.2499 22.3498 7.9499 22.8748 7.5749C23.0998 7.4249 23.4748 7.4249 23.6998 7.5749C23.9248 7.7249 24.0748 8.0999 23.9998 8.3999C23.7748 9.4499 23.2498 10.4249 22.4998 11.2499C22.4998 11.3999 22.4998 11.4749 22.4998 11.6249C22.4998 15.7499 20.6998 19.1999 17.4748 20.9999C15.8998 21.9749 14.0998 22.4249 12.2248 22.4249ZM9.74978 20.6249C12.2248 21.2249 14.6998 20.9249 16.7998 19.7249C19.4998 18.1499 21.0748 15.1499 21.0748 11.6249C21.0748 11.4749 21.0748 11.3249 20.9998 11.1749C20.9248 10.9499 20.9998 10.6499 21.2248 10.4999C21.3748 10.3499 21.5248 10.1249 21.6748 9.9749C21.5248 10.0499 21.2998 10.1249 21.1498 10.1249C20.8498 10.1999 20.5498 10.1249 20.3998 9.8999C19.4248 8.8499 17.7748 8.6999 16.7248 9.6749C16.0498 10.1249 15.7498 10.8749 15.7498 11.6249V12.3749C15.7498 12.7499 15.4498 13.1249 14.9998 13.1249C12.5248 13.1999 10.1998 12.2249 8.54978 10.4999C8.09978 12.4499 7.94978 16.1249 12.2998 17.9999C12.5248 18.1499 12.7498 18.3749 12.7498 18.6749C12.7498 18.9749 12.6748 19.1999 12.4498 19.3499C11.5498 19.9499 10.6498 20.3999 9.74978 20.6249Z" fill="white"/>
</g>
<defs>
<clipPath id="clip0">
<rect width="18" height="18" fill="white" transform="translate(6 6)"/>
</clipPath>
</defs>
</svg>
